<svg width="294" height="73" viewBox="0 0 294 73" fill="none" xmlns="http://www.w3.org/2000/svg">
<path fill-rule="evenodd" clip-rule="evenodd" d="M11.8297 28.4756C11.4167 30.1328 13.0116 29.8399 14.4997 29.8899C16.3366 29.8042 19.6973 30.1042 21.2423 29.7042L21.3064 29.6756C21.9472 29.3542 21.6481 28.4042 21.1497 26.8756C20.7937 25.7542 20.3167 24.3471 19.8112 22.9256C19.2416 21.7899 17.8176 16.0185 16.5075 16.7685C16.1444 16.9971 15.881 17.5328 15.6745 17.9756C14.3858 20.9971 12.4064 26.4685 11.8297 28.4828V28.4756ZM5.63535 44.5256C3.64176 44.4613 1.52714 44.7471 0.516107 43.5756C-0.224368 42.1613 1.89026 40.7185 2.51681 39.5685C3.15049 38.6971 3.52785 37.8899 3.89096 36.9256C5.72079 32.2113 11.2815 18.2756 13.0045 13.5971L13.0401 13.4971C13.5741 11.9185 13.8945 9.88277 15.1334 8.61134C16.657 6.98277 19.5976 6.03991 21.1782 7.87563C23.8268 13.0756 30.3416 31.0756 32.7481 36.7042C33.1326 37.6756 33.3533 38.2828 34.0511 39.2185C34.877 40.3399 36.6641 42.2042 36.2298 43.2685C35.532 44.6828 33.5028 44.4685 32.1429 44.5185C30.3416 44.4828 28.348 44.4828 26.5466 44.5113C25.2223 44.5185 22.4527 44.4042 23.0721 42.4899C23.5136 41.3899 24.5958 40.4471 24.8165 39.2256C25.1654 37.6113 24.1472 35.4185 23.0579 34.4756C22.1892 33.7471 21.0002 33.7685 19.9037 33.7399C18.1238 33.7399 15.5036 33.7399 13.7663 33.7399C12.5915 33.7613 11.3242 33.7471 10.4128 34.5542C9.19533 35.5899 8.12022 38.0899 8.70405 39.8399C9.07429 41.2971 11.5307 43.4899 8.99597 44.2328C7.8639 44.5685 6.81727 44.4971 5.64959 44.5042L5.63535 44.5256Z" fill="white"/>
<path fill-rule="evenodd" clip-rule="evenodd" d="M77.2124 27.8613C77.0416 29.9328 77.1697 32.5113 77.127 34.6971C77.1626 37.0471 77.1555 37.4971 77.4332 39.1256C77.8319 40.7256 78.0739 40.7756 78.7005 41.6113C79.028 42.0471 79.4979 42.7185 79.5335 43.2685C79.6047 44.3042 78.4869 44.7542 77.8604 44.7399C75.2402 44.7042 73.802 44.7685 71.132 44.6756C66.7746 44.0756 69.6582 41.3756 70.2776 39.2828C70.6977 37.9471 70.5482 37.1185 70.5838 35.2185V28.5042C70.5054 26.7256 70.8899 24.4399 69.9643 23.3113C69.4802 22.6542 68.7326 22.0613 68.341 21.3613C67.6717 19.9399 69.6012 19.2471 70.7404 18.6971C71.9437 18.2185 73.1398 17.5542 74.4072 17.3971C76.0376 17.1899 76.65 19.5399 77.1982 20.4828C77.3406 20.7113 77.54 20.8899 77.8105 20.8042C78.5154 20.5042 78.9141 19.9399 79.7827 19.3113C81.164 18.2256 83.0366 17.3113 84.845 17.1113C90.1565 16.2113 92.0647 23.0328 88.6756 26.1399C87.8425 26.8828 86.4969 27.4042 85.5214 26.6756C84.5246 25.9756 84.247 23.9328 83.2644 23.0113C80.4378 20.8113 77.4616 25.2328 77.2267 27.7685L77.2124 27.8685V27.8613Z" fill="white"/>
<path fill-rule="evenodd" clip-rule="evenodd" d="M99.889 5.5399C101.619 5.52562 103.221 6.90419 103.186 8.70419C103.257 11.6399 99.8391 14.0113 96.9128 13.547C94.6843 13.3328 94.0221 10.8185 94.9193 9.01133C95.7024 7.14705 97.7387 5.54705 99.7608 5.5399H99.889ZM102.352 27.1471C102.352 29.6471 102.352 32.6185 102.352 35.4828C102.367 37.1471 102.246 38.6828 102.993 40.0471C103.62 41.3399 105.763 43.2613 103.307 44.2542C101.683 44.7613 100.708 44.4328 99.0702 44.4828C97.6106 44.3471 92.6765 45.3185 93.8441 42.4399C94.4707 41.3185 94.7057 40.3899 95.1186 39.1399C95.7238 37.3685 95.3749 35.0971 95.4675 32.8899C95.3251 30.2328 95.8092 26.1042 95.1756 23.8756C94.314 21.8899 90.8538 20.4542 94.5277 18.8828C96.3432 18.1756 98.2087 17.297 100.088 16.797C103.299 16.4256 102.545 19.6113 102.495 21.9542C102.424 23.5399 102.374 25.5899 102.367 27.0685V27.1613L102.352 27.1471Z" fill="white"/>
<path fill-rule="evenodd" clip-rule="evenodd" d="M131.288 33.7471C132.264 33.4756 132.413 35.0042 132.278 35.7828C132.015 37.5256 131.16 39.2185 129.708 40.7756C127.102 43.6899 122.324 44.9185 118.487 44.1971C102.787 41.6328 105.123 15.9542 121.52 16.1685H121.591C125.55 16.0542 130.235 18.3756 130.74 21.6899C131.132 24.2828 130.911 25.1399 129.494 25.2614C127.009 25.4756 126.981 25.0756 126.44 23.2828C124.937 17.7685 117.362 18.3471 115.162 23.3685C111.879 31.4614 117.248 41.1971 126.418 37.9185C128.056 37.2685 129.259 36.1042 130.178 34.8185C130.491 34.4042 130.804 33.9185 131.303 33.7471H131.288Z" fill="white"/>
<path fill-rule="evenodd" clip-rule="evenodd" d="M155.589 17.4756C160.58 16.8256 163.713 14.6756 162.388 21.7184C162.168 23.9756 162.146 26.2899 162.153 28.6256H162.16V30.3613C162.175 31.8042 162.182 33.2542 162.16 34.697C162.16 35.0327 162.16 35.3542 162.16 35.6613V43.2899C162.16 43.8684 161.698 44.3327 161.121 44.3327H156.657C156.087 44.3327 155.624 43.8613 155.624 43.2899V41.747C154.428 41.097 153.268 43.1184 151.808 43.597C147.593 45.7542 140.801 45.1613 138.643 40.3184C136.792 36.7327 137.554 31.0399 137.817 26.8042C138.152 23.4399 138.088 22.3184 135.567 20.0184C134.101 17.8684 137.49 17.4542 139.014 17.2827C140.765 17.1756 142.759 16.1899 144.282 16.8256C145.016 17.1899 145.386 18.0327 145.329 18.8184C145.229 20.6756 144.674 22.9256 144.389 26.8756C144.304 31.2113 142.937 38.5042 148.22 40.0899C151.424 40.8256 154.478 39.3256 155.297 35.597C155.518 34.6399 155.603 33.6899 155.639 32.7399V28.597C155.624 26.647 155.731 24.7542 155.482 23.4684C155.332 21.9613 154.008 21.0899 153.211 19.9327C152.328 18.3399 153.958 17.7113 155.589 17.4399V17.4756Z" fill="white"/>
<path fill-rule="evenodd" clip-rule="evenodd" d="M167.558 41.297C168.177 40.4113 168.825 39.497 169.081 38.4613C169.402 36.9685 169.195 34.5256 169.252 32.5685C169.252 26.3113 169.252 16.997 169.252 13.1185C169.252 9.48275 163.371 8.76846 169.872 6.16846C174.848 4.07561 177.333 3.87561 176.657 9.99704C176.571 11.9899 176.543 14.1899 176.543 16.0327C176.543 20.097 176.543 31.7899 176.543 36.3185C176.543 37.4185 176.522 38.4042 176.977 39.4542C177.305 40.6828 179.726 42.4756 178.779 43.8256C177.077 45.1613 174.549 44.497 172.506 44.647C170.028 44.7113 164.759 44.9542 167.486 41.4113L167.572 41.2899L167.558 41.297Z" fill="white"/>
<path fill-rule="evenodd" clip-rule="evenodd" d="M199.889 36.9399C200.21 36.9399 200.616 37.1828 200.616 38.047C200.616 38.5613 200.431 39.2613 200.025 39.9613C199.028 41.8828 196.579 44.6113 192 44.6113C187.152 44.6113 184.674 41.3685 184.674 34.9113C184.674 32.4542 185.023 25.4542 185.023 22.7828C185.023 21.7542 184.781 21.2685 183.969 21.1613C182.004 20.9185 180.844 20.7828 180.844 19.7328C180.844 18.9256 181.143 18.2185 182.054 17.7828C183.67 17.0542 185.315 16.1399 186.497 14.8399C188.54 12.5399 188.704 9.62561 190.242 9.62561C191.103 9.62561 191.666 10.3542 191.666 11.7399C191.666 12.7899 191.395 16.9828 191.395 17.1685C191.395 17.297 191.424 17.3828 191.637 17.3828C192.093 17.3828 197.376 17.1113 197.995 17.1113C199.042 17.1113 199.719 17.4113 199.719 18.6756C199.719 19.5899 199.206 20.7899 198.75 21.2756C198.586 21.4328 198.259 21.597 197.832 21.597C197.269 21.597 192.556 21.3256 191.851 21.3256C191.694 21.3256 191.452 21.3828 191.424 21.7828C191.345 22.7542 191.182 30.4042 191.182 33.1613C191.182 36.2113 191.83 39.4542 195.169 39.4542C196.863 39.4542 198.159 38.3756 198.914 37.5899C199.313 37.1613 199.533 36.9399 199.882 36.9399H199.889Z" fill="white"/>
<path fill-rule="evenodd" clip-rule="evenodd" d="M223.542 17.4756C228.533 16.8256 231.666 14.6756 230.342 21.7184C230.121 23.9756 230.1 26.2899 230.107 28.6256H230.121V30.3613C230.128 31.8042 230.142 33.2542 230.121 34.697C230.121 35.0327 230.121 35.3542 230.121 35.6613V43.2899C230.121 43.8684 229.658 44.3327 229.081 44.3327H224.617C224.048 44.3327 223.578 43.8613 223.578 43.2899V41.747C222.382 41.097 221.221 43.1184 219.761 43.597C215.546 45.7542 208.747 45.1613 206.597 40.3184C204.745 36.7327 205.507 31.0399 205.771 26.8042C206.098 23.4399 206.041 22.3184 203.521 20.0184C202.054 17.8684 205.443 17.4542 206.967 17.2827C208.718 17.1756 210.712 16.1899 212.236 16.8256C212.969 17.1899 213.339 18.0327 213.282 18.8184C213.183 20.6756 212.627 22.9256 212.342 26.8756C212.257 31.2113 210.89 38.5042 216.173 40.0899C219.377 40.8256 222.431 39.3256 223.25 35.597C223.471 34.6399 223.556 33.6899 223.592 32.7399V28.597C223.578 26.647 223.685 24.7542 223.442 23.4684C223.286 21.9613 221.962 21.0899 221.171 19.9327C220.288 18.3399 221.919 17.7113 223.549 17.4399L223.542 17.4756Z" fill="white"/>
<path fill-rule="evenodd" clip-rule="evenodd" d="M243.954 27.8613C243.783 29.9328 243.911 32.5113 243.869 34.6971C243.904 37.0471 243.897 37.4971 244.175 39.1256C244.574 40.7256 244.816 40.7756 245.442 41.6113C245.77 42.0471 246.24 42.7185 246.275 43.2685C246.346 44.3042 245.229 44.7542 244.602 44.7399C241.982 44.7042 240.544 44.7685 237.874 44.6756C233.516 44.0756 236.4 41.3756 237.019 39.2828C237.439 37.9471 237.29 37.1185 237.325 35.2185V28.5042C237.247 26.7256 237.632 24.4399 236.706 23.3113C236.222 22.6542 235.474 22.0613 235.083 21.3613C234.413 19.9399 236.343 19.2471 237.482 18.6971C238.685 18.2185 239.882 17.5542 241.149 17.3971C242.779 17.1899 243.392 19.5399 243.94 20.4828C244.082 20.7113 244.282 20.8899 244.552 20.8042C245.257 20.5042 245.656 19.9399 246.524 19.3113C247.906 18.2256 249.778 17.3113 251.587 17.1113C256.898 16.2113 258.806 23.0328 255.417 26.1399C254.584 26.8828 253.239 27.4042 252.263 26.6756C251.266 25.9756 250.989 23.9328 250.006 23.0113C247.179 20.8113 244.203 25.2328 243.968 27.7685L243.954 27.8685V27.8613Z" fill="white"/>
<path fill-rule="evenodd" clip-rule="evenodd" d="M276.016 33.1756C276.016 31.5542 275.859 31.0685 275.51 31.0685C273.275 31.0685 271.466 31.2828 269.935 31.7685C267.08 32.7113 265.813 34.6042 265.813 36.5256C265.813 38.7613 267.479 40.0685 269.8 40.0685C273.467 40.0685 276.023 37.3113 276.023 33.1756H276.016ZM280.857 20.4971C281.918 22.1685 282.502 24.2685 282.502 26.7756C282.502 27.8471 282.474 28.9828 282.438 30.1042V43.4756C282.438 43.6399 282.388 43.7828 282.317 43.9113C282.153 44.1971 281.861 44.4042 281.512 44.4042H276.998C276.486 44.4042 276.073 43.9899 276.073 43.4756V41.2113C275.966 41.0113 275.823 40.8471 275.667 40.8471C275.475 40.8471 275.261 41.1756 275.047 41.3899C273.296 43.0899 270.391 44.3899 267.322 44.3899C262.773 44.3899 259.213 41.9828 259.213 37.6613C259.213 33.3399 262.281 30.6685 267.052 29.2328C270.555 28.2256 274.784 28.0685 275.432 27.6113C275.724 27.3971 275.994 26.9613 275.994 25.2613C275.994 22.5328 275.097 20.2256 273.004 19.3471C272.42 19.1042 271.758 18.9685 270.982 18.9685C270.79 18.9685 270.597 18.9756 270.419 18.9971C268.305 19.1399 266.368 20.3828 265.685 22.8828C265.144 24.6756 265.115 25.0685 262.63 24.8613C261.213 24.7399 260.993 23.8828 261.384 21.2899C261.633 19.6542 262.908 18.2542 264.61 17.2828C266.283 16.4542 268.447 15.9185 271.06 15.9185C272.377 15.9185 273.602 16.0542 274.734 16.3256C277.233 17.0756 279.262 18.5256 280.793 20.3828C280.815 20.4185 280.836 20.4613 280.864 20.5042L280.857 20.4971Z" fill="white"/>
<path fill-rule="evenodd" clip-rule="evenodd" d="M55.1475 27.7757C54.8057 29.2328 53.9869 30.4899 52.627 31.1328C52.5772 31.1542 52.5202 31.1828 52.4704 31.2042C52.3565 31.2542 52.2354 31.2899 52.1215 31.3328C51.9791 31.3757 51.851 31.4257 51.7086 31.4542C51.4807 31.5114 51.26 31.5328 51.0393 31.5614C50.8399 31.5828 50.6406 31.5971 50.4341 31.5971C49.6153 31.5971 48.825 31.4114 48.113 31.0257C48.0916 31.0114 48.0703 31.0042 48.0489 30.9899C47.9848 30.9542 47.9207 30.9114 47.8638 30.8757C46.6107 30.0042 45.8061 28.4899 45.5142 26.8614C45.4501 26.4257 45.4074 25.9542 45.4074 25.4542C45.4074 24.9257 45.4644 24.4328 45.5569 23.9614C45.5712 23.8899 45.5854 23.8257 45.5996 23.7542C45.6352 23.5828 45.6922 23.4114 45.742 23.2399C45.8346 22.9614 45.9272 22.6828 46.0624 22.4257C46.7958 20.9828 48.1272 19.9257 50.1422 19.8185H50.2846H50.313C52.0788 19.8757 53.4245 20.8828 54.2717 22.2828C55.0051 23.5757 55.2828 25.1257 55.2828 26.3185C55.2828 26.8471 55.2329 27.3328 55.1475 27.7757ZM56.5501 42.8614C56.8634 43.3971 57.02 43.9114 57.0628 44.3828C57.0628 44.4114 57.0628 44.4399 57.0628 44.4757C57.0628 44.5185 57.0628 44.5614 57.0628 44.6042C57.02 45.8114 56.1585 46.8757 54.7132 47.6542C54.6135 47.7042 54.5067 47.7614 54.407 47.8114C54.3643 47.8328 54.3216 47.8542 54.2789 47.8757C53.5384 48.2042 52.6982 48.4685 51.8011 48.6542C51.7584 48.6685 51.7086 48.6757 51.6587 48.6828C50.7118 48.8685 49.6723 48.9685 48.5544 48.9757C48.4547 48.9757 48.3622 48.9757 48.2696 48.9757H48.0631C45.9984 48.9042 43.9193 48.4399 42.8798 47.4114C42.8086 47.3399 42.7445 47.2685 42.6876 47.1899C42.6733 47.1757 42.6662 47.1614 42.652 47.1399C42.4455 46.8614 42.3102 46.5328 42.2319 46.1828C42.2177 46.0828 42.1963 45.9971 42.1963 45.8971C42.1963 45.8828 42.1963 45.8685 42.1963 45.8542C42.1892 45.7542 42.1892 45.6471 42.1892 45.5542C42.1892 45.4114 42.2105 45.2685 42.239 45.1328C42.2533 45.0471 42.2746 44.9685 42.3031 44.8899C42.3173 44.8471 42.3316 44.8042 42.3529 44.7542C42.8015 43.5757 44.0973 42.7399 45.3006 42.2971C45.5356 42.2185 45.7848 42.1399 46.0411 42.0757C46.6392 41.9614 47.3583 41.8257 48.1486 41.6971C49.5512 41.5185 51.2529 41.3971 52.6342 41.3971C52.8691 41.3971 53.0756 41.4114 53.2892 41.4257C54.6349 41.5828 55.8168 41.9899 56.5644 42.8542L56.5501 42.8614ZM62.0183 21.5328C62.9866 21.5328 64.0759 21.4114 64.8093 20.7185C65.9556 19.6899 66.0197 17.3971 65.2578 16.8042C64.8805 16.4757 64.4034 16.5328 63.9264 16.6471C63.2002 16.8399 62.4739 17.0328 61.6907 17.1685C61.5839 17.1828 61.4843 17.2042 61.3775 17.2185C56.4647 17.8614 51.4665 15.3828 46.5181 16.7971C40.5872 17.9757 37.2907 24.4971 39.9322 29.9328C40.3665 30.8328 40.929 31.6399 41.5911 32.3399C41.7833 32.5471 41.7833 32.8685 41.5911 33.0685C41.3633 33.2971 41.1141 33.5042 40.8934 33.7042C38.4583 35.4185 38.1237 38.7399 40.1102 40.8899C38.8784 41.9471 37.8816 43.2185 37.2764 44.7542C36.1586 47.8542 38.2447 50.4042 41.0785 51.4685C45.564 53.1542 50.5195 52.9614 55.119 51.7399C57.9812 50.9257 60.9289 49.5971 62.951 47.3828C65.4073 44.7542 65.4501 40.7899 62.4455 38.5828L62.4099 38.5542C59.6402 36.6042 56.1301 36.5828 52.7979 36.7042C50.7047 36.7971 48.3551 37.1399 46.1123 37.8185C45.799 37.9114 45.4572 37.8971 45.1653 37.7542C44.1899 37.2828 43.5491 36.4399 44.1329 35.2542C44.3893 34.8471 44.8948 34.6685 45.3433 34.8328C46.5893 35.2828 47.9421 35.4828 49.3091 35.3899L51.1603 35.2614C53.2038 35.1257 55.2685 34.5971 57.02 33.5471C59.925 31.8757 61.7762 28.4399 61.1781 25.0114C61.0642 23.9685 60.3878 22.8328 60.3735 21.9614C60.4091 21.5257 61.0357 21.5471 62.0111 21.5542L62.0183 21.5328Z" fill="white"/>
<path fill-rule="evenodd" clip-rule="evenodd" d="M5.46585 61.8089C5.46585 62.2731 5.35192 62.6731 5.12409 63.016C4.89625 63.366 4.56873 63.6303 4.14153 63.816C3.71434 64.0017 3.19458 64.0946 2.57515 64.0946C2.30459 64.0946 2.04115 64.0731 1.77771 64.0374C1.51427 64.0017 1.26507 63.9446 1.03011 63.8803C0.795153 63.8089 0.567319 63.7231 0.36084 63.6231V62.066C0.731077 62.2303 1.11555 62.3731 1.52139 62.5089C1.92011 62.6446 2.3117 62.716 2.71042 62.716C2.98098 62.716 3.2017 62.6803 3.36546 62.6017C3.52922 62.5303 3.65026 62.4303 3.72858 62.3017C3.80689 62.1803 3.8425 62.0374 3.8425 61.8731C3.8425 61.6731 3.7713 61.5089 3.64314 61.366C3.50786 61.2303 3.32274 61.1017 3.10202 60.9731C2.87418 60.8517 2.61075 60.7231 2.31883 60.5803C2.14083 60.4946 1.94147 60.3874 1.72787 60.266C1.51427 60.1446 1.30779 59.9946 1.11555 59.816C0.916195 59.6374 0.759557 59.416 0.638518 59.1589C0.510358 58.9017 0.453397 58.5946 0.453397 58.2374C0.453397 57.766 0.560194 57.3589 0.773793 57.0303C0.994512 56.7017 1.30067 56.4446 1.69939 56.266C2.09811 56.0946 2.56803 56.0017 3.10914 56.0017C3.51498 56.0017 3.90658 56.0517 4.27681 56.1446C4.64705 56.2374 5.03153 56.3731 5.43737 56.5517L4.89625 57.8517C4.54025 57.7088 4.21273 57.5946 3.92793 57.5089C3.64313 57.4303 3.35122 57.3874 3.05218 57.3874C2.8457 57.3874 2.66771 57.416 2.52531 57.4874C2.38291 57.5517 2.26899 57.6446 2.19067 57.7589C2.11235 57.8803 2.07675 58.016 2.07675 58.1803C2.07675 58.366 2.12659 58.516 2.24051 58.6446C2.35443 58.7731 2.51106 58.9017 2.7389 59.016C2.95962 59.1374 3.23018 59.2731 3.5577 59.4303C3.95642 59.6231 4.30529 59.8231 4.58297 60.0303C4.86065 60.2374 5.08137 60.4803 5.23801 60.7588C5.38753 61.0374 5.46585 61.3803 5.46585 61.7946V61.8089Z" fill="#EDD899"/>
<path fill-rule="evenodd" clip-rule="evenodd" d="M9.46033 59.0303C9.14705 59.0303 8.88361 59.1303 8.67001 59.3375C8.46353 59.5446 8.3425 59.866 8.29978 60.2946H10.5995C10.5995 60.0517 10.5568 59.8375 10.4714 59.6446C10.3859 59.4589 10.2578 59.3017 10.094 59.1946C9.92312 59.0875 9.70952 59.0303 9.45321 59.0303H9.46033ZM9.45321 57.8589C10.0086 57.8589 10.4856 57.966 10.8843 58.1803C11.283 58.3946 11.5963 58.7017 11.8099 59.1017C12.0306 59.5089 12.1374 60.0017 12.1374 60.5875V61.3803H8.2713C8.28554 61.8446 8.42082 62.2089 8.67713 62.466C8.94057 62.7375 9.29657 62.866 9.75936 62.866C10.151 62.866 10.4998 62.8303 10.8131 62.7446C11.1264 62.666 11.4539 62.5518 11.7885 62.3875V63.6589C11.4966 63.8017 11.1834 63.916 10.8558 63.9875C10.5283 64.0517 10.1367 64.0875 9.67392 64.0875C9.07585 64.0875 8.54185 63.9732 8.08618 63.7517C7.62338 63.5303 7.26026 63.1946 7.00394 62.7375C6.73338 62.2803 6.60522 61.7089 6.60522 61.016C6.60522 60.3232 6.72626 59.7232 6.96122 59.2589C7.2033 58.7946 7.53082 58.4446 7.95802 58.2017C8.37809 57.966 8.87649 57.8517 9.43897 57.8517L9.45321 57.8589Z" fill="#EDD899"/>
<path fill-rule="evenodd" clip-rule="evenodd" d="M16.1319 64.0946C15.5409 64.0946 15.0354 63.9875 14.6153 63.7732C14.1953 63.5517 13.882 63.2232 13.6613 62.766C13.4405 62.3089 13.3337 61.7303 13.3337 61.016C13.3337 60.3017 13.4619 59.6875 13.7111 59.2232C13.9603 58.7589 14.3021 58.416 14.7506 58.1946C15.1921 57.9732 15.7047 57.866 16.2814 57.866C16.6944 57.866 17.0432 57.9017 17.3494 57.9875C17.6556 58.066 17.919 58.1589 18.1468 58.2732L17.6627 59.5375C17.4064 59.4375 17.1643 59.3517 16.9436 59.2875C16.7157 59.2232 16.495 59.1875 16.2814 59.1875C15.9966 59.1875 15.7545 59.2589 15.5694 59.3875C15.3843 59.5303 15.2348 59.7303 15.1493 59.9946C15.0568 60.266 15.014 60.6017 15.014 61.0089C15.014 61.416 15.0639 61.7303 15.1636 61.9946C15.2633 62.2589 15.4057 62.4517 15.5979 62.5803C15.7901 62.7089 16.018 62.7732 16.2885 62.7732C16.6303 62.7732 16.9364 62.7232 17.1999 62.6375C17.4633 62.5446 17.7196 62.416 17.9688 62.2589V63.6589C17.7196 63.8232 17.4562 63.9375 17.1785 64.0089C16.908 64.0803 16.5591 64.116 16.139 64.116L16.1319 64.0946Z" fill="#EDD899"/>
<path fill-rule="evenodd" clip-rule="evenodd" d="M22.9031 57.8589C22.9885 57.8589 23.0739 57.8589 23.1879 57.866C23.2947 57.866 23.3872 57.8803 23.4513 57.9017L23.3303 59.4446C23.2733 59.4303 23.2021 59.416 23.1024 59.4017C23.0027 59.3946 22.9173 59.3875 22.8461 59.3875C22.6325 59.3875 22.4331 59.4089 22.2338 59.466C22.0344 59.5232 21.8564 59.6089 21.6998 59.7303C21.5431 59.8517 21.4221 60.0018 21.3224 60.1946C21.2299 60.3875 21.1871 60.6303 21.1871 60.916V63.9803H19.5496V57.966H20.7884L21.0305 58.9803H21.1088C21.2227 58.7732 21.3723 58.5875 21.5431 58.416C21.7211 58.2517 21.9276 58.116 22.1555 58.0089C22.3904 57.9017 22.6325 57.8517 22.8959 57.8517L22.9031 57.8589Z" fill="#EDD899"/>
<path fill-rule="evenodd" clip-rule="evenodd" d="M27.0254 59.0303C26.7122 59.0303 26.4487 59.1303 26.2422 59.3375C26.0358 59.5446 25.9147 59.866 25.872 60.2946H28.1717C28.1717 60.0517 28.129 59.8375 28.0436 59.6446C27.9581 59.4589 27.83 59.3017 27.6662 59.1946C27.4953 59.0875 27.2818 59.0303 27.0254 59.0303ZM27.0112 57.8589C27.5665 57.8589 28.0436 57.966 28.4423 58.1803C28.841 58.3946 29.1543 58.7017 29.3679 59.1017C29.5886 59.5089 29.6954 60.0017 29.6954 60.5875V61.3803H25.8293C25.8435 61.8446 25.9788 62.2089 26.2351 62.466C26.4986 62.7375 26.8545 62.866 27.3173 62.866C27.7089 62.866 28.0578 62.8303 28.3711 62.7446C28.6844 62.666 29.0119 62.5518 29.3465 62.3875V63.6589C29.0546 63.8017 28.7413 63.916 28.4138 63.9875C28.0863 64.0517 27.6947 64.0875 27.2319 64.0875C26.6338 64.0875 26.0998 63.9732 25.6442 63.7517C25.1814 63.5303 24.8182 63.1946 24.5619 62.7375C24.2914 62.2803 24.1632 61.7089 24.1632 61.016C24.1632 60.3232 24.2842 59.7232 24.5192 59.2589C24.7613 58.7946 25.0888 58.4446 25.516 58.2017C25.9361 57.966 26.4345 57.8517 26.9969 57.8517L27.0112 57.8589Z" fill="#EDD899"/>
<path fill-rule="evenodd" clip-rule="evenodd" d="M33.7746 62.7874C33.9597 62.7874 34.1306 62.7731 34.3015 62.7303C34.4723 62.6946 34.6361 62.6446 34.807 62.6017V63.8231C34.629 63.8946 34.4083 63.9589 34.1519 64.016C33.8885 64.0732 33.6108 64.1017 33.3047 64.1017C32.9487 64.1017 32.6283 64.0446 32.3435 63.9231C32.0658 63.8089 31.838 63.6017 31.6742 63.3089C31.5104 63.0231 31.425 62.616 31.425 62.1017V59.2017H30.6489V58.5089L31.5532 57.9589L32.0231 56.6946H33.0697V57.9732H34.75V59.2089H33.0697V62.1089C33.0697 62.3374 33.1338 62.5089 33.2691 62.6231C33.3972 62.7374 33.5752 62.7946 33.7817 62.7946L33.7746 62.7874Z" fill="#EDD899"/>
<path fill-rule="evenodd" clip-rule="evenodd" d="M38.9223 61.2231C38.3954 61.2374 38.0252 61.3374 37.8258 61.5089C37.6194 61.6874 37.5197 61.916 37.5197 62.2017C37.5197 62.4517 37.5909 62.6303 37.7404 62.7374C37.8828 62.8446 38.075 62.9017 38.31 62.9017C38.6589 62.9017 38.9579 62.7946 39.2 62.5874C39.4421 62.3803 39.5631 62.0803 39.5631 61.7017V61.2017L38.9223 61.2231ZM38.6945 57.8517C39.499 57.8517 40.1184 58.0231 40.5456 58.3731C40.9728 58.7231 41.1864 59.2589 41.1864 59.9731V63.9803H40.0473L39.7269 63.166H39.6841C39.5133 63.3803 39.3424 63.5589 39.1573 63.6946C38.9793 63.8374 38.7728 63.9374 38.5449 63.9946C38.31 64.0589 38.0252 64.0874 37.6905 64.0874C37.3346 64.0874 37.0213 64.016 36.7436 63.8874C36.4588 63.7517 36.2381 63.5374 36.0814 63.2589C35.9248 62.9731 35.8394 62.616 35.8394 62.1874C35.8394 61.5446 36.0601 61.0803 36.5086 60.766C36.9572 60.466 37.6265 60.2946 38.5165 60.266L39.5631 60.2303V59.966C39.5631 59.6517 39.4777 59.4231 39.321 59.2731C39.1573 59.1231 38.9294 59.0517 38.6304 59.0517C38.3313 59.0517 38.0537 59.0946 37.776 59.1803C37.4983 59.266 37.2206 59.366 36.943 59.4946L36.4018 58.3803C36.7222 58.2089 37.0782 58.0803 37.4769 57.9803C37.8685 57.8803 38.2744 57.8374 38.7016 57.8374L38.6945 57.8517Z" fill="#EDD899"/>
<path fill-rule="evenodd" clip-rule="evenodd" d="M46.4342 57.8589C46.5197 57.8589 46.6051 57.8589 46.719 57.866C46.8329 57.8732 46.9184 57.8803 46.9825 57.9017L46.8614 59.4446C46.8045 59.4303 46.7333 59.416 46.6336 59.4017C46.5339 59.3946 46.4485 59.3875 46.3702 59.3875C46.1566 59.3875 45.9572 59.4089 45.7578 59.466C45.5585 59.5232 45.3805 59.6089 45.2238 59.7303C45.0672 59.8517 44.9462 60.0018 44.8465 60.1946C44.7539 60.3875 44.7112 60.6303 44.7112 60.916V63.9803H43.0736V57.966H44.3125L44.5546 58.9803H44.6329C44.7468 58.7732 44.8963 58.5875 45.0672 58.416C45.2452 58.2517 45.4517 58.116 45.6795 58.0089C45.9145 57.9017 46.1565 57.8517 46.42 57.8517L46.4342 57.8589Z" fill="#EDD899"/>
<path fill-rule="evenodd" clip-rule="evenodd" d="M51.4325 55.6589C51.3328 55.7589 51.1904 55.8875 51.0267 56.0375C50.8558 56.1803 50.6778 56.3375 50.4855 56.5018C50.2933 56.666 50.1011 56.816 49.916 56.9589C49.7308 57.1018 49.5671 57.2232 49.4247 57.316H48.3353V57.1732C48.4564 57.0375 48.5916 56.8732 48.7483 56.6803C48.9049 56.4946 49.0616 56.2946 49.2111 56.0946C49.3677 55.8946 49.4888 55.7089 49.5956 55.5518H51.4325V55.666V55.6589ZM49.9302 63.9875H48.2926V57.9732H49.9302V63.9875Z" fill="#EDD899"/>
<path fill-rule="evenodd" clip-rule="evenodd" d="M54.5508 61.2231C54.024 61.2374 53.6537 61.3374 53.4544 61.5089C53.2479 61.6874 53.1482 61.916 53.1482 62.2017C53.1482 62.4517 53.2194 62.6303 53.3689 62.7374C53.5185 62.8446 53.7036 62.9017 53.9385 62.9017C54.2874 62.9017 54.5864 62.7946 54.8285 62.5874C55.0706 62.3803 55.1916 62.0803 55.1916 61.7017V61.2017L54.5508 61.2231ZM54.323 57.8517C55.1276 57.8517 55.747 58.0231 56.1671 58.3731C56.5943 58.7231 56.815 59.2589 56.815 59.9731V63.9803H55.6687L55.3483 63.166H55.3056C55.1347 63.3803 54.9638 63.5589 54.7858 63.6946C54.6078 63.8374 54.4013 63.9374 54.1735 63.9946C53.9385 64.0589 53.6608 64.0874 53.3191 64.0874C52.9631 64.0874 52.6498 64.016 52.3721 63.8874C52.0873 63.7517 51.8666 63.5374 51.71 63.2589C51.5533 62.9731 51.4679 62.616 51.4679 62.1874C51.4679 61.5446 51.6886 61.0803 52.1372 60.766C52.5857 60.466 53.255 60.2946 54.145 60.266L55.1916 60.2303V59.966C55.1916 59.6517 55.1062 59.4231 54.9496 59.2731C54.7858 59.1231 54.5508 59.0517 54.2589 59.0517C53.967 59.0517 53.6822 59.0946 53.4045 59.1803C53.1268 59.266 52.8492 59.366 52.5715 59.4946L52.0304 58.3803C52.3508 58.2089 52.7068 58.0803 53.0984 57.9803C53.49 57.8803 53.8958 57.8374 54.323 57.8374V57.8517Z" fill="#EDD899"/>
<path fill-rule="evenodd" clip-rule="evenodd" d="M64.2549 62.7875C64.7106 62.7875 65.031 62.6517 65.209 62.3803C65.3941 62.116 65.4866 61.7089 65.4938 61.1803V61.0017C65.4938 60.416 65.4012 59.9732 65.2232 59.6589C65.0452 59.3517 64.7106 59.1946 64.2335 59.1946C63.8704 59.1946 63.5927 59.3517 63.3862 59.666C63.1869 59.9732 63.0801 60.4232 63.0801 61.016C63.0801 61.6089 63.1869 62.0446 63.3862 62.3446C63.5927 62.6446 63.8846 62.7946 64.2549 62.7946V62.7875ZM63.6853 64.0946C63.0231 64.0946 62.4749 63.8303 62.0548 63.3017C61.6347 62.7732 61.4211 62.0017 61.4211 60.9875C61.4211 59.9732 61.6347 59.1803 62.0548 58.6517C62.482 58.1232 63.0374 57.8589 63.728 57.8589C64.0128 57.8589 64.262 57.9017 64.4827 57.9803C64.7034 58.0589 64.8886 58.1589 65.0523 58.2946C65.209 58.4232 65.3442 58.5732 65.451 58.7446H65.508C65.4866 58.6232 65.4581 58.4589 65.4297 58.2303C65.4012 58.0017 65.387 57.7803 65.387 57.5446V55.616H67.0245V63.9946H65.7714L65.4582 63.2089H65.387C65.2873 63.366 65.152 63.516 65.0025 63.6589C64.8458 63.7946 64.6607 63.9017 64.4471 63.9803C64.2335 64.0589 63.9843 64.1017 63.6853 64.1017V64.0946Z" fill="#EDD899"/>
<path fill-rule="evenodd" clip-rule="evenodd" d="M71.439 59.0303C71.1257 59.0303 70.8623 59.1303 70.6558 59.3375C70.4422 59.5446 70.3212 59.866 70.2856 60.2946H72.5853C72.5853 60.0517 72.5426 59.8375 72.4572 59.6446C72.3717 59.4589 72.2436 59.3017 72.0798 59.1946C71.9089 59.0875 71.6953 59.0303 71.439 59.0303ZM71.4319 57.8589C71.9872 57.8589 72.4643 57.966 72.863 58.1803C73.2617 58.3946 73.575 58.7017 73.7957 59.1017C74.0164 59.5089 74.1232 60.0017 74.1232 60.5875V61.3803H70.2571C70.2713 61.8446 70.4066 62.2089 70.67 62.466C70.9335 62.7375 71.2895 62.866 71.7523 62.866C72.1439 62.866 72.4928 62.8303 72.806 62.7446C73.1193 62.666 73.4468 62.5518 73.7815 62.3875V63.6589C73.4896 63.8017 73.1834 63.916 72.8559 63.9875C72.5284 64.0517 72.1368 64.0875 71.674 64.0875C71.0759 64.0875 70.5419 63.9732 70.0791 63.7517C69.6163 63.5303 69.2532 63.1946 68.9969 62.7375C68.7263 62.2803 68.5981 61.7089 68.5981 61.016C68.5981 60.3232 68.7192 59.7232 68.9613 59.2589C69.1962 58.7946 69.5309 58.4446 69.9509 58.2017C70.371 57.966 70.8694 57.8517 71.4319 57.8517V57.8589Z" fill="#EDD899"/>
<path fill-rule="evenodd" clip-rule="evenodd" d="M82.1336 58.8875C82.098 58.7589 82.0482 58.6017 81.9912 58.416C81.9343 58.2232 81.8702 58.0303 81.8132 57.8303C81.7563 57.6303 81.7064 57.4589 81.6708 57.3089C81.6352 57.4517 81.5854 57.6375 81.5213 57.8517C81.4572 58.066 81.4003 58.2732 81.3433 58.466C81.2935 58.6589 81.2436 58.7946 81.2152 58.8803L80.6527 60.7089H82.6961L82.1265 58.8803L82.1336 58.8875ZM83.6715 63.9875L83.1019 62.116H80.2469L79.6773 63.9875H77.8901L80.6527 56.0875H82.6819L85.4587 63.9875H83.6644H83.6715Z" fill="#EDD899"/>
<path fill-rule="evenodd" clip-rule="evenodd" d="M88.9972 59.1946C88.7409 59.1946 88.5273 59.2589 88.3564 59.4017C88.1856 59.5375 88.0574 59.7375 87.972 60.0089C87.8865 60.2732 87.8438 60.6089 87.8438 61.016C87.8438 61.616 87.9435 62.0732 88.1286 62.366C88.3208 62.6589 88.6199 62.8089 89.0186 62.8089C89.2322 62.8089 89.4102 62.7875 89.5668 62.7303C89.7164 62.6732 89.8445 62.5803 89.9442 62.4517C90.0439 62.3232 90.1151 62.1589 90.172 61.9517C90.2219 61.7446 90.2503 61.4946 90.2503 61.2017V61.0017C90.2503 60.566 90.2076 60.216 90.1222 59.9517C90.0368 59.6875 89.8944 59.4946 89.7164 59.3732C89.5312 59.2517 89.2963 59.1946 89.0044 59.1946H88.9972ZM88.4846 57.866C88.8477 57.866 89.1752 57.9375 89.4743 58.0875C89.7662 58.2375 90.0154 58.4589 90.2219 58.7446H90.2646L90.3999 57.9803H91.7811V64.0017C91.7811 64.5732 91.6672 65.0517 91.4465 65.4446C91.2258 65.8375 90.8911 66.1303 90.4426 66.3303C89.994 66.5303 89.4458 66.6303 88.7836 66.6303C88.3636 66.6303 87.972 66.6089 87.6017 66.5517C87.2386 66.5017 86.8897 66.4089 86.5409 66.2803V64.9732C86.904 65.1232 87.2884 65.2446 87.68 65.316C88.0716 65.3946 88.4704 65.4303 88.8833 65.4303C89.2963 65.4303 89.6238 65.316 89.8303 65.0875C90.0368 64.8589 90.1436 64.516 90.1436 64.066V63.9446C90.1436 63.816 90.1436 63.6875 90.1578 63.5589C90.1649 63.4303 90.1792 63.3089 90.1863 63.2089H90.1436C89.9371 63.5232 89.6879 63.7517 89.4031 63.8875C89.1183 64.0232 88.7979 64.0946 88.4419 64.0946C87.7299 64.0946 87.1745 63.816 86.7758 63.2732C86.3771 62.7303 86.1777 61.9589 86.1777 60.9875C86.1777 60.016 86.3842 59.2375 86.7972 58.6875C87.2101 58.1375 87.7726 57.8589 88.4917 57.8589L88.4846 57.866Z" fill="#EDD899"/>
<path fill-rule="evenodd" clip-rule="evenodd" d="M97.0577 57.8589C97.1432 57.8589 97.2286 57.8589 97.3425 57.866C97.4564 57.8732 97.5419 57.8803 97.606 57.9017L97.4849 59.4446C97.4351 59.4303 97.3568 59.416 97.2571 59.4017C97.1574 59.3946 97.072 59.3875 97.0008 59.3875C96.7872 59.3875 96.5878 59.4089 96.3884 59.466C96.1891 59.5232 96.0111 59.6089 95.8545 59.7303C95.6978 59.8517 95.5768 60.0018 95.4771 60.1946C95.3845 60.3875 95.3418 60.6303 95.3418 60.916V63.9803H93.7042V57.966H94.9431L95.1852 58.9803H95.2635C95.3774 58.7732 95.5269 58.5875 95.6978 58.416C95.8758 58.2517 96.0823 58.116 96.3101 58.0089C96.5451 57.9017 96.7872 57.8517 97.0506 57.8517L97.0577 57.8589Z" fill="#EDD899"/>
<path fill-rule="evenodd" clip-rule="evenodd" d="M100.553 63.9875H98.9156V57.9732H100.553V63.9875ZM99.7344 55.616C99.9764 55.616 100.183 55.6732 100.361 55.7875C100.532 55.9017 100.624 56.1089 100.624 56.4232C100.624 56.7375 100.532 56.9375 100.361 57.0517C100.183 57.1732 99.9764 57.2303 99.7344 57.2303C99.4923 57.2303 99.2787 57.1732 99.1007 57.0517C98.9298 56.9375 98.8444 56.7232 98.8444 56.4232C98.8444 56.1232 98.9298 55.9017 99.1007 55.7875C99.2716 55.6732 99.4852 55.616 99.7344 55.616Z" fill="#EDD899"/>
<path fill-rule="evenodd" clip-rule="evenodd" d="M104.925 64.0946C104.334 64.0946 103.829 63.9875 103.409 63.7732C102.996 63.5517 102.675 63.2232 102.455 62.766C102.234 62.3089 102.127 61.7303 102.127 61.016C102.127 60.3017 102.255 59.6875 102.504 59.2232C102.754 58.7589 103.095 58.416 103.544 58.1946C103.985 57.9732 104.498 57.866 105.075 57.866C105.488 57.866 105.844 57.9017 106.15 57.9875C106.456 58.066 106.719 58.1589 106.947 58.2732L106.463 59.5375C106.207 59.4375 105.965 59.3517 105.744 59.2875C105.516 59.2232 105.295 59.1875 105.075 59.1875C104.79 59.1875 104.555 59.2589 104.363 59.3875C104.178 59.5303 104.028 59.7303 103.943 59.9946C103.85 60.266 103.807 60.6017 103.807 61.0089C103.807 61.416 103.857 61.7303 103.957 61.9946C104.057 62.2589 104.199 62.4517 104.391 62.5803C104.583 62.7089 104.811 62.7732 105.082 62.7732C105.424 62.7732 105.73 62.7232 105.993 62.6375C106.257 62.5446 106.513 62.416 106.762 62.2589V63.6589C106.513 63.8232 106.25 63.9375 105.979 64.0089C105.708 64.0803 105.36 64.116 104.939 64.116L104.925 64.0946Z" fill="#EDD899"/>
<path fill-rule="evenodd" clip-rule="evenodd" d="M113.846 57.9731V63.9874H112.593L112.372 63.216H112.287C112.158 63.4231 112.002 63.5874 111.809 63.716C111.617 63.8446 111.404 63.9446 111.169 64.0017C110.934 64.0589 110.692 64.0946 110.442 64.0946C110.015 64.0946 109.645 64.016 109.325 63.8589C109.004 63.7089 108.755 63.466 108.577 63.1446C108.399 62.8231 108.314 62.4017 108.314 61.8874V57.966H109.951V61.4803C109.951 61.9017 110.03 62.2303 110.179 62.4517C110.336 62.6731 110.578 62.7803 110.92 62.7803C111.261 62.7803 111.518 62.7017 111.703 62.5446C111.888 62.3946 112.023 62.166 112.101 61.8731C112.18 61.5803 112.215 61.2231 112.215 60.7946V57.966H113.853L113.846 57.9731Z" fill="#EDD899"/>
<path d="M117.42 55.616H115.783V63.9875H117.42V55.616Z" fill="#EDD899"/>
<path fill-rule="evenodd" clip-rule="evenodd" d="M121.877 62.7874C122.062 62.7874 122.233 62.7731 122.404 62.7303C122.568 62.6946 122.739 62.6446 122.91 62.6017V63.8231C122.732 63.8946 122.518 63.9589 122.255 64.016C121.991 64.0732 121.713 64.1017 121.407 64.1017C121.044 64.1017 120.731 64.0446 120.446 63.9231C120.168 63.8089 119.941 63.6017 119.777 63.3089C119.613 63.0231 119.528 62.616 119.528 62.1017V59.2017H118.752V58.5089L119.656 57.9589L120.126 56.6946H121.172V57.9732H122.853V59.2089H121.172V62.1089C121.172 62.3374 121.236 62.5089 121.372 62.6231C121.507 62.7374 121.678 62.7946 121.891 62.7946L121.877 62.7874Z" fill="#EDD899"/>
<path fill-rule="evenodd" clip-rule="evenodd" d="M129.837 57.9731V63.9874H128.584L128.363 63.216H128.278C128.15 63.4231 127.993 63.5874 127.801 63.716C127.608 63.8446 127.395 63.9446 127.16 64.0017C126.925 64.0589 126.683 64.0946 126.434 64.0946C126.006 64.0946 125.636 64.016 125.316 63.8589C124.995 63.7089 124.746 63.466 124.568 63.1446C124.39 62.8231 124.305 62.4017 124.305 61.8874V57.966H125.942V61.4803C125.942 61.9017 126.021 62.2303 126.17 62.4517C126.327 62.6731 126.576 62.7803 126.911 62.7803C127.245 62.7803 127.509 62.7017 127.694 62.5446C127.879 62.3946 128.014 62.166 128.093 61.8731C128.164 61.5803 128.207 61.2231 128.207 60.7946V57.966H129.844L129.837 57.9731Z" fill="#EDD899"/>
<path fill-rule="evenodd" clip-rule="evenodd" d="M135.12 57.8589C135.206 57.8589 135.291 57.8589 135.405 57.866C135.519 57.866 135.605 57.8803 135.669 57.9017L135.555 59.4446C135.505 59.4303 135.427 59.416 135.327 59.4017C135.227 59.3946 135.142 59.3875 135.071 59.3875C134.857 59.3875 134.651 59.4089 134.458 59.466C134.259 59.5232 134.081 59.6089 133.924 59.7303C133.768 59.8517 133.647 60.0018 133.547 60.1946C133.454 60.3875 133.412 60.6303 133.412 60.916V63.9803H131.774V57.966H133.013L133.255 58.9803H133.333C133.447 58.7732 133.59 58.5875 133.768 58.416C133.946 58.2517 134.152 58.116 134.38 58.0089C134.615 57.9017 134.857 57.8517 135.12 57.8517V57.8589Z" fill="#EDD899"/>
<path fill-rule="evenodd" clip-rule="evenodd" d="M139.449 61.2231C138.922 61.2374 138.552 61.3374 138.353 61.5089C138.146 61.6874 138.047 61.916 138.047 62.2017C138.047 62.4517 138.118 62.6303 138.267 62.7374C138.41 62.8446 138.602 62.9017 138.837 62.9017C139.186 62.9017 139.485 62.7946 139.727 62.5874C139.969 62.3803 140.09 62.0803 140.09 61.7017V61.2017L139.449 61.2231ZM139.221 57.8517C140.026 57.8517 140.645 58.0231 141.073 58.3731C141.5 58.7231 141.713 59.2589 141.713 59.9731V63.9803H140.567L140.247 63.166H140.204C140.033 63.3803 139.862 63.5589 139.677 63.6946C139.499 63.8374 139.293 63.9374 139.065 63.9946C138.83 64.0589 138.545 64.0874 138.21 64.0874C137.854 64.0874 137.548 64.016 137.263 63.8874C136.986 63.7517 136.758 63.5374 136.594 63.2589C136.437 62.9731 136.352 62.616 136.352 62.1874C136.352 61.5446 136.573 61.0803 137.021 60.766C137.47 60.466 138.139 60.2946 139.029 60.266L140.076 60.2303V59.966C140.076 59.6517 139.99 59.4231 139.827 59.2731C139.663 59.1231 139.435 59.0517 139.136 59.0517C138.837 59.0517 138.559 59.0946 138.282 59.1803C138.004 59.266 137.726 59.366 137.449 59.4946L136.907 58.3803C137.228 58.2089 137.584 58.0803 137.975 57.9803C138.367 57.8803 138.773 57.8374 139.2 57.8374L139.221 57.8517Z" fill="#EDD899"/>
<path fill-rule="evenodd" clip-rule="evenodd" d="M145.829 57.9731H147.616L148.748 61.3589C148.784 61.4731 148.819 61.5803 148.841 61.6874C148.869 61.8017 148.89 61.916 148.912 62.0303C148.926 62.1517 148.94 62.2731 148.947 62.4089H148.976C148.997 62.216 149.033 62.0303 149.076 61.866C149.111 61.6946 149.161 61.5231 149.211 61.366L150.322 57.9803H152.08L149.545 64.766C149.389 65.1731 149.189 65.5231 148.947 65.8017C148.705 66.0803 148.421 66.2874 148.093 66.4303C147.773 66.566 147.417 66.6446 147.039 66.6446C146.861 66.6446 146.697 66.6374 146.562 66.616C146.434 66.5946 146.313 66.5731 146.206 66.5517V65.2517C146.285 65.266 146.384 65.2803 146.498 65.2946C146.612 65.3089 146.733 65.316 146.854 65.316C147.082 65.316 147.274 65.266 147.438 65.1731C147.602 65.0803 147.744 64.9446 147.851 64.7803C147.965 64.616 148.05 64.4303 148.114 64.2446L148.214 63.9446L145.829 57.9731Z" fill="#EDD899"/>
<path fill-rule="evenodd" clip-rule="evenodd" d="M161.137 60.0232C161.137 59.4446 161.052 58.966 160.881 58.5875C160.717 58.2089 160.461 57.9375 160.126 57.7589C159.792 57.5803 159.386 57.4875 158.902 57.4875H158.012V62.6089H158.724C159.535 62.6089 160.14 62.3946 160.532 61.9589C160.931 61.5303 161.13 60.8803 161.13 60.0232H161.137ZM162.86 59.9732C162.86 60.8589 162.689 61.5946 162.355 62.1875C162.02 62.7803 161.536 63.2303 160.888 63.5303C160.247 63.8303 159.478 63.9803 158.581 63.9803H156.36V56.1089H158.823C159.642 56.1089 160.354 56.2589 160.959 56.5517C161.564 56.8446 162.027 57.2803 162.362 57.8446C162.697 58.4089 162.867 59.116 162.867 59.966L162.86 59.9732Z" fill="#EDD899"/>
<path fill-rule="evenodd" clip-rule="evenodd" d="M167.053 59.0303C166.74 59.0303 166.476 59.1303 166.27 59.3375C166.056 59.5446 165.935 59.866 165.899 60.2946H168.199C168.199 60.0517 168.156 59.8375 168.071 59.6446C167.986 59.4589 167.857 59.3017 167.694 59.1946C167.523 59.0875 167.309 59.0303 167.053 59.0303ZM167.039 57.8589C167.594 57.8589 168.071 57.966 168.47 58.1803C168.876 58.3946 169.182 58.7017 169.402 59.1017C169.623 59.5089 169.73 60.0017 169.73 60.5875V61.3803H165.864C165.878 61.8446 166.013 62.2089 166.277 62.466C166.54 62.7375 166.896 62.866 167.359 62.866C167.744 62.866 168.1 62.8303 168.413 62.7446C168.726 62.666 169.054 62.5518 169.388 62.3875V63.6589C169.096 63.8017 168.79 63.916 168.463 63.9875C168.135 64.0517 167.744 64.0875 167.281 64.0875C166.683 64.0875 166.149 63.9732 165.693 63.7517C165.23 63.5303 164.867 63.1946 164.611 62.7375C164.347 62.2803 164.212 61.7089 164.212 61.016C164.212 60.3232 164.333 59.7232 164.575 59.2589C164.81 58.7946 165.145 58.4446 165.565 58.2017C165.985 57.966 166.483 57.8517 167.046 57.8517L167.039 57.8589Z" fill="#EDD899"/>
<path fill-rule="evenodd" clip-rule="evenodd" d="M175.462 62.2018C175.462 62.6018 175.362 62.9518 175.177 63.2303C174.984 63.5161 174.7 63.7303 174.315 63.8803C173.938 64.0303 173.468 64.1018 172.898 64.1018C172.478 64.1018 172.122 64.0732 171.823 64.0161C171.524 63.9589 171.225 63.8732 170.926 63.7446V62.3946C171.247 62.5446 171.595 62.6661 171.966 62.7589C172.336 62.8589 172.663 62.9018 172.955 62.9018C173.276 62.9018 173.504 62.8589 173.639 62.7589C173.774 62.6661 173.845 62.5375 173.845 62.3803C173.845 62.2803 173.824 62.1875 173.767 62.1089C173.71 62.0303 173.589 61.9375 173.404 61.8375C173.226 61.7375 172.941 61.6018 172.549 61.4446C172.172 61.2875 171.866 61.1232 171.624 60.9661C171.382 60.8089 171.204 60.6161 171.09 60.3946C170.969 60.1732 170.912 59.8875 170.912 59.5518C170.912 58.9946 171.125 58.5732 171.56 58.2946C171.994 58.0161 172.571 57.8732 173.283 57.8732C173.653 57.8732 174.009 57.9089 174.344 57.9875C174.678 58.0589 175.027 58.1875 175.39 58.3518L174.899 59.5232C174.607 59.4018 174.329 59.2946 174.066 59.2089C173.803 59.1232 173.532 59.0803 173.269 59.0803C173.026 59.0803 172.841 59.1161 172.727 59.1803C172.599 59.2446 172.542 59.3446 172.542 59.4803C172.542 59.5732 172.571 59.6589 172.635 59.7375C172.699 59.8161 172.82 59.8946 172.998 59.9803C173.176 60.0661 173.439 60.1875 173.788 60.3303C174.13 60.4661 174.429 60.6161 174.685 60.7661C174.928 60.9232 175.12 61.1089 175.255 61.3303C175.39 61.5589 175.462 61.8518 175.462 62.2089V62.2018Z" fill="#EDD899"/>
<path fill-rule="evenodd" clip-rule="evenodd" d="M179.649 61.2231C179.122 61.2374 178.752 61.3374 178.552 61.5089C178.346 61.6874 178.246 61.916 178.246 62.2017C178.246 62.4517 178.317 62.6303 178.467 62.7374C178.609 62.8446 178.801 62.9017 179.036 62.9017C179.385 62.9017 179.684 62.7946 179.926 62.5874C180.168 62.3803 180.289 62.0803 180.289 61.7017V61.2017L179.649 61.2231ZM179.421 57.8517C180.225 57.8517 180.845 58.0231 181.272 58.3731C181.699 58.7231 181.913 59.2589 181.913 59.9731V63.9803H180.774L180.453 63.166H180.41C180.24 63.3803 180.069 63.5589 179.884 63.6946C179.706 63.8374 179.499 63.9374 179.271 63.9946C179.036 64.0589 178.752 64.0874 178.417 64.0874C178.061 64.0874 177.755 64.016 177.47 63.8874C177.185 63.7517 176.964 63.5374 176.801 63.2589C176.644 62.9731 176.559 62.616 176.559 62.1874C176.559 61.5446 176.779 61.0803 177.228 60.766C177.676 60.466 178.346 60.2946 179.236 60.266L180.282 60.2303V59.966C180.282 59.6517 180.197 59.4231 180.033 59.2731C179.869 59.1231 179.642 59.0517 179.342 59.0517C179.043 59.0517 178.766 59.0946 178.488 59.1803C178.21 59.266 177.933 59.366 177.655 59.4946L177.114 58.3803C177.434 58.2089 177.79 58.0803 178.182 57.9803C178.574 57.8803 178.979 57.8374 179.407 57.8374L179.421 57.8517Z" fill="#EDD899"/>
<path fill-rule="evenodd" clip-rule="evenodd" d="M187.16 57.8589C187.246 57.8589 187.331 57.8589 187.445 57.866C187.552 57.866 187.644 57.8803 187.709 57.9017L187.587 59.4446C187.538 59.4303 187.459 59.416 187.36 59.4017C187.26 59.3946 187.175 59.3875 187.103 59.3875C186.89 59.3875 186.69 59.4089 186.491 59.466C186.292 59.5232 186.114 59.6089 185.957 59.7303C185.8 59.8517 185.679 60.0018 185.58 60.1946C185.487 60.3875 185.444 60.6303 185.444 60.916V63.9803H183.807V57.966H185.046L185.288 58.9803H185.366C185.48 58.7732 185.629 58.5875 185.8 58.416C185.978 58.2517 186.185 58.116 186.413 58.0089C186.648 57.9017 186.89 57.8517 187.153 57.8517L187.16 57.8589Z" fill="#EDD899"/>
<path fill-rule="evenodd" clip-rule="evenodd" d="M192.365 57.8589C192.443 57.8589 192.536 57.8589 192.65 57.866C192.763 57.866 192.849 57.8803 192.913 57.9017L192.792 59.4446C192.735 59.4303 192.664 59.416 192.564 59.4017C192.464 59.3946 192.379 59.3875 192.301 59.3875C192.087 59.3875 191.888 59.4089 191.688 59.466C191.489 59.5232 191.311 59.6089 191.154 59.7303C190.998 59.8517 190.877 60.0018 190.777 60.1946C190.684 60.3875 190.642 60.6303 190.642 60.916V63.9803H189.004V57.966H190.243L190.485 58.9803H190.563C190.677 58.7732 190.827 58.5875 190.998 58.416C191.176 58.2517 191.382 58.116 191.61 58.0089C191.845 57.9017 192.087 57.8517 192.351 57.8517L192.365 57.8589Z" fill="#EDD899"/>
<path fill-rule="evenodd" clip-rule="evenodd" d="M195.306 60.966C195.306 61.3589 195.348 61.6946 195.434 61.966C195.519 62.2375 195.654 62.4375 195.832 62.5732C196.018 62.7089 196.252 62.7803 196.544 62.7803C196.836 62.7803 197.071 62.7089 197.249 62.5732C197.427 62.4375 197.563 62.2375 197.648 61.966C197.733 61.6946 197.776 61.366 197.776 60.966C197.776 60.566 197.733 60.2375 197.648 59.9732C197.563 59.7089 197.434 59.5089 197.249 59.3732C197.064 59.2446 196.829 59.1803 196.537 59.1803C196.103 59.1803 195.79 59.3303 195.597 59.6232C195.405 59.9232 195.306 60.366 195.306 60.966ZM199.449 60.966C199.449 61.466 199.378 61.9089 199.243 62.2946C199.108 62.6875 198.915 63.016 198.659 63.2803C198.403 63.5446 198.097 63.7517 197.741 63.8875C197.385 64.016 196.979 64.0875 196.523 64.0875C196.103 64.0875 195.718 64.016 195.362 63.8875C195.006 63.7517 194.7 63.5446 194.444 63.2803C194.188 63.0089 193.988 62.6803 193.846 62.2946C193.704 61.9089 193.632 61.466 193.632 60.966C193.632 60.2946 193.753 59.7375 193.988 59.2732C194.223 58.816 194.558 58.466 194.999 58.2232C195.441 57.9803 195.961 57.8589 196.566 57.8589C197.128 57.8589 197.627 57.9875 198.054 58.2232C198.488 58.466 198.823 58.816 199.072 59.2732C199.321 59.7303 199.449 60.2946 199.449 60.966Z" fill="#EDD899"/>
<path d="M202.653 55.616H201.016V63.9875H202.653V55.616Z" fill="#EDD899"/>
<path d="M206.22 55.616H204.582V63.9875H206.22V55.616Z" fill="#EDD899"/>
<path fill-rule="evenodd" clip-rule="evenodd" d="M209.459 60.966C209.459 61.3589 209.502 61.6946 209.587 61.966C209.673 62.2375 209.808 62.4375 209.986 62.5732C210.171 62.7089 210.406 62.7803 210.698 62.7803C210.99 62.7803 211.225 62.7089 211.403 62.5732C211.581 62.4375 211.716 62.2375 211.802 61.966C211.887 61.6946 211.93 61.366 211.93 60.966C211.93 60.566 211.887 60.2375 211.802 59.9732C211.716 59.7089 211.588 59.5089 211.403 59.3732C211.218 59.2446 210.983 59.1803 210.691 59.1803C210.257 59.1803 209.943 59.3303 209.751 59.6232C209.559 59.9232 209.459 60.366 209.459 60.966ZM213.603 60.966C213.603 61.466 213.532 61.9089 213.397 62.2946C213.261 62.6875 213.069 63.016 212.813 63.2803C212.564 63.5446 212.25 63.7517 211.894 63.8875C211.531 64.016 211.132 64.0875 210.677 64.0875C210.264 64.0875 209.879 64.016 209.523 63.8875C209.167 63.7517 208.861 63.5446 208.605 63.2803C208.349 63.0089 208.149 62.6803 208.007 62.2946C207.864 61.9089 207.793 61.466 207.793 60.966C207.793 60.2946 207.914 59.7375 208.149 59.2732C208.384 58.816 208.719 58.466 209.16 58.2232C209.602 57.9803 210.121 57.8589 210.727 57.8589C211.289 57.8589 211.788 57.9875 212.215 58.2232C212.649 58.466 212.991 58.816 213.233 59.2732C213.489 59.7303 213.61 60.2946 213.61 60.966H213.603Z" fill="#EDD899"/>
<path fill-rule="evenodd" clip-rule="evenodd" d="M220.539 57.4874H220.033V59.6089H220.567C221.115 59.6089 221.514 59.516 221.749 59.3374C221.991 59.1517 222.105 58.8803 222.105 58.5231C222.105 58.2731 222.048 58.0731 221.934 57.9231C221.82 57.7731 221.649 57.6589 221.414 57.5946C221.179 57.5231 220.887 57.4946 220.531 57.4946L220.539 57.4874ZM220.66 56.1231C221.372 56.1231 221.955 56.2089 222.418 56.3803C222.881 56.5589 223.223 56.816 223.451 57.166C223.678 57.516 223.792 57.9517 223.792 58.4803C223.792 58.8374 223.721 59.1517 223.593 59.4231C223.458 59.6946 223.28 59.9231 223.052 60.1089C222.824 60.2946 222.589 60.4446 222.333 60.566L224.64 63.9946H222.796L220.93 60.9803H220.04V63.9946H218.381V56.1303H220.667L220.66 56.1231Z" fill="#EDD899"/>
<path fill-rule="evenodd" clip-rule="evenodd" d="M231.211 57.9731V63.9874H229.958L229.737 63.216H229.652C229.524 63.4231 229.367 63.5874 229.175 63.716C228.983 63.8446 228.769 63.9446 228.534 64.0017C228.299 64.0589 228.057 64.0946 227.808 64.0946C227.381 64.0946 227.01 64.016 226.69 63.8589C226.37 63.7089 226.12 63.466 225.942 63.1446C225.764 62.8231 225.679 62.4017 225.679 61.8874V57.966H227.317V61.4803C227.317 61.9017 227.395 62.2303 227.544 62.4517C227.701 62.6731 227.943 62.7803 228.285 62.7803C228.627 62.7803 228.883 62.7017 229.068 62.5446C229.253 62.3946 229.388 62.166 229.467 61.8731C229.538 61.5803 229.581 61.2231 229.581 60.7946V57.966H231.218L231.211 57.9731Z" fill="#EDD899"/>
<path fill-rule="evenodd" clip-rule="evenodd" d="M236.494 57.8589C236.58 57.8589 236.665 57.8589 236.779 57.866C236.893 57.8732 236.978 57.8803 237.042 57.9017L236.921 59.4446C236.871 59.4303 236.793 59.416 236.693 59.4017C236.594 59.3946 236.508 59.3875 236.437 59.3875C236.224 59.3875 236.024 59.4089 235.825 59.466C235.625 59.5232 235.447 59.6089 235.291 59.7303C235.134 59.8517 235.013 60.0018 234.913 60.1946C234.821 60.3875 234.778 60.6303 234.778 60.916V63.9803H233.141V57.966H234.379L234.622 58.9803H234.7C234.814 58.7732 234.956 58.5875 235.134 58.416C235.312 58.2517 235.519 58.116 235.747 58.0089C235.981 57.9017 236.224 57.8517 236.487 57.8517L236.494 57.8589Z" fill="#EDD899"/>
<path fill-rule="evenodd" clip-rule="evenodd" d="M240.823 61.2231C240.296 61.2374 239.926 61.3374 239.727 61.5089C239.52 61.6874 239.421 61.916 239.421 62.2017C239.421 62.4517 239.499 62.6303 239.641 62.7374C239.784 62.8446 239.976 62.9017 240.211 62.9017C240.56 62.9017 240.859 62.7946 241.101 62.5874C241.343 62.3803 241.464 62.0803 241.464 61.7017V61.2017L240.823 61.2231ZM240.595 57.8517C241.4 57.8517 242.019 58.0231 242.447 58.3731C242.874 58.7231 243.087 59.2589 243.087 59.9731V63.9803H241.941L241.621 63.166H241.578C241.407 63.3803 241.236 63.5589 241.051 63.6946C240.873 63.8374 240.667 63.9374 240.439 63.9946C240.204 64.0589 239.919 64.0874 239.584 64.0874C239.228 64.0874 238.915 64.016 238.637 63.8874C238.36 63.7517 238.139 63.5374 237.975 63.2589C237.819 62.9731 237.733 62.616 237.733 62.1874C237.733 61.5446 237.954 61.0803 238.402 60.766C238.851 60.466 239.52 60.2946 240.41 60.266L241.457 60.2303V59.966C241.457 59.6517 241.371 59.4231 241.215 59.2731C241.051 59.1231 240.823 59.0517 240.524 59.0517C240.225 59.0517 239.947 59.0946 239.67 59.1803C239.392 59.266 239.114 59.366 238.837 59.4946L238.296 58.3803C238.616 58.2089 238.972 58.0803 239.364 57.9803C239.755 57.8803 240.161 57.8374 240.588 57.8374L240.595 57.8517Z" fill="#EDD899"/>
<path d="M246.626 55.616H244.988V63.9875H246.626V55.616Z" fill="#EDD899"/>
</svg>
