<svg width="231" height="154" viewBox="0 0 231 154" fill="none" xmlns="http://www.w3.org/2000/svg">
<g clip-path="url(#clip0_26345_336)">
<path d="M226.218 13.1677C223.747 10.6506 220.53 9.41256 216.669 9.48993L170.948 9.01656C170.906 9.01201 170.87 9.00291 170.837 8.99836C170.75 8.82084 170.635 8.53864 170.547 8.32016C170.032 7.05936 169.254 5.14768 167.096 3.08578C162.632 -1.1791 158.522 -0.104911 156.474 0.910104C153.179 2.54869 151.016 6.11262 150.97 9.99061L150.777 25.6755C150.749 26.4493 150.676 32.2709 154.279 36.7542H154.031C152.765 36.7542 149.691 37.2913 148.471 42.248C147.993 44.2007 147.974 46.0669 147.974 46.2762V53.3176C147.974 53.3176 147.974 53.3313 147.974 53.3358H55.5606V47.3641C55.5606 44.8106 54.5251 43.2676 53.6553 42.4256C51.8789 40.7005 49.6101 40.6413 48.9566 40.6641H45.9193L20.5067 40.4684C19.7796 40.3091 18.3852 39.7355 17.971 36.1944V32.7806C17.971 27.8512 14.6299 23.6546 10.0279 22.808C8.38034 22.5031 6.78803 22.6715 5.28776 23.3041C2.07553 24.6514 0 27.9104 0 31.5972V65.252C0 68.3881 1.32539 71.333 3.64022 73.3266C5.3936 74.8378 7.33107 75.8482 9.34677 76.317V88.2696C9.34677 93.6132 13.4242 97.9601 18.4358 97.9601H25.9786C28.7812 97.9601 31.2847 96.5991 32.9553 94.469C35.0216 96.6264 37.8473 97.9601 40.9537 97.9601H43.7379C50.0611 97.9601 55.2062 92.4571 55.2062 85.6889V81.8154L163.322 81.7244V84.8513C163.322 90.2359 168.026 94.6146 173.81 94.6146H176.282C179.521 94.6146 182.425 93.24 184.349 91.0825C186.273 93.24 189.177 94.6146 192.416 94.6146H194.888C197.897 94.6146 200.608 93.4266 202.522 91.5331C204.437 93.4266 207.152 94.6146 210.157 94.6146H212.629C218.413 94.6146 223.117 90.2359 223.117 84.8513V80.8505C223.117 80.5865 223.089 80.3316 223.048 80.0812C224.364 79.4395 225.721 78.5382 226.936 77.2729C229.688 74.4099 231.051 70.4682 230.991 65.5615C230.802 50.3226 230.991 26.6769 230.991 26.4493C230.991 26.108 231.032 18.0652 226.205 13.154L226.218 13.1677ZM49.0211 46.4082H49.1867C49.1867 46.4082 49.6745 46.4538 49.8356 46.6085C49.8908 46.6631 49.9875 46.8862 49.9875 47.3686V59.08H50.0013V64.6239C50.0013 66.7222 47.7693 68.1833 45.7674 68.1833H38.5882C36.6553 68.1833 35.0814 66.4081 35.0814 64.2324V46.3263L45.9147 46.4082H49.0303H49.0211ZM7.22982 68.9388C6.18516 68.0376 5.58689 66.6994 5.58689 65.2611V31.6063C5.58689 30.2773 6.31862 29.0802 7.4047 28.625C7.92013 28.4111 8.45857 28.3565 9.05224 28.4657C10.9575 28.8162 12.3979 30.6732 12.3979 32.7852V36.3628L12.4163 36.6768C13.1895 43.9458 17.3589 45.7437 19.775 46.1716L20.0005 46.2125L29.4946 46.2853V55.6845H21.3673C16.7837 55.6845 13.3874 57.0727 11.2842 59.8128C8.63345 63.2629 9.11206 67.5005 9.35137 68.8387V70.318C8.62885 69.9948 7.92013 69.5396 7.23443 68.9479L7.22982 68.9388ZM49.6331 81.8473V85.7025C49.6331 89.3028 46.9916 92.2341 43.7471 92.2341H40.9629C37.7368 92.2341 35.1137 89.3393 35.0768 85.7708V81.8518H49.6331V81.8473ZM181.201 84.865C181.201 87.0862 179.001 88.8932 176.295 88.8932H173.824C171.118 88.8932 168.918 87.0862 168.918 84.865V81.8473H181.206V84.865H181.201ZM194.897 88.8932H192.426C189.72 88.8932 187.52 87.0862 187.52 84.865V81.8473H199.683V84.865C199.683 85.1199 199.697 85.3702 199.72 85.6206C199.287 87.4776 197.295 88.8886 194.901 88.8886L194.897 88.8932ZM217.553 84.865C217.553 87.0862 215.353 88.8932 212.647 88.8932H210.176C207.787 88.8932 205.79 87.4822 205.357 85.6251C205.376 85.3748 205.394 85.1245 205.394 84.8696V81.8518H217.557V84.8696L217.553 84.865ZM221.313 74.5692C219.071 75.9028 216.688 75.9529 216.678 75.9529L36.0387 76.1077H34.6581V76.1213C31.8738 76.2579 29.6326 78.6156 29.4992 81.556H29.4853V88.2787C29.4853 90.459 27.9114 92.2296 25.9786 92.2296H18.4358C16.503 92.2296 14.9291 90.4544 14.9291 88.2787V68.206L14.8554 67.8783C14.8508 67.851 14.3032 65.1337 15.6608 63.3631C16.6548 62.0704 18.5739 61.4195 21.3627 61.4195H29.4899V64.2324C29.4899 69.5761 33.5674 73.9229 38.579 73.9229H45.7582C50.4983 73.9229 55.5744 70.186 55.5744 64.6239V59.08H148.099C151.108 59.08 153.552 56.4992 153.552 53.3222V46.2899C153.561 44.8607 153.911 43.1083 154.293 42.4984H165.665V53.7864C165.642 54.6057 165.619 60.7368 169.54 64.9471C171.937 67.5233 175.205 68.8296 179.255 68.8296C180.796 68.8296 182.043 67.546 182.043 65.9621C182.043 64.3781 180.792 63.0945 179.255 63.0945C176.765 63.0945 174.915 62.4118 173.594 61.0053C171.123 58.3745 171.242 53.9913 171.242 53.9594V41.0646H183.562C183.111 42.1798 182.863 43.4042 182.863 44.6923V48.8934C182.863 54.0595 186.876 58.2607 191.809 58.2607H209.734C214.667 58.2607 218.68 54.0595 218.68 48.8934V42.4347C218.68 39.7264 217.516 37.6008 215.399 36.4402C214.147 35.7529 212.716 35.4889 211.391 35.3887V35.3296H161.537C156.134 32.9491 156.341 26.1899 156.35 25.9122L156.543 10.0725C156.566 8.35203 157.487 6.79082 158.895 6.08986C159.852 5.61194 161.214 5.32064 163.29 7.3006C164.569 8.52044 164.97 9.50359 165.393 10.5459C166.019 12.0753 166.958 14.3875 170.492 14.7471L216.692 15.2341H216.738C219.076 15.184 220.889 15.8349 222.27 17.2323C225.413 20.4093 225.418 26.3446 225.418 26.4084C225.418 26.645 225.229 50.35 225.418 65.6526C225.473 69.9766 224.129 72.8942 221.308 74.5738L221.313 74.5692ZM213.103 42.4301V48.8889C213.103 50.8871 211.593 52.5165 209.739 52.5165H191.814C189.959 52.5165 188.449 50.8916 188.449 48.8889V44.6877C188.449 42.6896 189.959 41.0601 191.814 41.0601H209.739C213.103 41.0601 213.103 41.6654 213.103 42.4301Z" fill="#AD8049"/>
<path d="M34.6131 142.766C34.834 143.722 34.7373 144.878 34.6361 146.094L34.6269 146.207C34.5947 146.522 34.5717 146.817 34.544 147.118C34.4198 148.583 34.2817 150.249 33.3889 151.633C32.2292 153.481 30.0754 153.44 28.5061 153.417H28.1288C26.334 153.381 23.3887 153.34 21.2211 153.335C18.5105 153.322 16.007 153.34 13.0985 153.385C12.3898 153.354 11.8375 153.385 11.2991 153.417C10.9585 153.435 10.6272 153.454 10.2912 153.454C9.43524 153.454 8.57926 153.331 7.62664 152.78L7.42875 152.63C5.92848 151.155 7.13422 149.403 7.85674 148.36C8.13286 147.955 8.42279 147.537 8.51483 147.25C8.84158 146.43 8.85539 145.707 8.8784 144.61C8.8876 144.268 8.8922 143.891 8.91061 143.486C9.01186 136.776 9.02106 130.832 8.92442 125.839C8.883 124.992 8.74954 124.31 8.50103 123.713C8.34456 123.263 8.07764 122.839 7.78771 122.393C7.27228 121.588 6.68782 120.673 6.71543 119.585L6.75685 119.316L6.81668 119.143C7.68186 117.163 10.4661 117.259 12.4956 117.332C13.0939 117.355 13.6553 117.373 14.0327 117.336L14.3318 117.327C17.0977 117.25 19.6518 117.309 20.4341 118.857C20.8621 119.708 20.609 120.723 19.684 121.874L19.3435 122.311C18.8787 122.899 18.4415 123.454 18.1653 124.05C17.765 124.888 17.7235 125.807 17.7051 127.013C17.6499 130.554 17.6499 134.496 17.6545 138.31V142.147C17.6637 142.552 17.6591 142.994 17.6545 143.436C17.6361 144.983 17.6223 146.585 18.3862 146.977C19.8957 147.837 21.847 147.687 23.7338 147.537L23.8351 147.527C27.0151 147.282 28.6442 146.062 30.0524 142.871C30.1813 142.543 30.798 141.747 30.8026 141.742C31.6954 140.609 32.6526 140.705 33.0208 140.796C33.8307 140.996 34.4382 141.751 34.6131 142.766Z" fill="#621132"/>
<path d="M48.9941 148.642C49.7304 149.611 50.8441 151.077 49.8547 152.465L49.6568 152.67C48.5661 153.517 47.2637 153.676 46.0027 153.676C45.6162 153.676 45.2388 153.662 44.8706 153.649C44.2908 153.626 43.7431 153.608 43.2507 153.64L43.0022 153.649C40.2824 153.721 37.7743 153.658 36.9827 152.115C36.5455 151.264 36.7848 150.244 37.6914 149.079L37.7881 148.933C38.3219 148.178 38.8235 147.468 39.0122 146.712C39.1825 145.929 39.1641 144.659 39.1457 143.426C39.1365 142.761 39.1273 142.097 39.1457 141.482V134.14C39.1457 129.935 39.1457 125.788 39.1457 123.567C39.1457 122.675 38.5474 121.997 37.9676 121.341C37.3555 120.649 36.6606 119.862 36.9137 118.838C37.1484 117.864 38.147 117.117 40.3514 116.243C43.3151 115.014 45.4459 114.459 46.8587 115.506C48 116.348 48.3682 117.982 48.0507 120.8C47.9862 122.374 47.9494 124.341 47.9494 126.261V145.164C47.9494 146.052 47.954 146.753 48.2716 147.472L48.3176 147.609C48.3774 147.827 48.718 148.273 48.9895 148.633L48.9941 148.642Z" fill="#621132"/>
<path d="M76.8713 136.107C76.8713 137.104 76.8437 138.16 76.8069 139.211V151.51C76.8069 151.806 76.724 152.102 76.5676 152.384C76.2408 152.976 75.6149 153.349 74.9476 153.349H70.7229C69.6967 153.349 68.8637 152.525 68.8637 151.51V150.918C66.9171 152.429 64.2479 153.34 61.6661 153.34C56.5348 153.34 53.0879 150.454 53.0879 146.153C53.0879 141.851 55.9412 138.97 61.1277 137.436C62.9777 136.913 64.9566 136.64 66.5443 136.421C67.3312 136.312 68.2977 136.18 68.652 136.075C68.6934 135.957 68.7855 135.602 68.7855 134.714C68.7855 133.358 68.5002 130.977 66.6225 130.181C65.9782 129.967 65.2925 129.871 64.6436 129.917C62.8396 130.049 61.5603 131.091 61.0955 132.78L61.0402 132.962C60.4236 134.987 59.8437 135.543 57.1975 135.324C56.4152 135.261 55.8491 134.997 55.4672 134.514C54.8413 133.731 54.8689 132.593 55.1312 130.905C55.3935 129.193 56.6407 127.627 58.638 126.499C60.442 125.479 62.651 124.947 64.6989 124.978C66.1623 124.965 67.5291 125.142 68.8269 125.516H68.8361C68.8361 125.516 68.8499 125.515 68.8545 125.52C68.8637 125.52 68.8729 125.525 68.8821 125.529C71.5421 126.171 73.6637 127.577 75.0351 129.594L75.325 129.944V130.085C76.3375 131.783 76.8667 133.795 76.8667 136.107H76.8713ZM63.9809 147.386C66.8664 147.386 68.8085 145.224 68.8085 142.011C68.8085 141.555 68.7947 141.255 68.7763 141.055C66.9999 141.087 65.6009 141.278 64.4089 141.651C62.4024 142.306 61.2473 143.567 61.2473 145.101C61.2473 147.218 63.3413 147.386 63.9855 147.386H63.9809Z" fill="#621132"/>
<path d="M106.035 126.57C107.176 126.811 107.958 127.813 107.852 128.896C107.77 129.774 107.263 130.339 106.775 130.885C106.559 131.131 106.306 131.408 106.053 131.763C105.588 132.378 105.137 133.184 104.801 133.994C103.743 136.497 101.791 141.777 100.627 144.936L100.139 146.251C99.9092 146.779 99.7159 147.28 99.5227 147.79C98.7311 149.856 97.8337 152.2 95.5925 153.343C94.6721 153.78 93.8575 153.998 93.1258 153.998C92.6748 153.998 92.2514 153.916 91.8556 153.748C90.7742 153.293 90.0056 152.287 89.435 150.575C89.0484 149.656 88.4087 148.099 87.6724 146.297C86.1537 142.583 84.2623 137.963 83.0059 135.091C82.3846 133.762 81.8738 132.733 81.1006 131.823C79.7707 130.557 79.177 129.406 79.3381 128.391C79.4163 127.899 79.7108 127.221 80.6727 126.77C81.5424 126.415 82.4168 126.447 83.19 126.479L83.3925 126.488C84.8099 126.575 86.1675 126.529 87.6126 126.488L88.671 126.456C89.5132 126.365 90.8478 126.566 91.5657 127.467C92.0259 128.045 92.1226 128.787 91.8418 129.551C91.6946 129.966 91.4645 130.343 91.262 130.68C91.0779 130.985 90.9076 131.272 90.8248 131.531C90.6545 132.078 90.7696 132.433 90.9767 133.07C91.0457 133.279 91.1147 133.498 91.1791 133.734C91.8649 135.737 92.6058 137.59 93.3927 139.556L94.0416 141.185C94.1659 141.427 94.3592 141.918 94.5801 142.492C94.7227 142.856 94.9436 143.42 95.1599 143.925C96.269 141.509 97.171 138.482 97.981 135.764C98.1743 135.118 98.3629 134.485 98.5516 133.875C98.9198 132.656 98.8646 131.868 98.3537 131.158C98.2341 130.971 98.119 130.83 98.0086 130.685C97.5392 130.084 96.8259 129.169 97.2354 127.999C97.8429 126.379 99.7574 126.443 100.577 126.474C101.511 126.556 102.348 126.534 103.237 126.506C104.056 126.484 104.902 126.461 105.777 126.525L106.035 126.57Z" fill="#621132"/>
<path d="M132.629 142.043C133.016 142.043 134.282 142.207 134.282 144.328C134.282 148.097 130.057 153.554 122.418 153.554C114.778 153.554 109.108 148.092 109.108 139.967C109.108 131.843 115.1 125.252 123.048 125.252C130.154 125.252 133.872 130.309 133.872 135.307C133.872 137.054 133.094 138.342 131.493 139.244C127.972 141.351 120.222 141.824 117.972 141.915C118.239 143.713 119.919 146.731 124.162 146.731C127.121 146.731 129.367 145.529 130.844 143.163L130.908 143.072C131.281 142.603 131.879 142.043 132.625 142.043H132.629ZM126.141 134.401C126.141 132.148 124.562 130.445 122.473 130.445C119.371 130.445 117.282 133.695 117.282 136.731C117.282 136.85 117.291 136.941 117.3 137C119.417 136.968 124.129 136.271 125.708 135.193C126.03 134.97 126.141 134.769 126.141 134.396V134.401Z" fill="#621132"/>
<path d="M186.203 149.621C186.493 150.6 186.203 151.25 185.904 151.624C185.232 152.47 183.957 152.621 182.881 152.621C182.54 152.621 182.218 152.607 181.942 152.593C180.455 152.534 179.305 152.516 177.86 152.58H177.542C176.3 152.602 174.422 152.643 173.58 151.555C173.308 151.2 173.037 150.595 173.299 149.703C173.474 149.116 173.75 148.729 174.045 148.324C174.192 148.119 174.362 147.882 174.56 147.568C175.292 146.385 175.407 144.951 175.375 143.954C175.342 143.276 175.315 142.306 175.283 141.169C175.209 138.456 175.103 134.646 174.804 131.387C174.671 131.692 174.523 132.033 174.358 132.425C173.364 134.801 172.572 136.826 171.477 139.653L171.449 139.726C171.035 140.786 170.589 141.965 170.133 143.162C169.231 145.534 168.297 147.987 167.533 149.78C166.935 151.392 165.476 152.561 164.008 152.584C162.793 152.598 161.78 151.847 161.223 150.499C160.611 149.148 159.387 146.134 157.965 142.652C156.341 138.67 154.546 134.264 153.179 131.119C153.096 132.789 153.046 134.819 152.999 136.808C152.963 138.324 152.926 139.83 152.875 141.169C152.829 142.825 152.815 144.591 153.151 146.298C153.317 147.263 153.579 147.85 154.035 148.283C154.366 148.565 155.563 149.698 155.337 150.95C155.273 151.31 155.034 151.965 154.122 152.311L153.984 152.352C152.737 152.63 151.182 152.607 149.677 152.584C149.281 152.58 148.899 152.57 148.531 152.575L148.08 152.584C146.727 152.611 145.047 152.648 144.311 151.524C143.91 150.909 143.92 150.149 144.343 149.266C144.564 148.802 144.881 148.46 145.19 148.128C145.415 147.887 145.645 147.636 145.857 147.322C146.267 146.758 146.304 146.039 146.345 145.201C146.354 144.997 146.368 144.792 146.382 144.587C146.86 139.553 147.219 131.155 147.252 126.462C147.242 126.18 147.242 125.871 147.242 125.561C147.242 123.995 147.233 122.643 146.474 121.487C146.244 121.123 145.968 120.841 145.701 120.568C145.291 120.149 144.863 119.712 144.656 119.075C144.435 118.533 144.49 117.855 144.831 117.291C145.222 116.644 145.917 116.203 146.699 116.112C147.33 115.994 147.956 116.025 148.563 116.048C148.747 116.057 148.931 116.066 149.12 116.071C149.599 116.089 150.036 116.098 150.468 116.112C151.117 116.126 151.762 116.139 152.429 116.185H152.456C155.6 116.185 157.072 118.342 158.002 120.217C159.553 123.595 161.881 129.098 163.754 133.522C164.537 135.365 165.232 137.008 165.747 138.21C165.996 137.591 166.299 136.813 166.654 135.916C168.393 131.501 171.302 124.114 173.212 119.926C173.943 118.429 175.03 116.69 177.064 116.376C178.058 116.18 179.254 116.144 180.409 116.112C180.773 116.103 181.132 116.094 181.472 116.075C182.766 115.953 184.533 116.025 185.352 117.086C185.679 117.509 185.978 118.247 185.55 119.353C185.311 119.876 184.988 120.24 184.675 120.591C184.441 120.85 184.201 121.119 183.994 121.442C183.092 122.748 183.083 124.387 183.074 126.121V126.663C183.106 132.156 183.649 141.05 184.096 145.028C184.174 145.857 184.321 146.772 184.79 147.404C184.979 147.664 185.136 147.869 185.278 148.046C185.669 148.542 186.001 148.97 186.199 149.63L186.203 149.621Z" fill="#621132"/>
<path d="M221.639 147.153C222.697 147.895 223.899 148.737 223.866 150.089C223.903 150.667 223.691 151.25 223.254 151.691C222.467 152.483 221.183 152.615 220.24 152.57C219.812 152.565 219.264 152.547 218.657 152.524C217.207 152.479 215.403 152.42 213.861 152.479C213.387 152.47 212.978 152.497 212.541 152.529C211.468 152.606 210.253 152.693 209.098 152.051L208.905 151.91C207.313 150.435 208.601 148.929 209.223 148.205C209.476 147.909 209.904 147.413 209.872 147.226C209.779 146.726 209.043 145.087 205.2 140.076C205.081 139.916 204.984 139.807 204.911 139.73C204.805 139.857 204.685 140.026 204.607 140.139C204.46 140.349 204.312 140.554 204.156 140.722C203.7 141.314 203.199 141.974 202.688 142.661C202.315 143.203 201.938 143.722 201.592 144.195C200.608 145.551 199.825 146.621 199.959 147.24C200.023 147.513 200.327 147.827 200.649 148.159C200.957 148.478 201.307 148.842 201.542 149.288C202.062 150.34 201.74 151.086 201.51 151.437C200.911 152.333 199.664 152.606 198.707 152.561C198.224 152.556 197.602 152.534 196.954 152.511C196.176 152.483 195.366 152.452 194.68 152.452C194.188 152.406 193.668 152.452 193.115 152.502C192.651 152.543 192.167 152.584 191.68 152.584C190.897 152.584 190.115 152.479 189.42 152.087L189.264 152.001L189.148 151.864C188.615 151.232 188.389 150.581 188.477 149.935C188.628 148.792 189.687 148.055 190.709 147.34C191.215 146.985 191.739 146.621 192.144 146.22C193.884 144.655 195.113 143.021 196.82 140.758C197.17 140.294 197.538 139.803 197.934 139.284C198.169 138.947 198.504 138.496 198.863 138.014C199.696 136.894 200.842 135.36 201.063 134.687C201.086 134.577 201.091 134.545 200.723 134.013C200.608 133.845 200.479 133.662 200.345 133.444C200.009 132.971 199.646 132.461 199.296 131.974L198.822 131.314C198.514 130.909 198.086 130.326 197.593 129.648C195.937 127.381 193.433 123.949 191.675 122.233C191.417 122.001 191.127 121.778 190.86 121.573C190.281 121.132 189.738 120.713 189.411 120.112C189.029 119.461 188.992 118.637 189.323 117.937C189.655 117.231 190.304 116.749 191.095 116.607C192.651 116.416 194.372 116.471 196.038 116.521C197.556 116.567 199.13 116.612 200.474 116.475C201.795 116.316 203.59 116.544 204.266 117.736C204.593 118.31 204.759 119.266 203.719 120.558C203.083 121.214 202.821 121.628 202.867 121.86C203.093 122.884 205.214 126.23 207.317 128.87C209.011 126.776 211.303 123.367 211.763 122.06C211.873 121.76 211.662 121.432 211.109 120.759C210.852 120.444 210.585 120.117 210.382 119.748C209.867 118.669 210.194 117.932 210.433 117.582C211.045 116.676 212.288 116.421 213.259 116.457C215.219 116.567 217.552 116.571 220.208 116.466C221.183 116.407 222.085 116.862 222.541 117.641C222.987 118.405 222.946 119.325 222.435 120.108C221.814 120.922 221.027 121.514 220.268 122.083C219.609 122.575 218.988 123.039 218.556 123.571C217.543 124.705 215.215 127.818 213.521 130.149C213.263 130.545 212.936 130.972 212.61 131.4C212.025 132.16 211.473 132.884 211.202 133.631C211.445 134.213 212.416 135.797 213.075 136.667L213.236 136.89C215.219 139.652 218.215 143.826 220.318 146.075L220.396 146.148C220.714 146.48 221.193 146.812 221.653 147.135L221.639 147.153Z" fill="#621132"/>
</g>
<defs>
<clipPath id="clip0_26345_336">
<rect width="231" height="154" fill="white"/>
</clipPath>
</defs>
</svg>
