<svg width="93" height="25" viewBox="0 0 93 25" fill="none" xmlns="http://www.w3.org/2000/svg">
<path d="M0.643037 14.7386C0.827557 14.3904 0.879534 14.0005 0.895127 13.6107C0.962698 11.3237 0.973093 8.18686 0.918516 5.86867C0.900324 5.3385 0.736596 4.8629 0.458517 4.4159C0.146653 3.91951 -0.211992 3.31138 0.42733 3.0307C1.44609 2.76302 2.50643 3.00211 3.7175 2.94494C5.36518 2.98912 7.23117 2.87997 8.7853 2.94494C9.73388 3.05669 9.94439 4.21838 10.0509 5.02403C10.2017 5.66336 10.3056 7.36822 9.30247 6.45601C8.86326 6.00641 8.62677 5.34629 8.12518 4.95127C7.30394 4.29895 5.0923 4.13262 4.07095 4.65759C3.41603 5.102 3.60835 5.90245 3.56417 6.80686C3.4914 8.40776 4.31784 8.74302 5.74202 8.26223C6.33196 8.0907 6.7088 7.38901 7.1688 7.4098C7.72236 7.55793 7.6288 8.39217 7.66518 8.87296C7.65739 9.4837 7.71456 10.3023 7.57423 10.8429L7.56123 10.8845C7.13761 11.8928 6.44111 10.5752 5.90575 10.3309C5.29761 10.0243 4.34383 9.86573 3.83445 10.4089C3.41603 10.9599 3.59535 12.1112 3.55897 13.0026C3.51219 14.237 3.83965 14.9075 5.22484 14.9465C6.69061 15.0245 8.49162 14.8634 9.21931 13.4288C9.36224 13.2105 9.51558 12.9636 9.67931 12.7713C10.1185 12.2203 10.5135 12.4412 10.5629 12.9376C10.6201 13.803 10.4746 14.7464 10.2563 15.5858C9.96778 16.576 8.92824 16.4954 7.97185 16.4617C7.15321 16.4513 6.18123 16.4383 5.3366 16.4383C3.9566 16.4279 2.31671 16.4825 1.03547 16.4669C-0.487471 16.3551 0.0946755 15.6248 0.63524 14.7334L0.643037 14.7386Z" fill="white"/>
<path d="M21.5743 2.23806C21.7095 2.86179 21.5172 3.71162 21.525 4.42631C21.525 4.80055 21.5042 5.26055 21.4912 5.64778V16.2564C21.4912 16.3811 21.3898 16.4825 21.2651 16.4825H19.3315C19.2068 16.4825 19.1054 16.3811 19.1054 16.2564V15.9731C17.3824 16.7527 16.3506 16.6098 15.7321 16.4955C13.7439 16.1446 12.2418 14.5541 11.9767 11.8929C11.8182 10.3439 12.0781 8.50134 13.0812 7.32665C14.1701 5.97524 16.2207 5.72834 17.6786 6.65354C18.2192 6.96021 18.5674 7.35264 18.7883 7.51896C18.9183 7.60733 19.0066 7.59953 19.0638 7.47478C19.1938 6.86145 19.1886 6.21433 19.1678 5.57241H19.173V4.81094C19.173 4.62902 19.1678 4.4575 19.095 4.28597L19.0846 4.25998C18.5596 3.41275 17.624 3.04631 19.0794 2.41218C19.1418 2.381 19.4147 2.26925 19.5212 2.22247C20.1709 1.97038 21.2391 1.28168 21.5795 2.24066L21.5743 2.23806ZM19.1158 11.2509V11.2016C19.069 10.123 18.8325 8.88337 17.9645 8.17648C17.1511 7.51117 15.9218 7.60733 15.2591 8.56111C13.9155 10.4791 14.3807 16.0978 17.6942 14.9283C18.9495 14.2864 19.108 12.527 19.1158 11.2509Z" fill="white"/>
<path d="M30.5794 6.60416C32.4142 6.36506 33.5655 5.5776 33.0795 8.15828C33.0016 8.98732 32.9912 9.83455 32.9938 10.6896H32.999V11.3263C33.0042 11.8565 33.0068 12.3866 32.999 12.9142C32.999 13.039 32.999 13.1585 32.999 13.2703V16.0666C32.999 16.2772 32.8275 16.4487 32.6169 16.4487H30.9771C30.7665 16.4487 30.595 16.2772 30.595 16.0666V15.5027C30.1558 15.2636 29.727 16.0043 29.1916 16.1836C27.6427 16.9736 25.1426 16.7553 24.3525 14.9803C23.669 13.6679 23.9497 11.5784 24.0485 10.0295C24.1706 8.7976 24.1472 8.38698 23.222 7.54235C22.6815 6.75489 23.9289 6.60416 24.4877 6.54178C25.1296 6.5002 25.8651 6.14156 26.4238 6.37545C26.6941 6.508 26.8293 6.81726 26.8059 7.10574C26.7695 7.78664 26.5668 8.61048 26.4602 10.0607C26.4316 11.6486 25.9275 14.3228 27.8688 14.9023C29.0487 15.17 30.1688 14.6217 30.4703 13.2573C30.5508 12.9064 30.5846 12.5582 30.595 12.2099V10.6922H30.5976C30.5898 9.97749 30.6314 9.28359 30.5404 8.81579C30.4859 8.26483 29.9973 7.94257 29.7036 7.52156C29.3788 6.93681 29.9791 6.70811 30.5794 6.60935V6.60416Z" fill="white"/>
<path d="M43.4178 12.5686C43.7765 12.4698 43.8311 13.0286 43.7817 13.3144C43.6855 13.9538 43.3711 14.5749 42.8383 15.144C41.8793 16.2122 40.1225 16.6644 38.7113 16.3993C32.9392 15.4585 33.7994 6.04799 39.8236 6.12596H39.8496C41.305 6.08438 43.028 6.93421 43.2125 8.14788C43.3581 9.09647 43.2749 9.41353 42.7525 9.45771C41.8403 9.53568 41.8299 9.39014 41.6298 8.73263C41.0789 6.7133 38.2903 6.92381 37.482 8.76641C36.2735 11.7317 38.2513 15.3 41.6194 14.0993C42.2224 13.8602 42.6642 13.434 43.002 12.9636C43.1164 12.8129 43.2307 12.6335 43.4153 12.5712L43.4178 12.5686Z" fill="white"/>
<path d="M52.9401 7.71127C53.33 8.322 53.5457 9.09127 53.5457 10.0113C53.5457 10.4037 53.5353 10.8195 53.5223 11.2327V16.1316C53.5223 16.1914 53.5041 16.2434 53.4755 16.2927C53.4183 16.3993 53.3092 16.4721 53.1818 16.4721H51.5211C51.334 16.4721 51.1807 16.3187 51.1807 16.1316V15.3026C51.1417 15.2298 51.0897 15.17 51.03 15.17C50.9598 15.17 50.8818 15.2896 50.8013 15.3675C50.1567 15.9913 49.0886 16.4669 47.9607 16.4669C46.287 16.4669 44.9798 15.5858 44.9798 14.0005C44.9798 12.4152 46.1077 11.4354 47.8619 10.9105C49.1484 10.544 50.7025 10.4843 50.9416 10.3153C51.0507 10.2374 51.1495 10.0788 51.1495 9.45511C51.1495 8.45454 50.8194 7.60991 50.0502 7.28765C49.8371 7.19929 49.5902 7.14731 49.3069 7.14731C49.2367 7.14731 49.1666 7.15251 49.1016 7.15771C48.3245 7.21228 47.6124 7.66449 47.363 8.58189C47.1628 9.2394 47.1498 9.38494 46.2402 9.30697C45.7179 9.26279 45.6373 8.94833 45.7802 7.99714C45.8712 7.3968 46.3416 6.88483 46.9653 6.52618C47.5813 6.22211 48.3791 6.0272 49.3381 6.0272C49.8215 6.0272 50.2737 6.07918 50.6895 6.17793C51.6095 6.45082 52.3554 6.98358 52.9167 7.66449C52.9245 7.67748 52.9323 7.69308 52.9427 7.70867L52.9401 7.71127ZM51.1599 12.358C51.1599 11.7655 51.1001 11.5862 50.9728 11.5862C50.1515 11.5862 49.4888 11.6641 48.9223 11.8435C47.8723 12.1891 47.4071 12.883 47.4071 13.5873C47.4071 14.4086 48.0205 14.8841 48.8729 14.8841C50.2191 14.8841 51.1599 13.8732 51.1599 12.358Z" fill="white"/>
<path d="M63.7982 12.5686C64.1568 12.4698 64.2114 13.0286 64.162 13.3144C64.0659 13.9538 63.7514 14.5749 63.2186 15.144C62.2596 16.2122 60.5028 16.6644 59.0916 16.3993C53.3195 15.4585 54.1797 6.04799 60.2039 6.12596H60.2325C61.6879 6.08438 63.4109 6.93421 63.5955 8.14788C63.7384 9.09647 63.6578 9.41353 63.1355 9.45771C62.2233 9.53568 62.2129 9.39014 62.0127 8.73263C61.4618 6.7133 58.6732 6.92381 57.8649 8.76641C56.6565 11.7317 58.6342 15.3 62.0023 14.0993C62.6053 13.8602 63.0471 13.434 63.385 12.9636C63.4993 12.8129 63.6137 12.6335 63.7982 12.5712V12.5686Z" fill="white"/>
<path d="M68.8322 10.149C68.8322 11.0638 68.8322 12.1553 68.8322 13.2027C68.8374 13.8108 68.7932 14.3748 69.0661 14.8738C69.2974 15.3468 70.0848 16.0511 69.1804 16.4149C68.5827 16.5994 68.2266 16.4799 67.6211 16.4981C67.0857 16.4487 65.2717 16.8047 65.7005 15.7496C65.9318 15.339 66.0176 14.9985 66.1709 14.5411C66.3944 13.8914 66.2645 13.0598 66.2983 12.2515C66.2463 11.2769 66.423 9.76699 66.1891 8.94834C65.8721 8.22066 64.6012 7.69569 65.95 7.11614C66.6179 6.85625 67.304 6.53399 67.9953 6.35207C69.1778 6.21693 68.8997 7.38382 68.8789 8.24145C68.8556 8.8236 68.8374 9.57207 68.8348 10.1152V10.149H68.8322ZM67.9252 2.23026C68.5645 2.22506 69.1492 2.73184 69.1388 3.38936C69.1648 4.46529 67.9096 5.33591 66.831 5.16439C66.0124 5.08382 65.7681 4.16382 66.0982 3.50111C66.3866 2.81761 67.1351 2.23026 67.8784 2.23026H67.9252Z" fill="white"/>
<path d="M75.5529 6.0272C78.2557 6.0272 80.6727 7.99715 80.6727 11.4744C80.6727 14.9517 78.4143 16.4149 75.6829 16.4149C72.624 16.4149 70.6618 14.2656 70.6618 11.2951C70.6618 8.3246 72.7201 6.0272 75.5529 6.0272ZM78.2375 12.0696C78.2375 11.03 77.9699 9.83195 77.5436 8.97952C76.9693 7.8698 76.148 7.32664 75.3346 7.32664C74.1755 7.32664 73.1957 8.31681 73.1957 10.4843C73.1957 11.3471 73.3257 12.475 73.7597 13.3664C74.3132 14.4761 75.2047 14.9205 76.0181 14.9205C77.1772 14.9205 78.2349 14.0889 78.2349 12.0696H78.2375ZM74.885 4.81093C74.9032 4.72777 74.9474 4.67319 75.2254 4.33794C75.6335 3.84675 76.0987 3.24122 76.4105 2.73963C76.7406 2.20946 77.1642 1.55195 77.9309 1.71828C78.5468 1.85342 78.7417 2.37839 78.6378 2.85918C78.552 3.24901 78.3129 3.60506 77.7879 4.04686C76.9693 4.74856 75.7036 5.3411 75.2099 5.23455C74.9526 5.17997 74.8382 5.02404 74.885 4.80833V4.81093Z" fill="white"/>
<path d="M91.6269 14.4709C91.7022 15.248 92.8172 16.2018 91.2137 16.4928C90.5691 16.5526 90.1689 16.4928 89.5244 16.5162C88.6954 16.5552 88.6174 16.1602 88.8825 15.3181C89.158 14.3566 89.0072 13.3378 89.0748 12.3217C89.145 11.2197 89.145 9.84753 88.7369 9.06787C88.2198 7.86979 86.5955 7.75804 85.6105 8.59487C84.94 9.10425 84.6619 9.9125 84.7217 10.7285V13.4392C84.7269 13.9407 84.7035 14.4501 84.9374 14.9049C85.1349 15.3467 85.3558 15.6664 85.3116 16.077C85.2571 16.3525 85.1609 16.4565 84.9062 16.4928C84.0434 16.55 83.2091 16.4928 82.3385 16.5162C81.9851 16.498 81.72 16.4383 81.6576 16.0172C81.6524 15.5624 82.0812 15.0037 82.2034 14.4553C82.4165 13.3014 82.2476 12.0358 82.2995 10.8325C82.2658 10.0502 82.4399 9.04448 82.0189 8.61047C81.9383 8.50911 81.8447 8.41295 81.7564 8.3116C80.8624 7.49815 82.0578 7.10312 82.8037 6.78866C84.1032 6.18572 84.2617 6.61713 84.7659 7.64628C85.0154 8.02052 85.4987 7.33182 86.0029 7.08493C86.4811 6.77826 87.175 6.50018 87.791 6.41442C89.5218 6.11815 91.1175 6.98877 91.4839 8.85216C91.9024 10.7 91.5437 12.8596 91.6217 14.4371L91.6295 14.4735L91.6269 14.4709Z" fill="white"/>
<path d="M1.87898 22.3325C1.87898 22.5015 1.8374 22.6496 1.75424 22.7769C1.67107 22.9043 1.55152 23.0004 1.39299 23.0706C1.23446 23.1382 1.04474 23.1746 0.818642 23.1746C0.719885 23.1746 0.621129 23.1668 0.524971 23.1538C0.428813 23.1408 0.337853 23.12 0.249491 23.094C0.16113 23.068 0.0779661 23.0368 0 22.9978V22.4287C0.13774 22.4885 0.278079 22.543 0.426215 22.5924C0.571751 22.6418 0.719885 22.6678 0.865422 22.6678C0.964179 22.6678 1.04475 22.6548 1.10452 22.6262C1.16429 22.5976 1.20847 22.5638 1.23706 22.5171C1.26565 22.4703 1.27864 22.4183 1.27864 22.3585C1.27864 22.2858 1.25265 22.2234 1.20328 22.174C1.1539 22.122 1.08633 22.0752 1.00316 22.0311C0.919998 21.9869 0.82384 21.9401 0.717287 21.8881C0.649716 21.8569 0.576949 21.818 0.498983 21.7738C0.421016 21.7296 0.345649 21.675 0.27548 21.6074C0.20531 21.5399 0.145536 21.4619 0.0987563 21.3684C0.0519767 21.2748 0.0311852 21.1604 0.0311852 21.0305C0.0311852 20.859 0.070168 20.7108 0.150733 20.5887C0.231298 20.4665 0.34305 20.373 0.488587 20.308C0.634124 20.243 0.808248 20.2119 1.00836 20.2119C1.1591 20.2119 1.30203 20.23 1.43717 20.2638C1.57232 20.2976 1.71525 20.3496 1.86339 20.412L1.66587 20.8876C1.53333 20.833 1.41638 20.7914 1.30983 20.7628C1.20587 20.7342 1.09672 20.7186 0.987569 20.7186C0.912202 20.7186 0.84723 20.7316 0.792654 20.755C0.738078 20.7784 0.696496 20.8122 0.670507 20.8564C0.641919 20.9006 0.628926 20.9499 0.628926 21.0097C0.628926 21.0773 0.649716 21.1345 0.688699 21.1812C0.730281 21.228 0.790056 21.2722 0.870621 21.3164C0.951186 21.3606 1.05254 21.4099 1.17469 21.4697C1.32282 21.5399 1.44757 21.6126 1.55152 21.688C1.65548 21.7634 1.73604 21.8517 1.79062 21.9557C1.8478 22.0571 1.87638 22.1844 1.87638 22.3351L1.87898 22.3325Z" fill="#EDD899"/>
<path d="M3.34478 20.8876C3.55009 20.8876 3.72421 20.9265 3.87235 21.0045C4.01788 21.0825 4.13223 21.1968 4.2128 21.3424C4.29336 21.4905 4.33495 21.6724 4.33495 21.8881V22.1792H2.91336C2.91856 22.3481 2.96794 22.4833 3.0641 22.5794C3.16026 22.6756 3.2928 22.725 3.46172 22.725C3.60466 22.725 3.7346 22.712 3.84895 22.6834C3.9659 22.6548 4.08545 22.6106 4.2076 22.5534V23.0186C4.10105 23.0732 3.9867 23.1122 3.86715 23.1382C3.7476 23.1642 3.60206 23.1772 3.43314 23.1772C3.21223 23.1772 3.01732 23.1356 2.84839 23.055C2.67946 22.9718 2.54432 22.8497 2.44816 22.6808C2.35201 22.5144 2.30263 22.3039 2.30263 22.0518C2.30263 21.7998 2.34681 21.5789 2.43257 21.4073C2.52093 21.2358 2.64308 21.1085 2.79901 21.0227C2.95494 20.9369 3.13687 20.8928 3.34478 20.8928V20.8876ZM3.34997 21.3138C3.23302 21.3138 3.13686 21.3502 3.0615 21.4255C2.98613 21.5009 2.93935 21.6178 2.92636 21.7764H3.77099C3.77099 21.688 3.7554 21.6074 3.72421 21.5373C3.69302 21.4671 3.64624 21.4125 3.58387 21.3709C3.5215 21.3294 3.44353 21.3112 3.34997 21.3112V21.3138Z" fill="#EDD899"/>
<path d="M5.80071 23.172C5.5824 23.172 5.39788 23.133 5.24455 23.0524C5.09122 22.9718 4.97427 22.8497 4.8937 22.6834C4.81314 22.517 4.77155 22.3039 4.77155 22.0415C4.77155 21.779 4.81833 21.5529 4.90929 21.3839C5.00025 21.215 5.1276 21.0903 5.29133 21.0097C5.45506 20.9291 5.64217 20.8876 5.85528 20.8876C6.00602 20.8876 6.13596 20.9031 6.24771 20.9317C6.35947 20.9603 6.45822 20.9967 6.54138 21.0357L6.36466 21.5009C6.2711 21.4645 6.18274 21.4333 6.09958 21.4073C6.01641 21.3839 5.93585 21.3709 5.85528 21.3709C5.75133 21.3709 5.66297 21.3969 5.5928 21.4463C5.52263 21.4957 5.47065 21.5711 5.43686 21.6672C5.40308 21.766 5.38749 21.8881 5.38749 22.0363C5.38749 22.1844 5.40568 22.3013 5.44206 22.3975C5.47845 22.4937 5.53042 22.5638 5.60059 22.6106C5.67076 22.6574 5.75652 22.6808 5.85528 22.6808C5.98263 22.6808 6.09438 22.6652 6.19054 22.6314C6.2867 22.5976 6.38285 22.5508 6.47381 22.4911V23.003C6.38285 23.0628 6.2867 23.1044 6.18534 23.1304C6.08398 23.1564 5.95664 23.1694 5.80331 23.1694L5.80071 23.172Z" fill="#EDD899"/>
<path d="M8.29037 20.8876C8.31896 20.8876 8.35534 20.8876 8.39433 20.8928C8.43591 20.8954 8.46709 20.9005 8.49048 20.9057L8.4463 21.4697C8.42811 21.4645 8.39953 21.4593 8.36314 21.4567C8.32676 21.4515 8.29557 21.4515 8.26698 21.4515C8.18901 21.4515 8.11365 21.4619 8.04088 21.4827C7.96811 21.5035 7.90314 21.5347 7.84597 21.5789C7.78879 21.623 7.74201 21.6802 7.70823 21.7504C7.67444 21.8205 7.65885 21.9089 7.65885 22.0155V23.1382H7.05851V20.9343H7.51591L7.60427 21.306H7.63286C7.67704 21.2306 7.72902 21.163 7.79399 21.1007C7.85896 21.0383 7.93433 20.9889 8.01749 20.9499C8.10325 20.9135 8.19422 20.8928 8.29037 20.8928V20.8876Z" fill="#EDD899"/>
<path d="M9.80033 20.8876C10.0056 20.8876 10.1798 20.9265 10.3279 21.0045C10.4734 21.0825 10.5878 21.1968 10.6684 21.3424C10.7489 21.4905 10.7905 21.6724 10.7905 21.8881V22.1792H9.36892C9.37411 22.3481 9.42349 22.4833 9.51965 22.5794C9.61581 22.6756 9.74835 22.725 9.91728 22.725C10.0602 22.725 10.1902 22.712 10.3045 22.6834C10.4215 22.6548 10.541 22.6106 10.6632 22.5534V23.0186C10.5566 23.0732 10.4422 23.1122 10.3227 23.1382C10.2032 23.1642 10.0576 23.1772 9.88869 23.1772C9.66778 23.1772 9.47287 23.1356 9.30394 23.055C9.13502 22.9718 8.99988 22.8497 8.90372 22.6808C8.80756 22.5144 8.75818 22.3039 8.75818 22.0518C8.75818 21.7998 8.80236 21.5789 8.88812 21.4073C8.97648 21.2358 9.09863 21.1085 9.25456 21.0227C9.4105 20.9369 9.59242 20.8928 9.80033 20.8928V20.8876ZM9.80553 21.3138C9.68858 21.3138 9.59242 21.3502 9.51705 21.4255C9.44169 21.5009 9.3949 21.6178 9.38191 21.7764H10.2265C10.2265 21.688 10.2109 21.6074 10.1798 21.5373C10.1486 21.4671 10.1018 21.4125 10.0394 21.3709C9.97705 21.3294 9.89909 21.3112 9.80553 21.3112V21.3138Z" fill="#EDD899"/>
<path d="M12.2875 22.6912C12.3551 22.6912 12.42 22.6834 12.4824 22.6704C12.5448 22.6574 12.6071 22.6418 12.6669 22.621V23.068C12.602 23.094 12.5214 23.1174 12.4278 23.1382C12.3317 23.159 12.2277 23.1694 12.116 23.1694C11.9834 23.1694 11.8665 23.1486 11.7625 23.1044C11.6586 23.0602 11.578 22.9874 11.5156 22.8809C11.4558 22.7743 11.4247 22.6262 11.4247 22.4391V21.3761H11.1388V21.1214L11.4688 20.9187L11.643 20.4535H12.0276V20.9213H12.6461V21.3735H12.0276V22.4365C12.0276 22.5196 12.051 22.582 12.1004 22.6236C12.1497 22.6652 12.2121 22.686 12.2901 22.686L12.2875 22.6912Z" fill="#EDD899"/>
<path d="M14.0963 20.8823C14.3925 20.8823 14.6186 20.9473 14.7772 21.0747C14.9357 21.202 15.0137 21.3995 15.0137 21.662V23.1304H14.5926L14.4757 22.8315H14.4601C14.3977 22.9095 14.3354 22.9744 14.2678 23.0264C14.2028 23.0784 14.1274 23.1148 14.0417 23.1382C13.9559 23.1616 13.852 23.172 13.7298 23.172C13.6077 23.172 13.4829 23.146 13.3816 23.0966C13.2776 23.0472 13.1971 22.9692 13.1373 22.8653C13.0775 22.7613 13.0489 22.6314 13.0489 22.4729C13.0489 22.239 13.1321 22.0648 13.2958 21.9531C13.4595 21.8413 13.7064 21.779 14.0339 21.7686L14.4185 21.7556V21.6594C14.4185 21.5425 14.3873 21.4593 14.3276 21.4047C14.2678 21.3501 14.182 21.3242 14.0755 21.3242C13.9689 21.3242 13.8624 21.3398 13.761 21.3709C13.6596 21.4021 13.5557 21.4411 13.4543 21.4853L13.2568 21.0773C13.3764 21.0149 13.5063 20.9681 13.6493 20.9317C13.7922 20.8979 13.9429 20.8798 14.0989 20.8798L14.0963 20.8823ZM14.182 22.1168C13.9871 22.122 13.8546 22.1584 13.7792 22.2208C13.7038 22.2857 13.6648 22.3689 13.6648 22.4755C13.6648 22.5664 13.6908 22.6314 13.7454 22.6704C13.8 22.7094 13.8702 22.7301 13.9559 22.7301C14.0859 22.7301 14.195 22.6912 14.2834 22.6158C14.3717 22.5404 14.4159 22.4313 14.4159 22.2909V22.109L14.182 22.1168Z" fill="#EDD899"/>
<path d="M16.942 20.8876C16.9706 20.8876 17.007 20.8876 17.046 20.8928C17.0876 20.8954 17.1187 20.9005 17.1421 20.9057L17.098 21.4697C17.0798 21.4645 17.0512 21.4593 17.0148 21.4567C16.9784 21.4515 16.9472 21.4515 16.9186 21.4515C16.8407 21.4515 16.7653 21.4619 16.6925 21.4827C16.6198 21.5035 16.5548 21.5347 16.4976 21.5789C16.4404 21.623 16.3937 21.6802 16.3599 21.7504C16.3261 21.8205 16.3105 21.9089 16.3105 22.0155V23.1382H15.7102V20.9343H16.1676L16.2559 21.306H16.2845C16.3287 21.2306 16.3807 21.163 16.4456 21.1007C16.5106 21.0383 16.586 20.9889 16.6691 20.9499C16.7549 20.9135 16.8459 20.8928 16.942 20.8928V20.8876Z" fill="#EDD899"/>
<path d="M18.2259 23.1304H17.6256V20.9265H18.2259V23.1304ZM18.7795 20.0793C18.7405 20.1157 18.6911 20.1625 18.6313 20.217C18.5689 20.2716 18.5014 20.3262 18.4312 20.386C18.361 20.4457 18.2909 20.5003 18.2207 20.5523C18.1505 20.6043 18.0933 20.6485 18.0414 20.6822H17.6411V20.6303C17.6853 20.5783 17.7347 20.5185 17.7919 20.4509C17.8491 20.3834 17.9062 20.3106 17.9634 20.2378C18.0206 20.1651 18.0674 20.0975 18.1037 20.0377H18.7769V20.0793H18.7795Z" fill="#EDD899"/>
<path d="M19.8398 20.8823C20.1361 20.8823 20.3622 20.9473 20.5207 21.0747C20.6792 21.202 20.7572 21.3995 20.7572 21.662V23.1304H20.3362L20.2192 22.8315H20.2036C20.1413 22.9095 20.0789 22.9744 20.0113 23.0264C19.9463 23.0784 19.871 23.1148 19.7852 23.1382C19.6995 23.1616 19.5955 23.172 19.4734 23.172C19.3512 23.172 19.2265 23.146 19.1251 23.0966C19.0211 23.0472 18.9406 22.9692 18.8808 22.8653C18.821 22.7613 18.7924 22.6314 18.7924 22.4729C18.7924 22.239 18.8756 22.0648 19.0393 21.9531C19.2031 21.8413 19.45 21.779 19.7774 21.7686L20.1621 21.7556V21.6594C20.1621 21.5425 20.1309 21.4593 20.0711 21.4047C20.0113 21.3501 19.9256 21.3242 19.819 21.3242C19.7124 21.3242 19.6059 21.3398 19.5045 21.3709C19.4032 21.4021 19.2992 21.4411 19.1979 21.4853L19.0004 21.0773C19.1199 21.0149 19.2498 20.9681 19.3928 20.9317C19.5357 20.8979 19.6865 20.8798 19.8424 20.8798L19.8398 20.8823ZM19.9256 22.1168C19.7306 22.122 19.5981 22.1584 19.5227 22.2208C19.4474 22.2857 19.4084 22.3689 19.4084 22.4755C19.4084 22.5664 19.4344 22.6314 19.4889 22.6704C19.5435 22.7094 19.6137 22.7301 19.6995 22.7301C19.8294 22.7301 19.9385 22.6912 20.0269 22.6158C20.1153 22.5404 20.1595 22.4313 20.1595 22.2909V22.109L19.9256 22.1168Z" fill="#EDD899"/>
<path d="M23.2859 23.172C23.0416 23.172 22.8414 23.0758 22.6855 22.8835C22.5296 22.6912 22.4542 22.4079 22.4542 22.0336C22.4542 21.6594 22.5322 21.3709 22.6881 21.1786C22.844 20.9837 23.0494 20.8875 23.3014 20.8875C23.4054 20.8875 23.499 20.9005 23.5795 20.9291C23.6601 20.9577 23.7303 20.9967 23.7874 21.0435C23.8446 21.0929 23.894 21.1474 23.9356 21.2098H23.9564C23.9486 21.1656 23.9382 21.1033 23.9278 21.0227C23.9174 20.9395 23.9122 20.8564 23.9122 20.7706V20.0637H24.5125V23.133H24.0525L23.9356 22.8471H23.9122C23.8732 22.9069 23.8264 22.9614 23.7692 23.0108C23.7121 23.0602 23.6445 23.0992 23.5665 23.1304C23.4886 23.159 23.395 23.1745 23.2884 23.1745L23.2859 23.172ZM23.4938 22.6912C23.6601 22.6912 23.777 22.6418 23.8446 22.543C23.9122 22.4443 23.946 22.2987 23.9486 22.1012V22.0362C23.9486 21.8205 23.9148 21.6568 23.8498 21.5425C23.7848 21.4307 23.6627 21.3735 23.4834 21.3735C23.3508 21.3735 23.2469 21.4307 23.1715 21.5451C23.0961 21.6594 23.0571 21.8257 23.0571 22.0388C23.0571 22.252 23.0961 22.4157 23.1715 22.5248C23.2469 22.634 23.3534 22.6886 23.4912 22.6886L23.4938 22.6912Z" fill="#EDD899"/>
<path d="M26.1316 20.8876C26.337 20.8876 26.5111 20.9265 26.6592 21.0045C26.8048 21.0825 26.9191 21.1968 26.9997 21.3424C27.0802 21.4905 27.1218 21.6724 27.1218 21.8881V22.1792H25.7002C25.7054 22.3481 25.7548 22.4833 25.851 22.5794C25.9471 22.6756 26.0797 22.725 26.2486 22.725C26.3915 22.725 26.5215 22.712 26.6358 22.6834C26.7528 22.6548 26.8723 22.6106 26.9945 22.5534V23.0186C26.8879 23.0732 26.7736 23.1122 26.654 23.1382C26.5345 23.1642 26.3889 23.1772 26.22 23.1772C25.9991 23.1772 25.8042 23.1356 25.6353 23.055C25.4663 22.9718 25.3312 22.8497 25.235 22.6808C25.1389 22.5144 25.0895 22.3039 25.0895 22.0518C25.0895 21.7998 25.1337 21.5789 25.2194 21.4073C25.3078 21.2358 25.4299 21.1085 25.5859 21.0227C25.7418 20.9369 25.9237 20.8928 26.1316 20.8928V20.8876ZM26.1342 21.3138C26.0173 21.3138 25.9211 21.3502 25.8458 21.4255C25.7704 21.5009 25.7236 21.6178 25.7106 21.7764H26.5553C26.5553 21.688 26.5397 21.6074 26.5085 21.5373C26.4773 21.4671 26.4305 21.4125 26.3681 21.3709C26.3058 21.3294 26.2278 21.3112 26.1342 21.3112V21.3138Z" fill="#EDD899"/>
<path d="M30.5263 23.1304H28.8683V20.2482H30.5263V20.7498H29.4764V21.3839H30.4536V21.8855H29.4764V22.6288H30.5263V23.133V23.1304Z" fill="#EDD899"/>
<path d="M31.8595 23.172C31.6152 23.172 31.4151 23.0758 31.2592 22.8835C31.1032 22.6912 31.0279 22.4079 31.0279 22.0336C31.0279 21.6594 31.1059 21.3709 31.2618 21.1786C31.4177 20.9837 31.623 20.8875 31.8751 20.8875C31.9791 20.8875 32.0726 20.9005 32.1532 20.9291C32.2338 20.9577 32.3039 20.9967 32.3611 21.0435C32.4183 21.0903 32.4677 21.1474 32.5092 21.2098H32.53C32.5222 21.1656 32.5118 21.1033 32.5014 21.0227C32.491 20.9395 32.4858 20.8564 32.4858 20.7706V20.0637H33.0862V23.133H32.6262L32.5092 22.8471H32.4858C32.4495 22.9069 32.4001 22.9614 32.3429 23.0108C32.2857 23.0602 32.2182 23.0992 32.1376 23.1304C32.0596 23.159 31.9661 23.1745 31.8595 23.1745V23.172ZM32.07 22.6912C32.2364 22.6912 32.3533 22.6418 32.4209 22.543C32.4884 22.4443 32.5222 22.2987 32.5248 22.1012V22.0362C32.5248 21.8205 32.491 21.6568 32.4261 21.5425C32.3611 21.4307 32.239 21.3735 32.0596 21.3735C31.9271 21.3735 31.8231 21.4307 31.7478 21.5451C31.6724 21.6594 31.636 21.8257 31.636 22.0388C31.636 22.252 31.6724 22.4157 31.7478 22.5248C31.8231 22.634 31.9297 22.6886 32.0674 22.6886L32.07 22.6912Z" fill="#EDD899"/>
<path d="M35.8202 20.9265V23.1304H35.3602L35.2797 22.8471H35.2485C35.2017 22.9225 35.1445 22.9848 35.0718 23.0316C35.0016 23.0784 34.921 23.1148 34.8353 23.1356C34.7495 23.159 34.6611 23.1694 34.5676 23.1694C34.4116 23.1694 34.2739 23.1408 34.157 23.0836C34.0374 23.0264 33.9464 22.9407 33.8815 22.8211C33.8165 22.7016 33.7853 22.5482 33.7853 22.3611V20.9239H34.3856V22.213C34.3856 22.3689 34.4142 22.4885 34.4714 22.569C34.5286 22.6496 34.617 22.6912 34.7417 22.6912C34.8664 22.6912 34.9626 22.6626 35.0302 22.6054C35.0977 22.5482 35.1471 22.4677 35.1757 22.3585C35.2043 22.2494 35.2173 22.1194 35.2173 21.9635V20.9265H35.8202Z" fill="#EDD899"/>
<path d="M37.4263 23.172C37.208 23.172 37.0235 23.133 36.8702 23.0524C36.7168 22.9718 36.5999 22.8497 36.5193 22.6834C36.4388 22.517 36.3972 22.3039 36.3972 22.0415C36.3972 21.779 36.444 21.5529 36.5349 21.3839C36.6259 21.215 36.7532 21.0903 36.917 21.0097C37.0807 20.9291 37.2678 20.8876 37.4809 20.8876C37.6317 20.8876 37.7616 20.9031 37.8733 20.9317C37.9851 20.9603 38.0813 20.9967 38.167 21.0357L37.9903 21.5009C37.8967 21.4645 37.8084 21.4333 37.7252 21.4073C37.642 21.3839 37.5615 21.3709 37.4809 21.3709C37.377 21.3709 37.2886 21.3969 37.2184 21.4463C37.1483 21.4957 37.0963 21.5711 37.0625 21.6672C37.0287 21.766 37.0131 21.8881 37.0131 22.0363C37.0131 22.1844 37.0313 22.3013 37.0677 22.3975C37.1041 22.4937 37.1561 22.5638 37.2262 22.6106C37.2964 22.6574 37.3796 22.6808 37.4809 22.6808C37.6083 22.6808 37.72 22.6652 37.8162 22.6314C37.9123 22.5976 38.0085 22.5508 38.0994 22.4911V23.003C38.0085 23.0628 37.9123 23.1044 37.811 23.1304C37.7096 23.1564 37.5823 23.1694 37.4289 23.1694L37.4263 23.172Z" fill="#EDD899"/>
<path d="M39.5912 20.8823C39.8875 20.8823 40.1136 20.9473 40.2721 21.0747C40.4306 21.202 40.5086 21.3995 40.5086 21.662V23.1304H40.0876L39.9706 22.8315H39.955C39.8927 22.9095 39.8303 22.9744 39.7627 23.0264C39.6978 23.0784 39.6224 23.1148 39.5366 23.1382C39.4509 23.1616 39.3469 23.172 39.2248 23.172C39.1026 23.172 38.9779 23.146 38.8765 23.0966C38.7726 23.0472 38.692 22.9692 38.6322 22.8653C38.5724 22.7613 38.5439 22.6314 38.5439 22.4729C38.5439 22.239 38.627 22.0648 38.7907 21.9531C38.9545 21.8413 39.2014 21.779 39.5288 21.7686L39.9135 21.7556V21.6594C39.9135 21.5425 39.8823 21.4593 39.8225 21.4047C39.7627 21.3501 39.677 21.3242 39.5704 21.3242C39.4639 21.3242 39.3573 21.3398 39.2559 21.3709C39.1546 21.4021 39.0506 21.4411 38.9493 21.4853L38.7518 21.0773C38.8713 21.0149 39.0013 20.9681 39.1442 20.9317C39.2871 20.8979 39.4379 20.8798 39.5938 20.8798L39.5912 20.8823ZM39.677 22.1168C39.482 22.122 39.3495 22.1584 39.2741 22.2208C39.1988 22.2857 39.1624 22.3689 39.1624 22.4755C39.1624 22.5664 39.1884 22.6314 39.243 22.6704C39.2975 22.7094 39.3677 22.7301 39.4535 22.7301C39.5834 22.7301 39.6926 22.6912 39.7809 22.6158C39.8693 22.5404 39.9135 22.4313 39.9135 22.2909V22.109L39.6796 22.1168H39.677Z" fill="#EDD899"/>
<path d="M42.1017 23.172C41.8834 23.172 41.6989 23.133 41.5455 23.0524C41.3922 22.9718 41.2753 22.8497 41.1947 22.6834C41.1141 22.517 41.0726 22.3039 41.0726 22.0415C41.0726 21.779 41.1193 21.5529 41.2103 21.3839C41.3013 21.215 41.4286 21.0903 41.5923 21.0097C41.7561 20.9291 41.9432 20.8876 42.1563 20.8876C42.307 20.8876 42.437 20.9031 42.5487 20.9317C42.6605 20.9603 42.7566 20.9967 42.8424 21.0357L42.6657 21.5009C42.5721 21.4645 42.4837 21.4333 42.4006 21.4073C42.3174 21.3839 42.2369 21.3709 42.1563 21.3709C42.0523 21.3709 41.964 21.3969 41.8938 21.4463C41.8236 21.4957 41.7716 21.5711 41.7379 21.6672C41.7041 21.766 41.6885 21.8881 41.6885 22.0363C41.6885 22.1844 41.7067 22.3013 41.7431 22.3975C41.7795 22.4937 41.8314 22.5638 41.9016 22.6106C41.9718 22.6574 42.0549 22.6808 42.1563 22.6808C42.2836 22.6808 42.3954 22.6652 42.4915 22.6314C42.5877 22.5976 42.6839 22.5508 42.7748 22.4911V23.003C42.6839 23.0628 42.5877 23.1044 42.4863 23.1304C42.385 23.1564 42.2576 23.1694 42.1043 23.1694L42.1017 23.172Z" fill="#EDD899"/>
<path d="M43.6636 20.0637C43.752 20.0637 43.8299 20.0845 43.8949 20.1261C43.9599 20.1677 43.9911 20.2456 43.9911 20.3574C43.9911 20.4691 43.9599 20.5445 43.8949 20.5887C43.8299 20.6329 43.7546 20.6536 43.6636 20.6536C43.5727 20.6536 43.4947 20.6329 43.4323 20.5887C43.37 20.5445 43.3388 20.4691 43.3388 20.3574C43.3388 20.2456 43.37 20.1677 43.4323 20.1261C43.4947 20.0845 43.5727 20.0637 43.6636 20.0637ZM43.9625 20.9265V23.1304H43.3622V20.9265H43.9625Z" fill="#EDD899"/>
<path d="M46.6757 22.0259C46.6757 22.2104 46.6497 22.3715 46.6003 22.5144C46.5509 22.6574 46.4782 22.7769 46.3872 22.8757C46.2962 22.9744 46.1819 23.0472 46.0494 23.0966C45.9168 23.146 45.7687 23.172 45.6023 23.172C45.449 23.172 45.3061 23.146 45.1761 23.0966C45.0462 23.0472 44.9318 22.9718 44.8383 22.8757C44.7447 22.7795 44.672 22.6574 44.6174 22.5144C44.5628 22.3715 44.5394 22.2104 44.5394 22.0259C44.5394 21.7816 44.5836 21.5737 44.6693 21.4073C44.7551 21.2384 44.8799 21.1111 45.041 21.0227C45.2021 20.9343 45.3944 20.8901 45.6153 20.8901C45.8232 20.8901 46.0052 20.9343 46.1637 21.0227C46.3222 21.1111 46.447 21.241 46.5379 21.4073C46.6289 21.5763 46.6757 21.7816 46.6757 22.0259ZM45.1553 22.0259C45.1553 22.1714 45.1709 22.2935 45.2021 22.3923C45.2333 22.4911 45.2827 22.5638 45.3503 22.6132C45.4178 22.6626 45.5036 22.6886 45.6127 22.6886C45.7219 22.6886 45.8077 22.6626 45.8726 22.6132C45.9376 22.5638 45.987 22.4885 46.0182 22.3923C46.0493 22.2961 46.0649 22.1714 46.0649 22.0259C46.0649 21.8803 46.0493 21.7582 46.0182 21.662C45.987 21.5659 45.9376 21.4931 45.87 21.4437C45.8025 21.3943 45.7141 21.3709 45.6075 21.3709C45.449 21.3709 45.3347 21.4255 45.2619 21.5347C45.1891 21.6438 45.1553 21.8076 45.1553 22.0259ZM46.4626 20.0793C46.4236 20.1157 46.3742 20.1625 46.3144 20.217C46.2521 20.2716 46.1845 20.3262 46.1143 20.386C46.0442 20.4457 45.974 20.5003 45.9038 20.5523C45.8362 20.6043 45.7739 20.6485 45.7245 20.6822H45.3243V20.6303C45.3684 20.5783 45.4178 20.5185 45.475 20.4509C45.5322 20.3834 45.5893 20.3106 45.6465 20.2378C45.7037 20.1651 45.7505 20.0975 45.7869 20.0377H46.46V20.0793H46.4626Z" fill="#EDD899"/>
<path d="M48.5053 20.8876C48.7418 20.8876 48.9315 20.9525 49.0745 21.0799C49.2174 21.2072 49.2876 21.4125 49.2876 21.6958V23.133H48.6873V21.8439C48.6873 21.6854 48.6587 21.5659 48.6015 21.4879C48.5443 21.4073 48.456 21.3683 48.3312 21.3683C48.1467 21.3683 48.0219 21.4307 47.9544 21.5555C47.8868 21.6802 47.853 21.8595 47.853 22.0934V23.1304H47.2527V20.9265H47.7127L47.7932 21.2098H47.8244C47.8738 21.1344 47.931 21.0721 48.0011 21.0253C48.0713 20.9785 48.1493 20.9421 48.235 20.9213C48.3208 20.9005 48.4092 20.8876 48.5027 20.8876H48.5053Z" fill="#EDD899"/>
<path d="M52.0866 20.2482C52.4582 20.2482 52.7285 20.3288 52.9 20.4873C53.0715 20.6485 53.1573 20.8668 53.1573 21.1475C53.1573 21.2748 53.1391 21.3943 53.1001 21.5087C53.0637 21.623 52.9988 21.7244 52.913 21.8154C52.8247 21.9063 52.7103 21.9765 52.5674 22.0285C52.4244 22.0804 52.2477 22.1038 52.0372 22.1038H51.7747V23.1304H51.164V20.2482H52.0866ZM51.7747 20.7498V21.6049H51.9774C52.0944 21.6049 52.1931 21.5893 52.2763 21.5607C52.3595 21.5321 52.4244 21.4853 52.4712 21.4203C52.518 21.3554 52.5388 21.2722 52.5388 21.1708C52.5388 21.0279 52.4998 20.9213 52.4218 20.8538C52.3439 20.7862 52.2217 20.7498 52.0554 20.7498H51.7747Z" fill="#EDD899"/>
<path d="M55.7561 20.9265V23.1304H55.2961L55.2156 22.8471H55.1844C55.1376 22.9225 55.0804 22.9848 55.0077 23.0316C54.9375 23.0784 54.8569 23.1148 54.7712 23.1356C54.6854 23.1564 54.5971 23.1694 54.5035 23.1694C54.3476 23.1694 54.2098 23.1408 54.0929 23.0836C53.9733 23.0264 53.8824 22.9407 53.8174 22.8211C53.7524 22.7016 53.7212 22.5482 53.7212 22.3611V20.9239H54.3216V22.213C54.3216 22.3689 54.3502 22.4885 54.4073 22.569C54.4645 22.6496 54.5529 22.6912 54.6776 22.6912C54.8024 22.6912 54.8985 22.6626 54.9661 22.6054C55.0337 22.5482 55.083 22.4677 55.1116 22.3585C55.1402 22.252 55.1532 22.1194 55.1532 21.9635V20.9265H55.7561ZM55.5976 20.0793C55.5586 20.1157 55.5093 20.1625 55.4495 20.217C55.3871 20.2716 55.3195 20.3262 55.2494 20.386C55.1792 20.4457 55.109 20.5003 55.0389 20.5523C54.9713 20.6043 54.9089 20.6485 54.8595 20.6822H54.4593V20.6303C54.5035 20.5783 54.5529 20.5185 54.61 20.4509C54.6672 20.3834 54.7244 20.3106 54.7816 20.2378C54.8387 20.1651 54.8855 20.0975 54.9219 20.0377H55.595V20.0793H55.5976Z" fill="#EDD899"/>
<path d="M57.0686 20.7784C57.0686 20.8616 57.066 20.9447 57.0608 21.0253C57.0556 21.1059 57.0504 21.1682 57.0452 21.215H57.0686C57.1284 21.124 57.2063 21.0461 57.3077 20.9837C57.4064 20.9213 57.5364 20.8875 57.6949 20.8875C57.9418 20.8875 58.1419 20.9837 58.2953 21.176C58.4486 21.3683 58.5266 21.6516 58.5266 22.0258C58.5266 22.2753 58.4902 22.4859 58.42 22.6574C58.3498 22.8289 58.2485 22.9562 58.1237 23.042C57.9964 23.1278 57.8483 23.172 57.6793 23.172C57.5104 23.172 57.3909 23.1434 57.2973 23.0862C57.2037 23.029 57.1284 22.964 57.0686 22.8913H57.027L56.9257 23.133H56.4657V20.0637H57.066V20.7784H57.0686ZM57.5 21.3657C57.3961 21.3657 57.3129 21.3865 57.2505 21.4307C57.1881 21.4749 57.144 21.5399 57.1154 21.6256C57.0868 21.714 57.0712 21.8231 57.0686 21.9557V22.0207C57.0686 22.2338 57.0998 22.3975 57.1648 22.5118C57.2271 22.6262 57.3441 22.6834 57.5104 22.6834C57.6351 22.6834 57.7313 22.6262 57.8041 22.5118C57.8768 22.3975 57.9132 22.2338 57.9132 22.0181C57.9132 21.8023 57.8768 21.6412 57.8015 21.5321C57.7261 21.4229 57.6274 21.3683 57.5 21.3683V21.3657Z" fill="#EDD899"/>
<path d="M59.7038 23.1304H59.1035V20.0611H59.7038V23.1304Z" fill="#EDD899"/>
<path d="M60.7174 20.0637C60.8058 20.0637 60.8838 20.0845 60.9487 20.1261C61.0137 20.1677 61.0449 20.2456 61.0449 20.3574C61.0449 20.4691 61.0137 20.5445 60.9487 20.5887C60.8838 20.6329 60.8084 20.6536 60.7174 20.6536C60.6265 20.6536 60.5485 20.6329 60.4861 20.5887C60.4238 20.5445 60.39 20.4691 60.39 20.3574C60.39 20.2456 60.4212 20.1677 60.4861 20.1261C60.5485 20.0845 60.6265 20.0637 60.7174 20.0637ZM61.0163 20.9265V23.1304H60.416V20.9265H61.0163Z" fill="#EDD899"/>
<path d="M62.6224 23.172C62.4041 23.172 62.2195 23.133 62.0662 23.0524C61.9129 22.9718 61.7959 22.8497 61.7154 22.6834C61.6348 22.517 61.5932 22.3039 61.5932 22.0415C61.5932 21.779 61.64 21.5529 61.731 21.3839C61.8219 21.215 61.9493 21.0903 62.113 21.0097C62.2767 20.9291 62.4638 20.8876 62.6769 20.8876C62.8277 20.8876 62.9576 20.9031 63.0694 20.9317C63.1811 20.9603 63.2799 20.9967 63.3631 21.0357L63.1863 21.5009C63.0928 21.4645 63.0044 21.4333 62.9212 21.4073C62.8381 21.3839 62.7575 21.3709 62.6769 21.3709C62.573 21.3709 62.4846 21.3969 62.4145 21.4463C62.3443 21.4957 62.2923 21.5711 62.2585 21.6672C62.2247 21.766 62.2092 21.8881 62.2092 22.0363C62.2092 22.1844 62.2273 22.3013 62.2637 22.3975C62.3001 22.4937 62.3521 22.5638 62.4223 22.6106C62.4924 22.6574 62.5782 22.6808 62.6769 22.6808C62.8043 22.6808 62.916 22.6652 63.0122 22.6314C63.1084 22.5976 63.2045 22.5508 63.2955 22.4911V23.003C63.2045 23.0628 63.1084 23.1044 63.007 23.1304C62.9057 23.1564 62.7783 23.1694 62.625 23.1694L62.6224 23.172Z" fill="#EDD899"/>
<path d="M64.7872 20.8823C65.0835 20.8823 65.3096 20.9473 65.4681 21.0747C65.6267 21.202 65.7046 21.3995 65.7046 21.662V23.1304H65.2836L65.1667 22.8315H65.1511C65.0887 22.9095 65.0263 22.9744 64.9588 23.0264C64.8938 23.0784 64.8184 23.1148 64.7327 23.1382C64.6469 23.1616 64.5429 23.172 64.4208 23.172C64.2986 23.172 64.1739 23.146 64.0725 23.0966C63.9686 23.0472 63.888 22.9692 63.8282 22.8653C63.7685 22.7613 63.7399 22.6314 63.7399 22.4729C63.7399 22.239 63.8231 22.0648 63.9868 21.9531C64.1505 21.8413 64.3974 21.779 64.7249 21.7686L65.1095 21.7556V21.6594C65.1095 21.5425 65.0783 21.4593 65.0185 21.4047C64.9588 21.3501 64.873 21.3242 64.7664 21.3242C64.6599 21.3242 64.5533 21.3398 64.452 21.3709C64.3506 21.4021 64.2467 21.4411 64.1453 21.4853L63.9478 21.0773C64.0673 21.0149 64.1973 20.9681 64.3402 20.9317C64.4832 20.8979 64.6339 20.8798 64.7898 20.8798L64.7872 20.8823ZM64.873 22.1168C64.6781 22.122 64.5455 22.1584 64.4702 22.2208C64.3948 22.2857 64.3584 22.3689 64.3584 22.4755C64.3584 22.5664 64.3844 22.6314 64.439 22.6704C64.4936 22.7094 64.5637 22.7301 64.6495 22.7301C64.7794 22.7301 64.8886 22.6912 64.977 22.6158C65.0653 22.5404 65.1095 22.4313 65.1095 22.2909V22.109L64.8756 22.1168H64.873Z" fill="#EDD899"/>
</svg>
