<svg width="243" height="118" viewBox="0 0 243 118" fill="none" xmlns="http://www.w3.org/2000/svg">
<g filter="url(#filter0_d_40000012_894)">
<mask id="path-1-outside-1_40000012_894" maskUnits="userSpaceOnUse" x="10.2794" y="5.98071" width="222" height="97" fill="black">
<rect fill="white" x="10.2794" y="5.98071" width="222" height="97"/>
<path d="M204.966 7.98071C213.834 7.98071 221.024 14.0933 221.024 21.6331V70.1516C221.024 70.2545 221.041 70.3566 221.076 70.4534L230.063 95.3684C230.986 97.9291 228.825 100.338 226.012 100.585C225.904 100.595 225.795 100.601 225.685 100.604C225.465 100.61 225.241 100.603 225.016 100.581C224.677 100.549 224.334 100.485 223.989 100.386L193.565 91.6311C193.487 91.6098 193.407 91.5989 193.327 91.5989H28.3371C19.4689 91.5989 12.2794 85.4863 12.2794 77.9465V21.6331C12.2794 14.0933 19.4689 7.98071 28.3371 7.98071H204.966Z"/>
</mask>
<path d="M204.966 7.98071C213.834 7.98071 221.024 14.0933 221.024 21.6331V70.1516C221.024 70.2545 221.041 70.3566 221.076 70.4534L230.063 95.3684C230.986 97.9291 228.825 100.338 226.012 100.585C225.904 100.595 225.795 100.601 225.685 100.604C225.465 100.61 225.241 100.603 225.016 100.581C224.677 100.549 224.334 100.485 223.989 100.386L193.565 91.6311C193.487 91.6098 193.407 91.5989 193.327 91.5989H28.3371C19.4689 91.5989 12.2794 85.4863 12.2794 77.9465V21.6331C12.2794 14.0933 19.4689 7.98071 28.3371 7.98071H204.966Z" fill="url(#paint0_linear_40000012_894)"/>
<path d="M221.024 70.1516H219.184V70.1523L221.024 70.1516ZM221.076 70.4534L222.807 69.8291L222.807 69.8291L221.076 70.4534ZM230.063 95.3684L231.794 94.7442L231.794 94.7441L230.063 95.3684ZM226.012 100.585L225.851 98.7523L225.851 98.7523L226.012 100.585ZM225.685 100.604L225.735 102.443L225.735 102.443L225.685 100.604ZM225.016 100.581L225.19 98.7496L225.19 98.7496L225.016 100.581ZM223.989 100.386L223.481 102.154L223.481 102.154L223.989 100.386ZM193.565 91.6311L194.073 89.8629L194.064 89.8601L194.054 89.8575L193.565 91.6311ZM204.966 7.98071V9.82071C213.109 9.82071 219.184 15.3782 219.184 21.6331H221.024H222.864C222.864 12.8085 214.559 6.14071 204.966 6.14071V7.98071ZM221.024 21.6331H219.184V70.1516H221.024H222.864V21.6331H221.024ZM221.024 70.1516L219.184 70.1523C219.184 70.4668 219.238 70.78 219.345 71.0777L221.076 70.4534L222.807 69.8291C222.845 69.9332 222.864 70.0421 222.864 70.1509L221.024 70.1516ZM221.076 70.4534L219.345 71.0777L228.332 95.9927L230.063 95.3684L231.794 94.7441L222.807 69.8291L221.076 70.4534ZM230.063 95.3684L228.332 95.9926C228.55 96.5965 228.429 97.1704 228.012 97.6824C227.569 98.2261 226.794 98.6695 225.851 98.7523L226.012 100.585L226.173 102.418C228.043 102.254 229.755 101.369 230.865 100.007C232.001 98.6121 232.499 96.701 231.794 94.7442L230.063 95.3684ZM226.012 100.585L225.851 98.7523C225.782 98.7583 225.71 98.7624 225.635 98.7644L225.685 100.604L225.735 102.443C225.879 102.439 226.025 102.431 226.173 102.418L226.012 100.585ZM225.685 100.604L225.635 98.7644C225.487 98.7684 225.339 98.7637 225.19 98.7496L225.016 100.581L224.841 102.413C225.144 102.442 225.442 102.451 225.735 102.443L225.685 100.604ZM225.016 100.581L225.19 98.7496C224.964 98.7281 224.732 98.6851 224.498 98.6177L223.989 100.386L223.481 102.154C223.935 102.285 224.391 102.37 224.842 102.413L225.016 100.581ZM223.989 100.386L224.498 98.6177L194.073 89.8629L193.565 91.6311L193.056 93.3994L223.481 102.154L223.989 100.386ZM193.565 91.6311L194.054 89.8575C193.819 89.7924 193.574 89.7589 193.327 89.7589V91.5989V93.4389C193.241 93.4389 193.156 93.4272 193.075 93.4047L193.565 91.6311ZM193.327 91.5989V89.7589H28.3371V91.5989V93.4389H193.327V91.5989ZM28.3371 91.5989V89.7589C20.1938 89.7589 14.1194 84.2014 14.1194 77.9465H12.2794H10.4394C10.4394 86.7711 18.744 93.4389 28.3371 93.4389V91.5989ZM12.2794 77.9465H14.1194V21.6331H12.2794H10.4394V77.9465H12.2794ZM12.2794 21.6331H14.1194C14.1194 15.3782 20.1938 9.82071 28.3371 9.82071V7.98071V6.14071C18.744 6.14071 10.4394 12.8085 10.4394 21.6331H12.2794ZM28.3371 7.98071V9.82071H204.966V7.98071V6.14071H28.3371V7.98071Z" fill="white" mask="url(#path-1-outside-1_40000012_894)"/>
</g>
<path d="M204.966 7.98071H28.3367C19.4685 7.98071 12.2794 14.0929 12.2794 21.6326V27.732C12.2794 27.732 33.6212 47.1176 116.89 47.1176C200.159 47.1176 221.023 27.732 221.023 27.732V21.6326C221.023 14.0929 213.834 7.98071 204.966 7.98071Z" fill="url(#paint1_linear_40000012_894)"/>
<defs>
<filter id="filter0_d_40000012_894" x="1.23978e-05" y="-0.00020504" width="242.559" height="117.184" filterUnits="userSpaceOnUse" color-interpolation-filters="sRGB">
<feFlood flood-opacity="0" result="BackgroundImageFix"/>
<feColorMatrix in="SourceAlpha" type="matrix" values="0 0 0 0 0 0 0 0 0 0 0 0 0 0 0 0 0 0 127 0" result="hardAlpha"/>
<feOffset dy="4.29858"/>
<feGaussianBlur stdDeviation="5.21971"/>
<feComposite in2="hardAlpha" operator="out"/>
<feColorMatrix type="matrix" values="0 0 0 0 0 0 0 0 0 0 0 0 0 0 0 0 0 0 0.5 0"/>
<feBlend mode="normal" in2="BackgroundImageFix" result="effect1_dropShadow_40000012_894"/>
<feBlend mode="normal" in="SourceGraphic" in2="effect1_dropShadow_40000012_894" result="shape"/>
</filter>
<linearGradient id="paint0_linear_40000012_894" x1="43.9108" y1="100.606" x2="206.408" y2="13.7848" gradientUnits="userSpaceOnUse">
<stop stop-color="#2C413F"/>
<stop offset="1" stop-color="#607775"/>
</linearGradient>
<linearGradient id="paint1_linear_40000012_894" x1="241.684" y1="70.0028" x2="-117.249" y2="-28.8659" gradientUnits="userSpaceOnUse">
<stop stop-color="#F3F3F3"/>
<stop offset="1" stop-color="#AFAFAF"/>
</linearGradient>
</defs>
</svg>
