<svg width="395" height="191" viewBox="0 0 395 191" fill="none" xmlns="http://www.w3.org/2000/svg">
<g filter="url(#filter0_d_40000012_878)">
<mask id="path-1-outside-1_40000012_878" maskUnits="userSpaceOnUse" x="17" y="10" width="362" height="157" fill="black">
<rect fill="white" x="17" y="10" width="362" height="157"/>
<path d="M333.777 13C348.219 13 359.926 22.9534 359.926 35.2314V114.24C359.926 114.408 359.955 114.574 360.012 114.731L374.646 155.305C374.704 155.465 374.756 155.625 374.799 155.785C375.361 157.858 374.704 159.839 373.325 161.316C373.272 161.373 373.217 161.429 373.162 161.484C371.728 162.922 369.591 163.843 367.246 163.835C367.151 163.835 367.056 163.831 366.961 163.828C366.79 163.822 366.619 163.811 366.446 163.795C366.348 163.786 366.249 163.776 366.15 163.764C365.966 163.74 365.781 163.711 365.595 163.676C365.316 163.623 365.036 163.556 364.756 163.476L315.225 149.225C315.094 149.187 314.96 149.168 314.824 149.168H46.1484C31.7073 149.168 20.0002 139.214 20 126.937V35.2314C20 22.9534 31.7072 13 46.1484 13H333.777Z"/>
</mask>
<path d="M333.777 13C348.219 13 359.926 22.9534 359.926 35.2314V114.24C359.926 114.408 359.955 114.574 360.012 114.731L374.646 155.305C374.704 155.465 374.756 155.625 374.799 155.785C375.361 157.858 374.704 159.839 373.325 161.316C373.272 161.373 373.217 161.429 373.162 161.484C371.728 162.922 369.591 163.843 367.246 163.835C367.151 163.835 367.056 163.831 366.961 163.828C366.79 163.822 366.619 163.811 366.446 163.795C366.348 163.786 366.249 163.776 366.15 163.764C365.966 163.74 365.781 163.711 365.595 163.676C365.316 163.623 365.036 163.556 364.756 163.476L315.225 149.225C315.094 149.187 314.96 149.168 314.824 149.168H46.1484C31.7073 149.168 20.0002 139.214 20 126.937V35.2314C20 22.9534 31.7072 13 46.1484 13H333.777Z" fill="url(#paint0_linear_40000012_878)"/>
<path d="M359.926 35.2314H362.926V35.2314L359.926 35.2314ZM359.926 114.24H356.926V114.241L359.926 114.24ZM360.012 114.731L357.19 115.749L357.19 115.749L360.012 114.731ZM374.646 155.305L371.824 156.323V156.323L374.646 155.305ZM374.799 155.785L371.903 156.569L371.903 156.57L374.799 155.785ZM373.325 161.316L375.518 163.363V163.363L373.325 161.316ZM373.162 161.484L375.287 163.603V163.603L373.162 161.484ZM367.246 163.835L367.256 160.835H367.256L367.246 163.835ZM366.961 163.828L366.855 166.826L366.855 166.826L366.961 163.828ZM366.446 163.795L366.724 160.808L366.724 160.808L366.446 163.795ZM366.15 163.764L365.774 166.74L365.774 166.74L366.15 163.764ZM365.595 163.676L366.154 160.728L366.154 160.728L365.595 163.676ZM364.756 163.476L365.585 160.593L365.585 160.593L364.756 163.476ZM315.225 149.225L316.054 146.342L316.054 146.342L315.225 149.225ZM314.824 149.168L314.825 146.168H314.824V149.168ZM20 126.937H17V126.937L20 126.937ZM20 35.2314L17 35.2314V35.2314H20ZM333.777 13V16C347.037 16 356.926 25.0483 356.926 35.2314L359.926 35.2314L362.926 35.2314C362.926 20.8584 349.4 10 333.777 10V13ZM359.926 35.2314H356.926V114.24H359.926H362.926V35.2314H359.926ZM359.926 114.24L356.926 114.241C356.926 114.755 357.015 115.265 357.19 115.749L360.012 114.731L362.834 113.714C362.895 113.882 362.926 114.06 362.926 114.239L359.926 114.24ZM360.012 114.731L357.19 115.749L371.824 156.323L374.646 155.305L377.469 154.287L362.834 113.714L360.012 114.731ZM374.646 155.305L371.824 156.323C371.858 156.415 371.884 156.497 371.903 156.569L374.799 155.785L377.694 155.001C377.628 154.754 377.551 154.516 377.469 154.287L374.646 155.305ZM374.799 155.785L371.903 156.57C372.155 157.499 371.909 158.437 371.132 159.269L373.325 161.316L375.518 163.363C377.499 161.241 378.566 158.218 377.694 155.001L374.799 155.785ZM373.325 161.316L371.132 159.269C371.113 159.29 371.085 159.318 371.038 159.366L373.162 161.484L375.287 163.603C375.349 163.539 375.431 163.456 375.518 163.363L373.325 161.316ZM373.162 161.484L371.038 159.366C370.187 160.219 368.827 160.84 367.256 160.835L367.246 163.835L367.236 166.835C370.356 166.845 373.269 165.626 375.287 163.603L373.162 161.484ZM367.246 163.835L367.256 160.835C367.215 160.835 367.164 160.833 367.067 160.83L366.961 163.828L366.855 166.826C366.948 166.83 367.088 166.834 367.236 166.835L367.246 163.835ZM366.961 163.828L367.067 160.83C366.955 160.826 366.841 160.819 366.724 160.808L366.446 163.795L366.168 166.782C366.396 166.803 366.625 166.818 366.855 166.826L366.961 163.828ZM366.446 163.795L366.724 160.808C366.63 160.799 366.573 160.793 366.526 160.787L366.15 163.764L365.774 166.74C365.925 166.759 366.066 166.772 366.168 166.782L366.446 163.795ZM366.15 163.764L366.527 160.787C366.405 160.772 366.28 160.752 366.154 160.728L365.595 163.676L365.036 166.623C365.281 166.67 365.527 166.709 365.774 166.74L366.15 163.764ZM365.595 163.676L366.154 160.728C365.968 160.693 365.778 160.648 365.585 160.593L364.756 163.476L363.926 166.359C364.294 166.464 364.664 166.553 365.036 166.623L365.595 163.676ZM364.756 163.476L365.585 160.593L316.054 146.342L315.225 149.225L314.395 152.108L363.926 166.359L364.756 163.476ZM315.225 149.225L316.054 146.342C315.657 146.227 315.243 146.168 314.825 146.168L314.824 149.168L314.824 152.168C314.676 152.168 314.532 152.147 314.395 152.108L315.225 149.225ZM314.824 149.168V146.168H46.1484V149.168V152.168H314.824V149.168ZM46.1484 149.168V146.168C32.8893 146.168 23.0002 137.12 23 126.936L20 126.937L17 126.937C17.0002 141.309 30.5254 152.168 46.1484 152.168V149.168ZM20 126.937H23V35.2314H20H17V126.937H20ZM20 35.2314L23 35.2314C23 25.0483 32.8891 16 46.1484 16V13V10C30.5253 10 17 20.8584 17 35.2314L20 35.2314ZM46.1484 13V16H333.777V13V10H46.1484V13Z" fill="white" mask="url(#path-1-outside-1_40000012_878)"/>
</g>
<path d="M333.778 13H46.1481C31.7069 13 20 22.9534 20 35.2315V45.1641C20 45.1641 54.7536 76.7325 190.352 76.7325C325.95 76.7325 359.926 45.1641 359.926 45.1641V35.2315C359.926 22.9534 348.219 13 333.778 13Z" fill="url(#paint1_linear_40000012_878)"/>
<defs>
<filter id="filter0_d_40000012_878" x="0" y="0" width="395.001" height="190.835" filterUnits="userSpaceOnUse" color-interpolation-filters="sRGB">
<feFlood flood-opacity="0" result="BackgroundImageFix"/>
<feColorMatrix in="SourceAlpha" type="matrix" values="0 0 0 0 0 0 0 0 0 0 0 0 0 0 0 0 0 0 127 0" result="hardAlpha"/>
<feOffset dy="7"/>
<feGaussianBlur stdDeviation="8.5"/>
<feComposite in2="hardAlpha" operator="out"/>
<feColorMatrix type="matrix" values="0 0 0 0 0 0 0 0 0 0 0 0 0 0 0 0 0 0 0.5 0"/>
<feBlend mode="normal" in2="BackgroundImageFix" result="effect1_dropShadow_40000012_878"/>
<feBlend mode="normal" in="SourceGraphic" in2="effect1_dropShadow_40000012_878" result="shape"/>
</filter>
<linearGradient id="paint0_linear_40000012_878" x1="71.5097" y1="163.835" x2="336.128" y2="22.4522" gradientUnits="userSpaceOnUse">
<stop stop-color="#2C413F"/>
<stop offset="1" stop-color="#607775"/>
</linearGradient>
<linearGradient id="paint1_linear_40000012_878" x1="393.57" y1="114" x2="-190.93" y2="-47" gradientUnits="userSpaceOnUse">
<stop stop-color="#F3F3F3"/>
<stop offset="1" stop-color="#AFAFAF"/>
</linearGradient>
</defs>
</svg>
