<svg width="40" height="40" viewBox="0 0 40 40" fill="none" xmlns="http://www.w3.org/2000/svg">
<rect width="40" height="40" rx="20" fill="#F0FAF5"/>
<g clip-path="url(#clip0_40000018_23265)">
<g clip-path="url(#clip1_40000018_23265)">
<path d="M30.5 26H27.5V23H26V26H23V27.5H26V30.5H27.5V27.5H30.5V26Z" fill="#086308"/>
<path d="M20 29H14V11H20V15.5C20.0011 15.8975 20.1596 16.2783 20.4406 16.5594C20.7217 16.8404 21.1025 16.9989 21.5 17H26V20H27.5V15.5C27.5027 15.4014 27.484 15.3034 27.4451 15.2128C27.4063 15.1222 27.3482 15.041 27.275 14.975L22.025 9.725C21.959 9.65175 21.8778 9.59369 21.7872 9.55485C21.6966 9.516 21.5986 9.49729 21.5 9.5H14C13.6025 9.50115 13.2217 9.65955 12.9406 9.94061C12.6596 10.2217 12.5011 10.6025 12.5 11V29C12.5011 29.3975 12.6596 29.7783 12.9406 30.0594C13.2217 30.3404 13.6025 30.4989 14 30.5H20V29ZM21.5 11.3L25.7 15.5H21.5V11.3Z" fill="#086308"/>
</g>
</g>
<defs>
<clipPath id="clip0_40000018_23265">
<rect width="24" height="24" fill="white" transform="translate(8 8)"/>
</clipPath>
<clipPath id="clip1_40000018_23265">
<rect width="24" height="24" fill="white" transform="translate(8 8)"/>
</clipPath>
</defs>
</svg>
