<svg width="32" height="32" viewBox="0 0 32 32" fill="none" xmlns="http://www.w3.org/2000/svg">
<g clip-path="url(#clip0_40000033_52294)">
<path d="M20 23L21.414 24.414L24 21.828L24 30L26 30L26 21.828L28.586 24.414L30 23L25 18L20 23Z" fill="#161A1D"/>
<path d="M18 28.0001H8V4.0001H16V10.0001C16.0015 10.5301 16.2127 11.0379 16.5875 11.4126C16.9622 11.7874 17.47 11.9986 18 12.0001H24V15.0001H26V10.0001C26.0036 9.86867 25.9786 9.73802 25.9268 9.61717C25.875 9.49633 25.7976 9.38815 25.7 9.3001L18.7 2.3001C18.612 2.20243 18.5038 2.12502 18.3829 2.07323C18.2621 2.02143 18.1314 1.99648 18 2.0001H8C7.47004 2.00163 6.96222 2.21284 6.58748 2.58758C6.21274 2.96232 6.00153 3.47014 6 4.0001V28.0001C6.00153 28.5301 6.21274 29.0379 6.58748 29.4126C6.96222 29.7874 7.47004 29.9986 8 30.0001H18V28.0001ZM18 4.4001L23.6 10.0001H18V4.4001Z" fill="#161A1D"/>
</g>
<defs>
<clipPath id="clip0_40000033_52294">
<rect width="32" height="32" fill="white"/>
</clipPath>
</defs>
</svg>
