<svg width="24" height="24" viewBox="0 0 24 24" fill="none" xmlns="http://www.w3.org/2000/svg">
<g clip-path="url(#clip0_40000005_22825)">
<path d="M15 17.25L16.0605 18.3105L18 16.371L18 22.5L19.5 22.5L19.5 16.371L21.4395 18.3105L22.5 17.25L18.75 13.5L15 17.25Z" fill="#002F2A"/>
<path d="M13.5 21H6V3H12V7.5C12.0011 7.89747 12.1596 8.27833 12.4406 8.55939C12.7217 8.84045 13.1025 8.99885 13.5 9H18V11.25H19.5V7.5C19.5027 7.40142 19.484 7.30344 19.4451 7.2128C19.4063 7.12217 19.3482 7.04103 19.275 6.975L14.025 1.725C13.959 1.65174 13.8778 1.59369 13.7872 1.55485C13.6966 1.516 13.5986 1.49729 13.5 1.5H6C5.60253 1.50115 5.22166 1.65955 4.94061 1.94061C4.65955 2.22166 4.50115 2.60253 4.5 3V21C4.50115 21.3975 4.65955 21.7783 4.94061 22.0594C5.22166 22.3404 5.60253 22.4988 6 22.5H13.5V21ZM13.5 3.3L17.7 7.5H13.5V3.3Z" fill="#002F2A"/>
</g>
<defs>
<clipPath id="clip0_40000005_22825">
<rect width="24" height="24" fill="white"/>
</clipPath>
</defs>
</svg>
