<svg width="40" height="40" viewBox="0 0 40 40" fill="none" xmlns="http://www.w3.org/2000/svg">
<rect width="40" height="40" rx="20" fill="#DDDDDD"/>
<g clip-path="url(#clip0_40000018_28591)">
<path d="M27.275 14.975L22.025 9.725C21.875 9.575 21.725 9.5 21.5 9.5H14C13.175 9.5 12.5 10.175 12.5 11V29C12.5 29.825 13.175 30.5 14 30.5H26C26.825 30.5 27.5 29.825 27.5 29V15.5C27.5 15.275 27.425 15.125 27.275 14.975ZM21.5 11.3L25.7 15.5H21.5V11.3ZM26 29H14V11H20V15.5C20 16.325 20.675 17 21.5 17H26V29Z" fill="#161A1D"/>
<path d="M24.5 24.5H15.5V26H24.5V24.5Z" fill="#161A1D"/>
<path d="M24.5 20H15.5V21.5H24.5V20Z" fill="#161A1D"/>
</g>
<defs>
<clipPath id="clip0_40000018_28591">
<rect width="24" height="24" fill="white" transform="translate(8 8)"/>
</clipPath>
</defs>
</svg>
