<svg width="40" height="40" viewBox="0 0 40 40" fill="none" xmlns="http://www.w3.org/2000/svg">
<rect width="40" height="40" rx="20" fill="#FAE5E5"/>
<g clip-path="url(#clip0_6807_438)">
<path d="M30.2502 31.6116L27.9167 29.2781L30.2502 26.9447L29.0835 25.778L26.75 28.1114L24.4165 25.778L23.2498 26.9447L25.5833 29.2781L23.2498 31.6116L24.4165 32.7783L26.75 30.4449L29.0835 32.7783L30.2502 31.6116Z" fill="#AE1C22"/>
<path d="M20 29H14V11H20V15.5C20.0011 15.8975 20.1596 16.2783 20.4406 16.5594C20.7217 16.8405 21.1025 16.9989 21.5 17H26V20H27.5V15.5C27.5027 15.4014 27.484 15.3035 27.4451 15.2128C27.4063 15.1222 27.3482 15.041 27.275 14.975L22.025 9.72501C21.959 9.65176 21.8778 9.59371 21.7872 9.55486C21.6966 9.51601 21.5986 9.4973 21.5 9.50001H14C13.6025 9.50116 13.2217 9.65957 12.9406 9.94062C12.6596 10.2217 12.5011 10.6025 12.5 11V29C12.5011 29.3975 12.6596 29.7783 12.9406 30.0594C13.2217 30.3405 13.6025 30.4989 14 30.5H20V29ZM21.5 11.3L25.7 15.5H21.5V11.3Z" fill="#AE1C22"/>
</g>
<defs>
<clipPath id="clip0_6807_438">
<rect width="24" height="24" fill="white" transform="translate(8 8)"/>
</clipPath>
</defs>
</svg>
