<svg width="29" height="28" viewBox="0 0 29 28" fill="none" xmlns="http://www.w3.org/2000/svg">
<path d="M15.2547 21.4155H8.98145V27.6492H9.74647C11.7826 27.6492 13.5363 26.5382 14.4896 24.9125C15.443 26.5382 17.1967 27.6492 19.2328 27.6492H19.9978V21.4155H15.2547ZM10.5115 26.047V22.9242H13.654C13.348 24.4915 12.0886 25.7429 10.5115 26.047ZM15.3253 22.9242H18.4678V26.047C16.8907 25.7429 15.6313 24.4915 15.3253 22.9242Z" fill="#F0ECED"/>
<path d="M28.5 4.67769H16.1419V3.59C16.1419 1.80059 14.4235 0.350342 12.3167 0.350342H4.32514C2.21837 0.350342 0.5 1.80059 0.5 3.59V19.0515C0.5 21.1216 2.4773 22.8174 4.90185 22.8174H24.0982C26.5227 22.8174 28.5 21.1333 28.5 19.0515V6.29167V4.67769ZM2.12421 4.67769V3.59C2.12421 2.70114 3.11286 1.97602 4.32514 1.97602H12.305C13.5172 1.97602 14.5059 2.70114 14.5059 3.59V4.67769H2.12421ZM26.864 6.29167V19.0515C26.864 20.2327 25.6282 21.1918 24.0982 21.1918H4.90185C3.37179 21.1918 2.13598 20.2327 2.13598 19.0515V6.29167H26.8758H26.864Z" fill="#F0ECED"/>
<path d="M19.2226 16.3626C18.0574 16.2573 17.1512 16.5029 16.5274 17.0877C15.9271 16.5146 15.0797 16.269 13.9145 16.3626C13.2554 16.4094 12.7611 16.6784 12.3256 16.9941C11.7607 16.5848 10.9956 16.3509 10.2541 16.3509C9.27727 16.3509 7.48828 17.2281 7.48828 18.6783V22.8185H21.5295L21.5648 21.3332V18.6081C21.5648 17.4737 20.2937 16.4795 19.2109 16.386L19.2226 16.3626ZM9.03011 18.7134C9.03011 18.7134 9.13603 18.4795 9.1478 18.4444C9.4185 18 10.1247 17.9766 10.6779 18.0351C11.0074 18.0701 11.4664 18.304 11.4664 18.6783V21.0993H9.01834V18.7134H9.03011ZM13.1613 21.0876V18.5847C13.1613 18.5029 13.3731 18.269 13.5026 18.1871C13.938 17.9181 15.0326 17.9298 15.4093 18.2807C15.4446 18.3157 15.5623 18.4912 15.6093 18.573V21.0876H13.1613ZM17.4572 18.5847C17.4572 18.5029 17.669 18.269 17.7985 18.1871C18.234 17.9181 19.3285 17.9298 19.7052 18.2807C19.7405 18.3157 19.8582 18.4912 19.9053 18.573V21.0876H17.4572V18.5847Z" fill="#F0ECED"/>
</svg>
