<svg width="24" height="24" viewBox="0 0 24 24" fill="none" xmlns="http://www.w3.org/2000/svg">
<path d="M12 0C18.6274 0 24 5.37258 24 12C24 18.6274 18.6274 24 12 24C5.37258 24 0 18.6274 0 12C0 5.37258 5.37258 0 12 0ZM13.2295 5.25C13.2254 5.25007 13.2219 5.25095 13.2178 5.25098V5.25C11.7725 5.25 10.6017 6.42158 10.6016 7.86621V10.1953H8.42969V12.7588H10.6016V18.6387C11.0569 18.7121 11.5248 18.75 12.001 18.75C12.4134 18.75 12.8197 18.7211 13.2168 18.666V12.7588H15.1982L15.5713 10.1953H13.2168L13.2178 8.29102C13.218 7.83632 13.5873 7.46777 14.042 7.46777H15.5723V5.25H13.2295Z" fill="white"/>
</svg>
