<svg width="33" height="33" viewBox="0 0 33 33" fill="none" xmlns="http://www.w3.org/2000/svg">
<path d="M20.3447 0.859375C21.4462 -0.281057 23.2784 -0.282958 24.3818 0.855469L25.4834 1.99219C26.5439 3.08633 26.5273 4.82371 25.4463 5.89746L15.7148 15.5654L15.6426 15.6377L15.1123 16.165L15.6406 16.6924L15.7129 16.7646L16.248 17.2969L16.7793 16.7705L16.8525 16.6982L26.5635 7.01953C27.6464 5.9422 29.3965 5.92541 30.498 6.98242L31.6309 8.06934C32.7771 9.16903 32.7751 10.9969 31.627 12.0947L29.7451 13.8945C29.309 14.3117 28.7495 14.5762 28.1494 14.6504L21.0889 15.5283C20.4645 15.6062 19.8869 15.8898 19.4434 16.333L17.9707 17.8086L17.3652 18.4062L25.4443 26.4316C26.5254 27.5054 26.542 29.2428 25.4814 30.3369L24.3799 31.4736C23.2765 32.6122 21.4444 32.6111 20.3447 31.4707L18.5293 29.5898C18.1118 29.1578 17.8451 28.6011 17.7705 28.0059L16.8877 20.9775C16.8197 20.4412 16.5963 19.9376 16.2471 19.5264C15.8965 19.9384 15.6717 20.445 15.6035 20.9854L14.7217 28.0107C14.6471 28.6076 14.381 29.1638 13.9619 29.5977L12.1533 31.4707C11.05 32.6148 9.21457 32.6168 8.10742 31.4746L7.01465 30.3467C5.95265 29.2508 5.96933 27.5082 7.05176 26.4326L15.1309 18.4072L14.5205 17.8047L13.9951 17.2783L5.92578 25.3193C4.8466 26.3949 3.10066 26.4116 2.00098 25.3564L0.858398 24.2607C-0.285981 23.1629 -0.283965 21.3383 0.862305 20.2441L2.75195 18.4395C3.18623 18.0241 3.74547 17.7587 4.34375 17.6846L11.4082 16.8057C11.9505 16.7377 12.4581 16.5143 12.8721 16.165C12.4589 15.8147 11.9495 15.5915 11.4062 15.5234L4.3418 14.6445C3.74349 14.5704 3.18428 14.3051 2.75 13.8896L0.860352 12.084C-0.284068 10.9898 -0.287974 9.16621 0.856445 8.06836L1.99902 6.97266C3.09868 5.91756 4.84466 5.93428 5.92383 7.00977L13.9951 15.0527L14.5967 14.4502L16.082 12.9854C16.5275 12.5458 16.8114 11.971 16.8896 11.3516L17.7734 4.32324C17.848 3.72801 18.1138 3.17132 18.5312 2.73926L20.3447 0.859375Z" fill="white" fill-opacity="0.5"/>
<path d="M17.9692 14.5239L19.4435 16.0037C19.8834 16.4451 20.4612 16.7288 21.0818 16.8049L28.1496 17.6839C28.7479 17.7581 29.3052 18.0233 29.7395 18.4368L31.6351 20.2468C32.7795 21.3391 32.7814 23.1602 31.6388 24.2543L30.4888 25.3577C29.391 26.4111 27.6483 26.3944 26.5709 25.3207L16.8508 15.6347L16.7781 15.5624L7.04312 5.89309C5.96394 4.8212 5.94716 3.08725 7.00584 1.99496L8.11485 0.850747C9.2164 -0.286052 11.0449 -0.282343 12.1427 0.854455L13.9618 2.74046C14.3793 3.17256 14.644 3.72705 14.7186 4.32234L15.602 11.3545C15.6803 11.9721 15.9636 12.547 16.4072 12.9846L17.8946 14.4515" fill="white"/>
</svg>
