<svg width="24" height="24" viewBox="0 0 24 24" fill="none" xmlns="http://www.w3.org/2000/svg">
<path d="M17.2496 15.3863C17.2496 11.9249 14.4146 11.5305 12.1368 11.2141C9.65427 10.8684 8.24959 10.5691 8.24959 8.43157C8.24959 6.63682 10.1299 6 11.7399 6C12.5424 5.97404 13.3396 6.13922 14.0656 6.4819C14.7917 6.82458 15.426 7.33495 15.916 7.97093L17.0832 7.02907C16.5583 6.35423 15.9053 5.78977 15.1616 5.36812C14.4179 4.94648 13.5982 4.67597 12.7496 4.57215V2.25H11.2496V4.5165C8.53819 4.6809 6.74959 6.2115 6.74959 8.4315C6.74959 11.979 9.62209 12.3785 11.9302 12.699C14.3696 13.0386 15.7496 13.3308 15.7496 15.3863C15.7496 17.6606 13.4001 18 11.9996 18C9.42754 18 8.34094 17.2771 7.33317 16.0291L6.16602 16.9709C6.76061 17.7544 7.52964 18.3885 8.41207 18.823C9.2945 19.2574 10.266 19.4802 11.2496 19.4736V21.75H12.7496V19.4663C15.5438 19.2382 17.2496 17.7209 17.2496 15.3863Z" fill="#161A1D"/>
</svg>
