<svg width="21" height="21" viewBox="0 0 21 21" fill="none" xmlns="http://www.w3.org/2000/svg">
<g clip-path="url(#clip0_40000049_32600)">
<path d="M9 14.5605L5.25 10.8098L6.30975 9.75L9 12.4395L14.6887 6.75L15.75 7.81125L9 14.5605Z" fill="#086308"/>
<path d="M10.5 0C8.4233 0 6.39323 0.615814 4.66652 1.76957C2.9398 2.92332 1.59399 4.5632 0.79927 6.48182C0.00454947 8.40045 -0.203386 10.5116 0.201759 12.5484C0.606904 14.5852 1.60693 16.4562 3.07538 17.9246C4.54383 19.3931 6.41476 20.3931 8.45156 20.7982C10.4884 21.2034 12.5996 20.9955 14.5182 20.2007C16.4368 19.406 18.0767 18.0602 19.2304 16.3335C20.3842 14.6068 21 12.5767 21 10.5C21 7.71523 19.8938 5.04451 17.9246 3.07538C15.9555 1.10625 13.2848 0 10.5 0ZM10.5 19.5C8.71997 19.5 6.97992 18.9722 5.49987 17.9832C4.01983 16.9943 2.86628 15.5887 2.18509 13.9442C1.5039 12.2996 1.32567 10.49 1.67294 8.74419C2.0202 6.99836 2.87737 5.39471 4.13604 4.13604C5.39472 2.87737 6.99836 2.0202 8.74419 1.67293C10.49 1.32567 12.2996 1.5039 13.9442 2.18508C15.5887 2.86627 16.9943 4.01983 17.9832 5.49987C18.9722 6.97991 19.5 8.71997 19.5 10.5C19.5 12.8869 18.5518 15.1761 16.864 16.864C15.1761 18.5518 12.887 19.5 10.5 19.5Z" fill="#086308"/>
</g>
<defs>
<clipPath id="clip0_40000049_32600">
<rect width="21" height="21" fill="white"/>
</clipPath>
</defs>
</svg>
