<svg width="40" height="40" viewBox="0 0 40 40" fill="none" xmlns="http://www.w3.org/2000/svg">
<mask id="mask0_40000016_7312" style="mask-type:alpha" maskUnits="userSpaceOnUse" x="0" y="0" width="40" height="40">
<rect width="40" height="40" fill="#D9D9D9"/>
</mask>
<g mask="url(#mask0_40000016_7312)">
<path d="M20.0966 29.6796C18.8444 29.6796 17.6985 29.3889 16.6591 28.8076C15.6196 28.2264 14.7814 27.4327 14.1445 26.4263C13.9887 26.1807 13.9817 25.9324 14.1237 25.6813C14.2659 25.4302 14.4875 25.3046 14.7887 25.3046H25.4041C25.6777 25.3046 25.8924 25.4302 26.0482 25.6813C26.2044 25.9324 26.2044 26.1807 26.0482 26.4263C25.4221 27.4327 24.5867 28.2264 23.542 28.8076C22.497 29.3889 21.3485 29.6796 20.0966 29.6796ZM16.0899 22.3075C15.6135 22.3075 15.2087 22.1437 14.8753 21.8159C14.542 21.4878 14.3753 21.0856 14.3753 20.6092C14.3753 20.1325 14.542 19.7302 14.8753 19.4021C15.2087 19.0744 15.6135 18.9105 16.0899 18.9105C16.5666 18.9105 16.9689 19.0744 17.297 19.4021C17.6248 19.7302 17.7887 20.1325 17.7887 20.6092C17.7887 21.0856 17.6248 21.4878 17.297 21.8159C16.9689 22.1437 16.5666 22.3075 16.0899 22.3075ZM24.1028 22.3075C23.6264 22.3075 23.2242 22.1437 22.8962 21.8159C22.5681 21.4878 22.4041 21.0856 22.4041 20.6092C22.4041 20.1325 22.5681 19.7302 22.8962 19.4021C23.2242 19.0744 23.6264 18.9105 24.1028 18.9105C24.5792 18.9105 24.9814 19.0744 25.3095 19.4021C25.6375 19.7302 25.8016 20.1325 25.8016 20.6092C25.8016 21.0856 25.6375 21.4878 25.3095 21.8159C24.9814 22.1437 24.5792 22.3075 24.1028 22.3075ZM20.0966 35.8334C18.1413 35.8334 16.3127 35.4642 14.6107 34.7259C12.9091 33.9876 11.4246 32.9849 10.1574 31.718C8.89046 30.4507 7.88783 28.9663 7.14949 27.2646C6.41116 25.5627 6.04199 23.7341 6.04199 21.7788C6.04199 20.9113 6.11408 20.0663 6.25824 19.2438C6.40269 18.421 6.62769 17.623 6.93324 16.8496L9.40116 17.3046C9.0956 17.9991 8.87338 18.7144 8.73449 19.4505C8.5956 20.1866 8.52616 20.9574 8.52616 21.763C8.52616 24.9916 9.64741 27.7271 11.8899 29.9696C14.1324 32.2121 16.868 33.3334 20.0966 33.3334C23.3252 33.3334 26.0607 32.2121 28.3032 29.9696C30.5457 27.7271 31.667 24.9916 31.667 21.763C31.667 21.2757 31.6339 20.7955 31.5678 20.3221C31.5014 19.8488 31.4159 19.3824 31.3112 18.923C29.1253 18.7157 27.1088 18.0945 25.2616 17.0592C23.4144 16.0239 21.8369 14.672 20.5291 13.0034L22.7245 11.7275C23.6775 12.8728 24.786 13.828 26.0499 14.593C27.3138 15.358 28.6925 15.8944 30.1862 16.2021C29.5345 15.0013 28.6937 13.943 27.6637 13.0271C26.6339 12.1116 25.462 11.4102 24.1478 10.923L26.7824 9.38463C29.0024 10.5835 30.7881 12.2727 32.1395 14.4521C33.4912 16.6316 34.167 19.0738 34.167 21.7788C34.167 23.7341 33.7978 25.5627 33.0595 27.2646C32.3212 28.9663 31.3185 30.4507 30.0516 31.718C28.7844 32.9849 27.2971 33.9876 25.5899 34.7259C23.8827 35.4642 22.0516 35.8334 20.0966 35.8334ZM8.76658 15.1605L25.4299 8.89422C24.5302 8.00116 23.5019 7.32977 22.3449 6.88005C21.1877 6.43005 19.967 6.20505 18.6828 6.20505C16.1403 6.20505 13.9305 7.05713 12.0532 8.7613C10.176 10.4655 9.08046 12.5985 8.76658 15.1605ZM6.72491 18.6217C6.5838 18.1623 6.47213 17.7024 6.38991 17.2421C6.30769 16.7816 6.26658 16.3045 6.26658 15.8109C6.26658 13.422 6.9081 11.2703 8.19116 9.35588C9.47421 7.44144 11.1244 5.98741 13.1416 4.9938C13.0966 4.90408 13.0698 4.81588 13.0612 4.72922C13.0528 4.64283 13.0487 4.54616 13.0487 4.43921C13.0487 4.03116 13.187 3.6888 13.4637 3.41213C13.7403 3.13547 14.0827 2.99713 14.4907 2.99713C14.8263 2.99713 15.1196 3.09477 15.3707 3.29005C15.6216 3.4856 15.7919 3.73408 15.8816 4.03546C16.3432 3.92852 16.8032 3.84672 17.2616 3.79005C17.7199 3.73366 18.1937 3.70546 18.6828 3.70546C20.4906 3.70546 22.2053 4.06921 23.827 4.79671C25.4489 5.52421 26.856 6.56324 28.0482 7.9138L32.4716 6.25963C32.7985 6.13574 33.1152 6.14699 33.4216 6.29338C33.7282 6.43977 33.9435 6.67644 34.0674 7.00338C34.1916 7.33033 34.1846 7.64713 34.0466 7.9538C33.9088 8.26019 33.6764 8.47547 33.3495 8.59963L6.72491 18.6217Z" fill="black"/>
</g>
</svg>
