<svg width="40" height="40" viewBox="0 0 40 40" fill="none" xmlns="http://www.w3.org/2000/svg">
<mask id="mask0_40000016_7343" style="mask-type:alpha" maskUnits="userSpaceOnUse" x="0" y="0" width="40" height="40">
<rect width="40" height="40" fill="#D9D9D9"/>
</mask>
<g mask="url(#mask0_40000016_7343)">
<path d="M15.0003 23.75C14.417 23.75 13.9239 23.5486 13.5212 23.1459C13.1184 22.7431 12.917 22.25 12.917 21.6667C12.917 21.0834 13.1184 20.5903 13.5212 20.1875C13.9239 19.7847 14.417 19.5834 15.0003 19.5834C15.5837 19.5834 16.0767 19.7847 16.4795 20.1875C16.8823 20.5903 17.0837 21.0834 17.0837 21.6667C17.0837 22.25 16.8823 22.7431 16.4795 23.1459C16.0767 23.5486 15.5837 23.75 15.0003 23.75ZM25.0003 23.75C24.417 23.75 23.9239 23.5486 23.5212 23.1459C23.1184 22.7431 22.917 22.25 22.917 21.6667C22.917 21.0834 23.1184 20.5903 23.5212 20.1875C23.9239 19.7847 24.417 19.5834 25.0003 19.5834C25.5837 19.5834 26.0767 19.7847 26.4795 20.1875C26.8823 20.5903 27.0837 21.0834 27.0837 21.6667C27.0837 22.25 26.8823 22.7431 26.4795 23.1459C26.0767 23.5486 25.5837 23.75 25.0003 23.75ZM20.0003 33.3334C23.7225 33.3334 26.8753 32.0417 29.4587 29.4584C32.042 26.875 33.3337 23.7222 33.3337 20C33.3337 19.3334 33.292 18.6875 33.2087 18.0625C33.1253 17.4375 32.9725 16.8334 32.7503 16.25C32.167 16.3889 31.5837 16.4931 31.0003 16.5625C30.417 16.632 29.8059 16.6667 29.167 16.6667C26.6392 16.6667 24.2503 16.125 22.0003 15.0417C19.7503 13.9584 17.8337 12.4445 16.2503 10.5C15.3614 12.6667 14.0906 14.5486 12.4378 16.1459C10.785 17.7431 8.86144 18.9445 6.66699 19.75V20C6.66699 23.7222 7.95866 26.875 10.542 29.4584C13.1253 32.0417 16.2781 33.3334 20.0003 33.3334ZM20.0032 35.8334C17.8132 35.8334 15.7548 35.4178 13.8278 34.5867C11.9009 33.7556 10.2248 32.6277 8.79949 31.2029C7.37421 29.7782 6.24574 28.1028 5.41408 26.1767C4.58269 24.2506 4.16699 22.1927 4.16699 20.0029C4.16699 17.8129 4.58255 15.7545 5.41366 13.8275C6.24477 11.9006 7.37269 10.2245 8.79741 8.79919C10.2221 7.37391 11.8975 6.24544 13.8237 5.41377C15.7498 4.58238 17.8077 4.16669 19.9974 4.16669C22.1874 4.16669 24.2459 4.58224 26.1728 5.41335C28.0998 6.24446 29.7759 7.37238 31.2012 8.7971C32.6264 10.2218 33.7549 11.8972 34.5866 13.8234C35.418 15.7495 35.8337 17.8074 35.8337 19.9971C35.8337 22.1871 35.4181 24.2456 34.587 26.1725C33.7559 28.0995 32.628 29.7756 31.2032 31.2009C29.7785 32.6261 28.1031 33.7546 26.177 34.5863C24.2509 35.4177 22.193 35.8334 20.0032 35.8334ZM16.9649 7.03544C18.2277 9.36433 19.9794 11.1352 22.2199 12.3479C24.4602 13.5604 26.7759 14.1667 29.167 14.1667C29.62 14.1667 30.0619 14.1432 30.4924 14.0963C30.923 14.0493 31.3594 13.982 31.8016 13.8942C30.6882 11.6828 29.0756 9.9253 26.9637 8.62169C24.8514 7.31835 22.5303 6.66669 20.0003 6.66669C19.4406 6.66669 18.9187 6.69822 18.4345 6.76127C17.9506 6.82433 17.4607 6.91571 16.9649 7.03544ZM7.13491 16.8175C8.7013 16.0334 10.1885 14.8875 11.5966 13.38C13.0046 11.8725 13.9138 10.0653 14.3241 7.95835C12.5013 8.7853 10.9607 9.97391 9.70241 11.5242C8.4438 13.0745 7.58796 14.8389 7.13491 16.8175Z" fill="black"/>
<path d="M17.1715 30.2027C18.0275 30.7342 18.9711 31 20.0023 31C21.0333 31 21.9791 30.7342 22.8397 30.2027C23.7 29.6714 24.388 28.9457 24.9036 28.0255C25.0321 27.801 25.0321 27.574 24.9036 27.3444C24.7753 27.1148 24.5984 27 24.3731 27H15.6312C15.3832 27 15.2007 27.1148 15.0836 27.3444C14.9667 27.574 14.9724 27.801 15.1007 28.0255C15.6253 28.9457 16.3155 29.6714 17.1715 30.2027Z" fill="black"/>
</g>
</svg>
