<svg width="32" height="32" viewBox="0 0 32 32" fill="none" xmlns="http://www.w3.org/2000/svg">
<g clip-path="url(#clip0_40000059_11311)">
<path d="M16 2.5C19.5804 2.5 23.0142 3.92236 25.5459 6.4541C28.0776 8.98584 29.5 12.4196 29.5 16C29.5 18.67 28.708 21.2799 27.2246 23.5C25.7412 25.7201 23.6328 27.4509 21.166 28.4727C18.6993 29.4943 15.9849 29.7611 13.3662 29.2402C10.7475 28.7193 8.34208 27.4339 6.4541 25.5459C4.56613 23.6579 3.28068 21.2525 2.75977 18.6338C2.23888 16.0151 2.50566 13.3007 3.52734 10.834C4.54913 8.36718 6.27994 6.25879 8.5 4.77539C10.7201 3.292 13.33 2.5 16 2.5ZM20.7832 4.45117C18.4993 3.50523 15.9861 3.25798 13.5615 3.74023C11.1368 4.22255 8.90929 5.41298 7.16113 7.16113C5.41298 8.90929 4.22255 11.1368 3.74023 13.5615C3.25798 15.9861 3.50523 18.4993 4.45117 20.7832C5.39727 23.0673 7.00005 25.02 9.05566 26.3936C11.1112 27.7669 13.5278 28.5 16 28.5C19.3152 28.5 22.4947 27.1831 24.8389 24.8389C27.1831 22.4947 28.5 19.3152 28.5 16C28.5 13.5278 27.7669 11.1112 26.3936 9.05566C25.02 7.00005 23.0673 5.39727 20.7832 4.45117ZM16 22.5C16.2652 22.5 16.5195 22.6054 16.707 22.793C16.8946 22.9805 17 23.2348 17 23.5C17 23.6978 16.9409 23.8912 16.8311 24.0557C16.7212 24.22 16.5654 24.3482 16.3828 24.4238C16.2001 24.4995 15.9987 24.5191 15.8047 24.4805C15.6108 24.4418 15.4328 24.3468 15.293 24.207C15.1532 24.0672 15.0582 23.8892 15.0195 23.6953C14.9809 23.5013 15.0005 23.2999 15.0762 23.1172C15.1518 22.9346 15.28 22.7788 15.4443 22.6689C15.6088 22.5591 15.8022 22.5 16 22.5ZM16.5 8.5V18.5H15.5V8.5H16.5Z" stroke="black"/>
</g>
<defs>
<clipPath id="clip0_40000059_11311">
<rect width="32" height="32" fill="white"/>
</clipPath>
</defs>
</svg>
