<svg width="22" height="22" viewBox="0 0 22 22" fill="none" xmlns="http://www.w3.org/2000/svg">
<path d="M11 0C17.0751 0 22 4.92487 22 11C22 17.0751 17.0751 22 11 22C4.92487 22 0 17.0751 0 11C0 4.92487 4.92487 0 11 0ZM11 1.60938C5.81391 1.60938 1.60938 5.81391 1.60938 11C1.60938 16.1861 5.81391 20.3906 11 20.3906C16.1861 20.3906 20.3906 16.1861 20.3906 11C20.3906 5.81391 16.1861 1.60938 11 1.60938ZM16.4072 6.59766L12.1377 10.8662L16.4062 15.1348L15.2686 16.2725L11 12.0049L6.73145 16.2725L5.59277 15.1338L9.86133 10.8662L5.59277 6.59766L6.73145 5.45996L10.999 9.72754L15.2686 5.45898L16.4072 6.59766Z" fill="black"/>
</svg>
