<svg width="40" height="40" viewBox="0 0 40 40" fill="none" xmlns="http://www.w3.org/2000/svg">
<mask id="mask0_40000016_7282" style="mask-type:alpha" maskUnits="userSpaceOnUse" x="0" y="0" width="40" height="40">
<rect width="40" height="40" fill="#D9D9D9"/>
</mask>
<g mask="url(#mask0_40000016_7282)">
<path d="M24.0734 19.3271C23.5626 19.3271 23.13 19.1507 22.7755 18.7979C22.4208 18.4454 22.2434 18.0139 22.2434 17.5033C22.2434 16.9925 22.4197 16.5597 22.7722 16.205C23.1247 15.8503 23.5563 15.6729 24.0672 15.6729C24.5777 15.6729 25.0104 15.8493 25.3651 16.2021C25.7198 16.5546 25.8972 16.9861 25.8972 17.4967C25.8972 18.0075 25.7208 18.4403 25.368 18.795C25.0155 19.1497 24.584 19.3271 24.0734 19.3271ZM15.9322 19.3271C15.4216 19.3271 14.989 19.1507 14.6343 18.7979C14.2795 18.4454 14.1022 18.0139 14.1022 17.5033C14.1022 16.9925 14.2786 16.5597 14.6313 16.205C14.9838 15.8503 15.4154 15.6729 15.9259 15.6729C16.4368 15.6729 16.8694 15.8493 17.2238 16.2021C17.5786 16.5546 17.7559 16.9861 17.7559 17.4967C17.7559 18.0075 17.5797 18.4403 17.2272 18.795C16.8747 19.1497 16.443 19.3271 15.9322 19.3271ZM19.9997 27.6921C18.4933 27.6921 17.1226 27.2953 15.8876 26.5017C14.6526 25.7078 13.705 24.6517 13.0447 23.3333H26.9547C26.2944 24.6517 25.3468 25.7078 24.1118 26.5017C22.8768 27.2953 21.5061 27.6921 19.9997 27.6921ZM20.0005 34.1667C18.0341 34.1667 16.192 33.7949 14.4743 33.0512C12.7562 32.3076 11.2583 31.2969 9.98051 30.0192C8.70273 28.7414 7.69204 27.2439 6.94842 25.5267C6.20481 23.8092 5.83301 21.9672 5.83301 20.0008C5.83301 18.0344 6.20481 16.1924 6.94842 14.4746C7.69204 12.7565 8.70273 11.2586 9.98051 9.98083C11.2583 8.70305 12.7558 7.69236 14.473 6.94875C16.1905 6.20513 18.0325 5.83333 19.9988 5.83333C21.9652 5.83333 23.8073 6.20513 25.5251 6.94875C27.2431 7.69236 28.7411 8.70305 30.0188 9.98083C31.2966 11.2586 32.3073 12.7561 33.0509 14.4733C33.7945 16.1908 34.1663 18.0328 34.1663 19.9992C34.1663 21.9656 33.7945 23.8076 33.0509 25.5254C32.3073 27.2435 31.2966 28.7414 30.0188 30.0192C28.7411 31.2969 27.2436 32.3076 25.5263 33.0512C23.8088 33.7949 21.9669 34.1667 20.0005 34.1667ZM19.9997 31.6667C23.2219 31.6667 25.9719 30.5278 28.2497 28.25C30.5275 25.9722 31.6663 23.2222 31.6663 20C31.6663 16.7778 30.5275 14.0278 28.2497 11.75C25.9719 9.47222 23.2219 8.33333 19.9997 8.33333C19.7652 8.33333 19.5309 8.33861 19.2968 8.34916C19.0623 8.36 18.8351 8.39319 18.6151 8.44875C18.4912 8.6368 18.4122 8.81736 18.378 8.99041C18.3438 9.16347 18.3268 9.36111 18.3268 9.58333C18.3268 10.2308 18.5548 10.7826 19.0109 11.2387C19.467 11.6949 20.0205 11.9229 20.6713 11.9229C20.95 11.9229 21.1855 11.8812 21.378 11.7979C21.5702 11.7146 21.7775 11.6729 21.9997 11.6729C22.2597 11.6729 22.4763 11.7726 22.6497 11.9721C22.8233 12.1712 22.9101 12.4036 22.9101 12.6692C22.9101 13.1781 22.6541 13.5121 22.1422 13.6712C21.6305 13.8307 21.1386 13.9104 20.6663 13.9104C19.4805 13.9104 18.4629 13.4857 17.6134 12.6362C16.764 11.7868 16.3393 10.7692 16.3393 9.58333V9.28833C16.3393 9.19611 16.3586 9.07333 16.3972 8.92C14.0383 9.68916 12.1045 11.0732 10.5959 13.0721C9.08731 15.071 8.33301 17.3803 8.33301 20C8.33301 23.2222 9.4719 25.9722 11.7497 28.25C14.0275 30.5278 16.7775 31.6667 19.9997 31.6667Z" fill="black"/>
</g>
</svg>
