<svg width="24" height="24" viewBox="0 0 24 24" fill="none" xmlns="http://www.w3.org/2000/svg">
<g clip-path="url(#clip0_40000056_11256)">
<path d="M23.2047 11.745C22.3226 9.46324 20.7912 7.48996 18.7998 6.06906C16.8084 4.64817 14.4443 3.84193 11.9997 3.75C9.55507 3.84193 7.19097 4.64817 5.19958 6.06906C3.20819 7.48996 1.6768 9.46324 0.794681 11.745C0.735106 11.9098 0.735106 12.0902 0.794681 12.255C1.6768 14.5368 3.20819 16.51 5.19958 17.9309C7.19097 19.3518 9.55507 20.1581 11.9997 20.25C14.4443 20.1581 16.8084 19.3518 18.7998 17.9309C20.7912 16.51 22.3226 14.5368 23.2047 12.255C23.2643 12.0902 23.2643 11.9098 23.2047 11.745ZM11.9997 18.75C8.02468 18.75 3.82468 15.8025 2.30218 12C3.82468 8.1975 8.02468 5.25 11.9997 5.25C15.9747 5.25 20.1747 8.1975 21.6972 12C20.1747 15.8025 15.9747 18.75 11.9997 18.75Z" fill="black"/>
<path d="M11.9997 7.5C11.1097 7.5 10.2396 7.76392 9.49962 8.25839C8.75959 8.75285 8.18282 9.45566 7.84222 10.2779C7.50163 11.1002 7.41251 12.005 7.58615 12.8779C7.75978 13.7508 8.18836 14.5526 8.8177 15.182C9.44704 15.8113 10.2489 16.2399 11.1218 16.4135C11.9947 16.5872 12.8995 16.4981 13.7218 16.1575C14.544 15.8169 15.2468 15.2401 15.7413 14.5001C16.2358 13.76 16.4997 12.89 16.4997 12C16.4997 10.8065 16.0256 9.66193 15.1817 8.81802C14.3377 7.97411 13.1932 7.5 11.9997 7.5ZM11.9997 15C11.4063 15 10.8263 14.8241 10.333 14.4944C9.83962 14.1648 9.45511 13.6962 9.22804 13.1481C9.00098 12.5999 8.94157 11.9967 9.05733 11.4147C9.17308 10.8328 9.4588 10.2982 9.87836 9.87868C10.2979 9.45912 10.8325 9.1734 11.4144 9.05764C11.9964 8.94189 12.5996 9.0013 13.1477 9.22836C13.6959 9.45542 14.1644 9.83994 14.4941 10.3333C14.8237 10.8266 14.9997 11.4067 14.9997 12C14.9997 12.7956 14.6836 13.5587 14.121 14.1213C13.5584 14.6839 12.7953 15 11.9997 15Z" fill="black"/>
</g>
<defs>
<clipPath id="clip0_40000056_11256">
<rect width="24" height="24" fill="white"/>
</clipPath>
</defs>
</svg>
