<svg width="24" height="24" viewBox="0 0 24 24" fill="none" xmlns="http://www.w3.org/2000/svg">
<g clip-path="url(#clip0_40000056_11249)">
<path d="M1.71387 3.5H7.86035C8.02923 3.49988 8.19559 3.52932 8.34863 3.58496C8.50148 3.64058 8.63665 3.7202 8.74707 3.81738L8.74805 3.81836L11.6709 6.37598L11.8125 6.5H22.2861C22.628 6.5001 22.9449 6.61936 23.1689 6.81543C23.3909 7.0097 23.5 7.25799 23.5 7.5V19.5C23.5 19.742 23.3909 19.9903 23.1689 20.1846C22.9449 20.3806 22.628 20.4999 22.2861 20.5H1.71387C1.37202 20.4999 1.05513 20.3806 0.831055 20.1846C0.609064 19.9903 0.5 19.742 0.5 19.5V4.5C0.5 4.25799 0.609065 4.0097 0.831055 3.81543C1.05513 3.61936 1.37202 3.5001 1.71387 3.5ZM1.21387 20H22.7861V7H11.4785L11.124 6.68359L11.1201 6.68066L8.18848 4.12305L8.04785 4H1.21387V20Z" stroke="black"/>
</g>
<defs>
<clipPath id="clip0_40000056_11249">
<rect width="24" height="24" fill="white"/>
</clipPath>
</defs>
</svg>
