<svg width="21" height="21" viewBox="0 0 21 21" fill="none" xmlns="http://www.w3.org/2000/svg">
<path d="M10.5 0C8.4233 0 6.39323 0.61581 4.66652 1.76957C2.9398 2.92332 1.59399 4.5632 0.79927 6.48182C0.00454938 8.40045 -0.203386 10.5116 0.201759 12.5484C0.6069 14.5852 1.60693 16.4562 3.07538 17.9246C4.54383 19.3931 6.41476 20.3931 8.45156 20.7982C10.4884 21.2034 12.5996 20.9955 14.5182 20.2007C16.4368 19.406 18.0767 18.0602 19.2304 16.3335C20.3842 14.6068 21 12.5767 21 10.5C21 7.71523 19.8938 5.04451 17.9246 3.07538C15.9555 1.10625 13.2848 0 10.5 0ZM19.5 9.75H15C14.9125 6.98781 14.1969 4.28186 12.9075 1.8375C14.6839 2.32342 16.2685 3.34263 17.4474 4.75757C18.6263 6.1725 19.3427 7.91504 19.5 9.75ZM10.5 19.5C10.3327 19.5112 10.1648 19.5112 9.9975 19.5C8.44372 17.0221 7.58139 14.1736 7.5 11.25H13.5C13.4254 14.1715 12.5709 17.0199 11.025 19.5C10.8502 19.5123 10.6748 19.5123 10.5 19.5ZM7.5 9.75C7.57462 6.82851 8.42914 3.98012 9.975 1.5C10.309 1.46247 10.6461 1.46247 10.98 1.5C12.5417 3.9756 13.4119 6.8243 13.5 9.75H7.5ZM8.07001 1.8375C6.78848 4.28373 6.0806 6.98959 6 9.75H1.5C1.65728 7.91504 2.37371 6.1725 3.5526 4.75757C4.73149 3.34263 6.31608 2.32342 8.0925 1.8375H8.07001ZM1.5375 11.25H6.03751C6.11577 14.0098 6.82108 16.7156 8.10001 19.1625C6.32915 18.6714 4.75109 17.6499 3.57792 16.2354C2.40475 14.8209 1.69271 13.0811 1.5375 11.25ZM12.9075 19.1625C14.1969 16.7181 14.9125 14.0122 15 11.25H19.5C19.3427 13.085 18.6263 14.8275 17.4474 16.2424C16.2685 17.6574 14.6839 18.6766 12.9075 19.1625Z" fill="#161A1D"/>
</svg>
