<svg width="24" height="24" viewBox="0 0 24 24" fill="none" xmlns="http://www.w3.org/2000/svg">
<path d="M12 0C18.6274 0 24 5.37258 24 12C24 18.6274 18.6274 24 12 24C5.37258 24 0 18.6274 0 12C0 5.37258 5.37258 0 12 0ZM12 5.25C10.1668 5.25 9.93674 5.25817 9.2168 5.29102C8.65707 5.30227 8.10338 5.40815 7.5791 5.60449C7.13064 5.77792 6.72281 6.04282 6.38281 6.38281C6.04282 6.72281 5.77792 7.13064 5.60449 7.5791C5.40815 8.10338 5.30227 8.65707 5.29102 9.2168C5.25817 9.93646 5.25 10.1668 5.25 12C5.25 13.8332 5.25817 14.0633 5.29102 14.7832C5.30225 15.3431 5.40806 15.8974 5.60449 16.4219C5.7779 16.8701 6.04297 17.2773 6.38281 17.6172C6.72281 17.9572 7.13064 18.2221 7.5791 18.3955C8.10341 18.5919 8.65704 18.6987 9.2168 18.71C9.93646 18.7425 10.1668 18.75 12 18.75C13.8332 18.75 14.0633 18.7418 14.7832 18.709C15.3431 18.6977 15.8974 18.5919 16.4219 18.3955C16.8701 18.2221 17.2773 17.957 17.6172 17.6172C17.9572 17.2772 18.2221 16.8694 18.3955 16.4209C18.5919 15.8966 18.6987 15.343 18.71 14.7832C18.7425 14.0635 18.75 13.8332 18.75 12C18.75 10.1668 18.7418 9.93674 18.709 9.2168C18.6977 8.65707 18.5919 8.10338 18.3955 7.5791C18.222 7.13069 17.9572 6.72276 17.6172 6.38281C17.2772 6.04289 16.8693 5.77788 16.4209 5.60449C15.8966 5.40818 15.3429 5.30228 14.7832 5.29102C14.0635 5.25788 13.8332 5.25 12 5.25ZM12 6.46582C13.8023 6.46582 14.0158 6.47335 14.7275 6.50586C15.1556 6.51095 15.58 6.58957 15.9814 6.73828C16.2723 6.8506 16.5363 7.02267 16.7568 7.24316C16.9775 7.46379 17.1494 7.72844 17.2617 8.01953C17.4104 8.42084 17.489 8.84454 17.4941 9.27246C17.5266 9.98418 17.5342 10.1977 17.5342 12C17.5342 13.8023 17.5267 14.0159 17.4941 14.7275C17.489 15.1556 17.4104 15.58 17.2617 15.9814C17.1494 16.2723 16.9773 16.5363 16.7568 16.7568C16.5363 16.9773 16.2723 17.1494 15.9814 17.2617C15.58 17.4104 15.1556 17.489 14.7275 17.4941C14.0159 17.5266 13.8025 17.5342 12 17.5342C10.1975 17.5342 9.98413 17.5267 9.27246 17.4941C8.84442 17.489 8.41996 17.4104 8.01855 17.2617C7.72767 17.1494 7.46366 16.9773 7.24316 16.7568C7.02267 16.5363 6.8506 16.2723 6.73828 15.9814C6.58957 15.58 6.51095 15.1556 6.50586 14.7275C6.47341 14.0159 6.46582 13.8023 6.46582 12C6.46582 10.1977 6.47335 9.98418 6.50586 9.27246C6.51096 8.84454 6.58965 8.42084 6.73828 8.01953C6.8506 7.72843 7.02254 7.4638 7.24316 7.24316C7.46366 7.02266 7.72766 6.85061 8.01855 6.73828C8.41996 6.58957 8.84442 6.51095 9.27246 6.50586C9.98418 6.4734 10.1977 6.46582 12 6.46582ZM12.001 8.53418C11.3156 8.53426 10.6451 8.73737 10.0752 9.11816C9.5054 9.49902 9.06111 10.0406 8.79883 10.6738C8.53666 11.307 8.46795 12.0037 8.60156 12.6758C8.73531 13.3482 9.06602 13.9664 9.55078 14.4512C10.0355 14.9358 10.653 15.2657 11.3252 15.3994C11.9976 15.5332 12.6948 15.4645 13.3281 15.2021C13.9614 14.9398 14.503 14.4957 14.8838 13.9258C15.2646 13.3558 15.4678 12.6855 15.4678 12C15.4678 11.0807 15.1022 10.1989 14.4521 9.54883C13.8021 8.89889 12.9202 8.53418 12.001 8.53418ZM11.5625 9.79297C11.9989 9.70619 12.4513 9.75069 12.8623 9.9209C13.2734 10.0912 13.6248 10.38 13.8721 10.75C14.1193 11.12 14.251 11.555 14.251 12C14.251 12.5966 14.0146 13.1689 13.5928 13.5908C13.1708 14.0128 12.5977 14.25 12.001 14.25C11.5561 14.2499 11.1209 14.1182 10.751 13.8711C10.3811 13.6239 10.0932 13.2723 9.92285 12.8613C9.75255 12.4502 9.70811 11.997 9.79492 11.5605C9.88178 11.1244 10.0957 10.7237 10.4102 10.4092C10.7248 10.0945 11.126 9.87979 11.5625 9.79297ZM15.6025 7.58691C15.1555 7.58715 14.7932 7.94947 14.793 8.39648C14.793 8.84369 15.1554 9.2068 15.6025 9.20703C16.0499 9.20703 16.4131 8.84383 16.4131 8.39648C16.4129 7.94933 16.0497 7.58691 15.6025 7.58691Z" fill="white"/>
</svg>
