<svg width="19" height="12" viewBox="0 0 19 12" fill="none" xmlns="http://www.w3.org/2000/svg">
<g clip-path="url(#clip0_55_34)">
<path d="M9.5 11.3C9.3 11.3 9.1 11.3 8.9 11.2C8.7 11.2 8.5 11 8.4 10.9L0.9 3.40001C0.6 3.10001 0.5 2.70001 0.5 2.30001C0.5 1.90001 0.6 1.50001 0.9 1.20001C1.2 0.900012 1.6 0.800012 2 0.800012C2.4 0.800012 2.8 0.900012 3.1 1.20001L9.4 7.50001L15.8 1.10001C16.1 0.800012 16.5 0.700012 16.9 0.700012C17.3 0.700012 17.7 0.800012 18 1.10001C18.3 1.40001 18.4 1.80001 18.4 2.20001C18.4 2.60001 18.3 3.00001 18 3.30001L10.5 10.8C10.3 11 10.2 11.1 10 11.1C9.8 11.1 9.6 11.2 9.4 11.2L9.5 11.3Z" fill="white"/>
</g>
<defs>
<clipPath id="clip0_55_34">
<rect width="19" height="12" fill="white"/>
</clipPath>
</defs>
</svg>
