<svg width="48" height="32" viewBox="0 0 48 32" fill="none" xmlns="http://www.w3.org/2000/svg">
<g clip-path="url(#clip0_40000012_2272)">
<path d="M47.0064 2.73619C46.4929 2.21317 45.8245 1.95591 45.0222 1.97199L35.5216 1.87363C35.513 1.87268 35.5054 1.87079 35.4987 1.86985C35.4805 1.83296 35.4566 1.77432 35.4384 1.72892C35.3313 1.46694 35.1697 1.06971 34.7212 0.641261C33.7936 -0.244948 32.9397 -0.021741 32.5142 0.189171C31.8295 0.529657 31.38 1.27021 31.3705 2.07603L31.3303 5.33524C31.3246 5.49602 31.3093 6.70569 32.058 7.6373H32.0064C31.7434 7.6373 31.1046 7.7489 30.8512 8.77887C30.7517 9.18462 30.7479 9.5724 30.7479 9.6159V11.079C30.7479 11.079 30.7479 11.0819 30.7479 11.0828H11.5451V9.84195C11.5451 9.31136 11.3299 8.99073 11.1492 8.81576C10.78 8.4573 10.3086 8.44501 10.1728 8.44974H9.54167L4.26114 8.40907C4.11005 8.37597 3.8203 8.2568 3.73424 7.52097V6.81162C3.73424 5.78733 3.03998 4.9153 2.08371 4.73939C1.74137 4.67602 1.4105 4.71101 1.09875 4.84248C0.431278 5.12243 0 5.79962 0 6.56572V13.5589C0 14.2106 0.275406 14.8225 0.75641 15.2368C1.12075 15.5508 1.52334 15.7607 1.94219 15.8581V18.3418C1.94219 19.4522 2.78944 20.3554 3.83082 20.3554H5.39815C5.98052 20.3554 6.50073 20.0726 6.84785 19.63C7.27722 20.0783 7.86437 20.3554 8.50985 20.3554H9.08839C10.4023 20.3554 11.4714 19.2119 11.4714 17.8055V17.0007L33.9371 16.9817V17.6315C33.9371 18.7504 34.9144 19.6602 36.1164 19.6602H36.6299C37.3032 19.6602 37.9066 19.3746 38.3063 18.9263C38.706 19.3746 39.3094 19.6602 39.9826 19.6602H40.4961C41.1215 19.6602 41.6848 19.4134 42.0826 19.0199C42.4804 19.4134 43.0446 19.6602 43.669 19.6602H44.1826C45.3846 19.6602 46.3619 18.7504 46.3619 17.6315V16.8002C46.3619 16.7453 46.3562 16.6923 46.3476 16.6403C46.6211 16.507 46.9032 16.3197 47.1556 16.0568C47.7275 15.4619 48.0105 14.6428 47.9981 13.6232C47.9589 10.4567 47.9981 5.54331 47.9981 5.49602C47.9981 5.42509 48.0067 3.75387 47.0036 2.73336L47.0064 2.73619ZM10.1862 9.64333H10.2206C10.2206 9.64333 10.322 9.65279 10.3555 9.68494C10.3669 9.69629 10.387 9.74264 10.387 9.84289V12.2764H10.3899V13.4284C10.3899 13.8644 9.92609 14.168 9.51011 14.168H8.01833C7.61669 14.168 7.28965 13.7991 7.28965 13.3471V9.62631L9.54071 9.64333H10.1881H10.1862ZM1.5023 14.325C1.28523 14.1377 1.16091 13.8597 1.16091 13.5608V6.56761C1.16091 6.29144 1.31296 6.04269 1.53864 5.94811C1.64574 5.90366 1.75763 5.89231 1.88098 5.91501C2.27688 5.98784 2.57619 6.37372 2.57619 6.81257V7.55596L2.58002 7.62122C2.74067 9.13166 3.60705 9.50524 4.10909 9.59415L4.15595 9.60266L6.12874 9.61779V11.5709H4.43996C3.48752 11.5709 2.78179 11.8593 2.34478 12.4287C1.79396 13.1456 1.89342 14.0261 1.94314 14.3042V14.6116C1.79301 14.5444 1.64574 14.4499 1.50326 14.3269L1.5023 14.325ZM10.3134 17.0073V17.8084C10.3134 18.5565 9.76448 19.1656 9.09031 19.1656H8.51176C7.84142 19.1656 7.29634 18.5641 7.28869 17.8226V17.0082H10.3134V17.0073ZM37.6522 17.6343C37.6522 18.0959 37.1951 18.4714 36.6328 18.4714H36.1193C35.557 18.4714 35.0999 18.0959 35.0999 17.6343V17.0073H37.6531V17.6343H37.6522ZM40.4981 18.4714H39.9845C39.4223 18.4714 38.9652 18.0959 38.9652 17.6343V17.0073H41.4926V17.6343C41.4926 17.6873 41.4954 17.7393 41.5002 17.7913C41.4103 18.1772 40.9963 18.4704 40.499 18.4704L40.4981 18.4714ZM45.2058 17.6343C45.2058 18.0959 44.7487 18.4714 44.1864 18.4714H43.6729C43.1766 18.4714 42.7615 18.1782 42.6717 17.7923C42.6755 17.7403 42.6793 17.6883 42.6793 17.6353V17.0082H45.2067V17.6353L45.2058 17.6343ZM45.987 15.495C45.5213 15.7721 45.026 15.7825 45.0241 15.7825L7.48855 15.8146H7.20167V15.8175C6.62313 15.8458 6.15743 16.3358 6.12969 16.9468H6.12682V18.3437C6.12682 18.7967 5.79978 19.1646 5.39815 19.1646H3.83082C3.42919 19.1646 3.10214 18.7958 3.10214 18.3437V14.1727L3.08684 14.1046C3.08588 14.099 2.97209 13.5343 3.25419 13.1664C3.46074 12.8978 3.85951 12.7626 4.43901 12.7626H6.12778V13.3471C6.12778 14.4574 6.97504 15.3607 8.01642 15.3607H9.5082C10.4932 15.3607 11.5479 14.5842 11.5479 13.4284V12.2764H30.7737C31.3991 12.2764 31.9069 11.7402 31.9069 11.08V9.61874C31.9088 9.32176 31.9815 8.95763 32.0609 8.83089H34.4238V11.1765C34.419 11.3467 34.4143 12.6207 35.229 13.4956C35.7272 14.0309 36.4062 14.3023 37.2477 14.3023C37.568 14.3023 37.8272 14.0356 37.8272 13.7065C37.8272 13.3773 37.5671 13.1106 37.2477 13.1106C36.7303 13.1106 36.3459 12.9687 36.0715 12.6765C35.558 12.1298 35.5828 11.219 35.5828 11.2124V8.53297H38.1428C38.049 8.76469 37.9974 9.01911 37.9974 9.28677V10.1597C37.9974 11.2332 38.8313 12.1062 39.8564 12.1062H43.5811C44.6062 12.1062 45.4401 11.2332 45.4401 10.1597V8.81765C45.4401 8.2549 45.1981 7.81322 44.7582 7.57204C44.4981 7.42923 44.2007 7.37437 43.9253 7.35356V7.34127H33.5661C32.4434 6.84662 32.4864 5.44211 32.4883 5.38442L32.5285 2.09305C32.5333 1.73554 32.7245 1.41114 33.0172 1.26548C33.2161 1.16618 33.4991 1.10565 33.9304 1.51707C34.1962 1.77054 34.2794 1.97483 34.3674 2.19142C34.4975 2.5092 34.6925 2.98967 35.427 3.06439L45.027 3.16559H45.0365C45.5223 3.15518 45.8991 3.29043 46.186 3.58079C46.8391 4.24095 46.84 5.47427 46.84 5.48751C46.84 5.53669 46.8008 10.4624 46.84 13.6421C46.8515 14.5407 46.5723 15.1469 45.9861 15.4959L45.987 15.495ZM44.2811 8.81671V10.1588C44.2811 10.574 43.9674 10.9126 43.582 10.9126H39.8574C39.472 10.9126 39.1583 10.5749 39.1583 10.1588V9.28582C39.1583 8.87062 39.472 8.53202 39.8574 8.53202H43.582C44.2811 8.53202 44.2811 8.65781 44.2811 8.81671Z" fill="white"/>
<path d="M7.19233 29.6658C7.23823 29.8644 7.21815 30.1046 7.19711 30.3571L7.1952 30.3808C7.1885 30.4461 7.18372 30.5075 7.17798 30.5699C7.15216 30.8745 7.12347 31.2207 6.93796 31.5082C6.69698 31.8922 6.24944 31.8837 5.92336 31.8789H5.84494C5.472 31.8714 4.85998 31.8628 4.40958 31.8619C3.84634 31.8591 3.32612 31.8628 2.72176 31.8723C2.5745 31.8657 2.45974 31.8723 2.34786 31.8789C2.2771 31.8827 2.20824 31.8865 2.13844 31.8865C1.96057 31.8865 1.7827 31.861 1.58476 31.7465L1.54364 31.7153C1.23189 31.4089 1.48243 31.0447 1.63257 30.8282C1.68995 30.744 1.75019 30.657 1.76932 30.5974C1.83721 30.4271 1.84008 30.2768 1.84486 30.0488C1.84677 29.9779 1.84773 29.8994 1.85156 29.8152C1.87259 28.4211 1.87451 27.1859 1.85442 26.1484C1.84582 25.9724 1.81809 25.8306 1.76645 25.7067C1.73393 25.613 1.67847 25.5251 1.61823 25.4324C1.51112 25.265 1.38968 25.0749 1.39541 24.8488L1.40402 24.793L1.41645 24.7571C1.59623 24.3457 2.17477 24.3655 2.59649 24.3807C2.72081 24.3854 2.83747 24.3892 2.91588 24.3816L2.97804 24.3797C3.55276 24.3636 4.08349 24.3759 4.24606 24.6975C4.33499 24.8744 4.2824 25.0853 4.09018 25.3246L4.01942 25.4154C3.92284 25.5374 3.83199 25.6528 3.77462 25.7767C3.69142 25.9507 3.68281 26.1417 3.67899 26.3924C3.66751 27.1282 3.66751 27.9473 3.66847 28.7398V29.5371C3.67038 29.6213 3.66943 29.7131 3.66847 29.8048C3.66464 30.1264 3.66178 30.4593 3.82052 30.5406C4.13417 30.7194 4.53963 30.6882 4.9317 30.657L4.95274 30.6551C5.61352 30.604 5.95204 30.3505 6.24466 29.6875C6.27144 29.6194 6.39958 29.4539 6.40053 29.453C6.58605 29.2175 6.78496 29.2373 6.86146 29.2562C7.02976 29.2979 7.15599 29.4549 7.19233 29.6658Z" fill="white"/>
<path d="M10.1806 30.8866C10.3336 31.0881 10.565 31.3926 10.3594 31.6811L10.3183 31.7236C10.0917 31.8996 9.82103 31.9327 9.55901 31.9327C9.47869 31.9327 9.40027 31.9298 9.32377 31.927C9.20328 31.9223 9.08948 31.9185 8.98716 31.9251L8.93552 31.927C8.37037 31.9421 7.8492 31.9289 7.68472 31.6083C7.59388 31.4314 7.6436 31.2195 7.83199 30.9774L7.85207 30.9472C7.963 30.7901 8.06723 30.6426 8.10644 30.4856C8.14182 30.3229 8.13799 30.059 8.13417 29.8027C8.13226 29.6647 8.13034 29.5266 8.13417 29.3989V27.8733C8.13417 26.9994 8.13417 26.1378 8.13417 25.6762C8.13417 25.4909 8.00985 25.3499 7.88936 25.2137C7.76218 25.07 7.61778 24.9064 7.67038 24.6936C7.71915 24.4912 7.92666 24.3361 8.38471 24.1545C9.00055 23.8991 9.4433 23.7837 9.73688 24.0012C9.97403 24.1762 10.0505 24.5158 9.98455 25.1012C9.97117 25.4284 9.96351 25.837 9.96351 26.2362V30.164C9.96351 30.3485 9.96447 30.4941 10.0305 30.6436L10.04 30.6719C10.0524 30.7173 10.1232 30.81 10.1796 30.8847L10.1806 30.8866Z" fill="white"/>
<path d="M15.9733 28.282C15.9733 28.4891 15.9675 28.7085 15.9599 28.927V31.4826C15.9599 31.544 15.9427 31.6055 15.9101 31.6641C15.8422 31.7871 15.7122 31.8647 15.5735 31.8647H14.6957C14.4824 31.8647 14.3093 31.6935 14.3093 31.4826V31.3596C13.9048 31.6736 13.3502 31.8628 12.8137 31.8628C11.7475 31.8628 11.0312 31.2631 11.0312 30.3694C11.0312 29.4756 11.6241 28.8769 12.7019 28.5582C13.0863 28.4494 13.4975 28.3926 13.8274 28.3472C13.9909 28.3245 14.1917 28.2971 14.2654 28.2754C14.274 28.2508 14.2931 28.177 14.2931 27.9926C14.2931 27.7107 14.2338 27.2161 13.8436 27.0506C13.7098 27.0061 13.5673 26.9862 13.4324 26.9957C13.0576 27.0231 12.7917 27.2397 12.6952 27.5906L12.6837 27.6284C12.5555 28.0493 12.4351 28.1647 11.8852 28.1193C11.7226 28.1061 11.605 28.0512 11.5256 27.951C11.3956 27.7883 11.4013 27.5518 11.4558 27.2009C11.5103 26.8453 11.7695 26.52 12.1845 26.2854C12.5594 26.0736 13.0184 25.9629 13.4439 25.9695C13.748 25.9667 14.032 26.0036 14.3017 26.0811H14.3036C14.3036 26.0811 14.3065 26.0811 14.3074 26.0821C14.3093 26.0821 14.3113 26.083 14.3132 26.084C14.8659 26.2173 15.3067 26.5096 15.5917 26.9286L15.6519 27.0014V27.0307C15.8623 27.3835 15.9723 27.8015 15.9723 28.282H15.9733ZM13.2947 30.6257C13.8943 30.6257 14.2979 30.1764 14.2979 29.5087C14.2979 29.4141 14.295 29.3517 14.2912 29.3101C13.9221 29.3167 13.6313 29.3564 13.3837 29.434C12.9667 29.5702 12.7267 29.8321 12.7267 30.1509C12.7267 30.5907 13.1618 30.6257 13.2957 30.6257H13.2947Z" fill="white"/>
<path d="M22.0332 26.3003C22.2703 26.3504 22.4329 26.5585 22.4109 26.7836C22.3937 26.9661 22.2885 27.0834 22.1871 27.1969C22.1422 27.2479 22.0896 27.3056 22.037 27.3794C21.9404 27.5071 21.8467 27.6745 21.7769 27.8429C21.5569 28.363 21.1515 29.4602 20.9095 30.1165L20.8082 30.3899C20.7604 30.4996 20.7202 30.6036 20.68 30.7096C20.5156 31.1389 20.3291 31.626 19.8634 31.8634C19.6721 31.9542 19.5029 31.9996 19.3508 31.9996C19.2571 31.9996 19.1691 31.9826 19.0869 31.9476C18.8622 31.853 18.7025 31.644 18.5839 31.2884C18.5036 31.0973 18.3706 30.7739 18.2176 30.3993C17.9021 29.6276 17.509 28.6676 17.248 28.0708C17.1189 27.7946 17.0127 27.5809 16.8521 27.3917C16.5757 27.1288 16.4524 26.8895 16.4858 26.6786C16.5021 26.5764 16.5633 26.4355 16.7631 26.3419C16.9439 26.2681 17.1256 26.2747 17.2862 26.2813L17.3283 26.2832C17.6228 26.3012 17.9049 26.2917 18.2052 26.2832L18.4251 26.2766C18.6001 26.2577 18.8775 26.2993 19.0266 26.4866C19.1223 26.6067 19.1423 26.7609 19.084 26.9198C19.0534 27.0058 19.0056 27.0843 18.9635 27.1543C18.9253 27.2177 18.8899 27.2773 18.8727 27.3312C18.8373 27.4447 18.8612 27.5184 18.9042 27.6509C18.9186 27.6944 18.9329 27.7398 18.9463 27.7889C19.0888 28.2051 19.2428 28.59 19.4063 28.9986L19.5411 29.3372C19.5669 29.3873 19.6071 29.4895 19.653 29.6086C19.6826 29.6843 19.7285 29.8016 19.7735 29.9066C20.004 29.4044 20.1914 28.7754 20.3597 28.2108C20.3998 28.0765 20.4391 27.945 20.4783 27.8183C20.5548 27.5648 20.5433 27.4012 20.4371 27.2536C20.4123 27.2148 20.3884 27.1855 20.3654 27.1553C20.2679 27.0304 20.1197 26.8403 20.2048 26.5972C20.331 26.2605 20.7288 26.2738 20.899 26.2804C21.0931 26.2974 21.2672 26.2927 21.4517 26.287C21.622 26.2823 21.7979 26.2776 21.9796 26.2908L22.0332 26.3003Z" fill="white"/>
<path d="M27.5594 29.5154C27.6397 29.5154 27.9027 29.5495 27.9027 29.9902C27.9027 30.7733 27.0248 31.9073 25.4374 31.9073C23.85 31.9073 22.6719 30.7724 22.6719 29.0841C22.6719 27.3959 23.9169 26.0264 25.5684 26.0264C27.0449 26.0264 27.8176 27.0771 27.8176 28.1156C27.8176 28.4788 27.656 28.7465 27.3232 28.9337C26.5916 29.3716 24.9813 29.47 24.5137 29.4889C24.5691 29.8625 24.9182 30.4896 25.7998 30.4896C26.4147 30.4896 26.8814 30.2399 27.1883 29.7481L27.2017 29.7292C27.2792 29.6317 27.4035 29.5154 27.5584 29.5154H27.5594ZM26.211 27.9274C26.211 27.4592 25.883 27.1055 25.4489 27.1055C24.8044 27.1055 24.3702 27.7808 24.3702 28.4117C24.3702 28.4363 24.3721 28.4552 24.374 28.4675C24.8139 28.4608 25.7931 28.3161 26.1211 28.092C26.1881 28.0456 26.211 28.004 26.211 27.9265V27.9274Z" fill="white"/>
<path d="M38.6916 31.0901C38.7518 31.2934 38.6916 31.4287 38.6294 31.5062C38.4898 31.6821 38.2249 31.7134 38.0012 31.7134C37.9304 31.7134 37.8635 31.7105 37.8061 31.7077C37.4972 31.6954 37.2581 31.6916 36.9579 31.7048H36.8919C36.6337 31.7096 36.2435 31.7181 36.0685 31.492C36.0121 31.4183 35.9557 31.2925 36.0102 31.1071C36.0466 30.9851 36.1039 30.9047 36.1651 30.8205C36.1957 30.778 36.2311 30.7288 36.2722 30.6635C36.4243 30.4176 36.4482 30.1197 36.4415 29.9126C36.4348 29.7716 36.4291 29.5702 36.4224 29.3337C36.4071 28.77 36.3851 27.9784 36.3229 27.3012C36.2952 27.3646 36.2646 27.4355 36.2302 27.5169C36.0236 28.0106 35.8591 28.4314 35.6315 29.0188L35.6258 29.0339C35.5397 29.2543 35.447 29.4992 35.3523 29.748C35.1649 30.2408 34.9707 30.7505 34.812 31.1232C34.6877 31.458 34.3846 31.7011 34.0795 31.7058C33.827 31.7086 33.6167 31.5526 33.501 31.2726C33.3738 30.9917 33.1194 30.3656 32.8239 29.6421C32.4864 28.8145 32.1134 27.899 31.8294 27.2454C31.8122 27.5925 31.8017 28.0144 31.7921 28.4277C31.7845 28.7426 31.7768 29.0557 31.7663 29.3337C31.7567 29.678 31.7539 30.045 31.8237 30.3996C31.8581 30.6002 31.9126 30.7222 32.0073 30.812C32.0761 30.8706 32.3247 31.1062 32.2779 31.3662C32.2645 31.441 32.2148 31.5772 32.0254 31.649L31.9967 31.6576C31.7376 31.7152 31.4144 31.7105 31.1017 31.7058C31.0194 31.7048 30.9401 31.7029 30.8636 31.7039L30.7698 31.7058C30.4887 31.7115 30.1397 31.719 29.9867 31.4854C29.9035 31.3577 29.9054 31.1998 29.9934 31.0163C30.0393 30.9198 30.1052 30.8489 30.1693 30.7799C30.2162 30.7297 30.264 30.6777 30.308 30.6124C30.3931 30.4952 30.4007 30.3457 30.4093 30.1717C30.4112 30.1291 30.4141 30.0866 30.417 30.044C30.5164 28.998 30.591 27.253 30.5977 26.2779C30.5958 26.2192 30.5958 26.1549 30.5958 26.0906C30.5958 25.7653 30.5939 25.4844 30.4361 25.2441C30.3883 25.1685 30.3309 25.1098 30.2755 25.0531C30.1904 24.9661 30.1014 24.8753 30.0584 24.7428C30.0125 24.6303 30.024 24.4894 30.0947 24.3721C30.176 24.2378 30.3204 24.1461 30.483 24.1271C30.614 24.1025 30.744 24.1092 30.8703 24.1139C30.9085 24.1158 30.9468 24.1177 30.986 24.1186C31.0854 24.1224 31.1763 24.1243 31.2662 24.1271C31.401 24.13 31.5349 24.1328 31.6735 24.1423H31.6793C32.3324 24.1423 32.6384 24.5906 32.8316 24.9802C33.1538 25.682 33.6377 26.8255 34.0269 27.7448C34.1895 28.1278 34.3339 28.4693 34.441 28.719C34.4926 28.5903 34.5557 28.4286 34.6294 28.2423C34.9908 27.3249 35.5952 25.7898 35.992 24.9197C36.1441 24.6085 36.3698 24.2473 36.7924 24.182C36.999 24.1413 37.2476 24.1338 37.4876 24.1271C37.5632 24.1252 37.6378 24.1234 37.7085 24.1196C37.9773 24.094 38.3445 24.1092 38.5147 24.3295C38.5826 24.4175 38.6447 24.5707 38.5558 24.8005C38.5061 24.9093 38.4391 24.985 38.3741 25.0578C38.3253 25.1117 38.2756 25.1675 38.2326 25.2347C38.0452 25.5061 38.0432 25.8466 38.0413 26.2069V26.3195C38.048 27.4611 38.1609 29.3091 38.2536 30.1358C38.2699 30.3079 38.3005 30.498 38.398 30.6295C38.4372 30.6834 38.4697 30.7259 38.4994 30.7628C38.5807 30.8659 38.6495 30.9548 38.6906 31.092L38.6916 31.0901Z" fill="white"/>
<path d="M46.0549 30.5774C46.2748 30.7315 46.5244 30.9065 46.5177 31.1874C46.5253 31.3075 46.4813 31.4286 46.3905 31.5203C46.227 31.6849 45.9602 31.7123 45.7641 31.7029C45.6752 31.7019 45.5614 31.6981 45.4352 31.6934C45.134 31.684 44.7591 31.6717 44.4388 31.684C44.3403 31.6821 44.2551 31.6877 44.1643 31.6944C43.9415 31.7104 43.689 31.7284 43.449 31.595L43.4088 31.5657C43.078 31.2593 43.3457 30.9462 43.4748 30.7959C43.5274 30.7344 43.6164 30.6313 43.6097 30.5925C43.5905 30.4885 43.4375 30.148 42.6391 29.1067C42.6142 29.0736 42.5941 29.0509 42.5788 29.0348C42.5568 29.0613 42.532 29.0963 42.5157 29.1199C42.4851 29.1634 42.4545 29.206 42.422 29.241C42.3273 29.3639 42.2231 29.5011 42.1169 29.6439C42.0395 29.7564 41.9611 29.8642 41.8893 29.9626C41.6847 30.2445 41.5221 30.4667 41.5499 30.5953C41.5632 30.6521 41.6264 30.7174 41.6933 30.7864C41.7574 30.8526 41.83 30.9283 41.8788 31.021C41.9869 31.2394 41.9199 31.3945 41.8721 31.4674C41.7478 31.6537 41.4887 31.7104 41.2898 31.701C41.1893 31.7 41.0602 31.6953 40.9254 31.6906C40.7638 31.6849 40.5955 31.6783 40.453 31.6783C40.3507 31.6688 40.2426 31.6783 40.1279 31.6887C40.0313 31.6972 39.9309 31.7057 39.8295 31.7057C39.667 31.7057 39.5044 31.684 39.36 31.6026L39.3275 31.5846L39.3036 31.5563C39.1927 31.4248 39.1458 31.2896 39.164 31.1553C39.1955 30.9179 39.4155 30.7646 39.6278 30.6162C39.7329 30.5424 39.842 30.4667 39.9261 30.3835C40.2876 30.0581 40.5429 29.7186 40.8977 29.2485C40.9704 29.1521 41.0469 29.0499 41.1291 28.9421C41.1779 28.8721 41.2477 28.7785 41.3223 28.6782C41.4954 28.4456 41.7335 28.1268 41.7794 27.9868C41.7841 27.9641 41.7851 27.9575 41.7086 27.8469C41.6847 27.8119 41.6579 27.774 41.6302 27.7286C41.5604 27.6303 41.4848 27.5244 41.4122 27.4232L41.3137 27.286C41.2496 27.2018 41.1607 27.0808 41.0583 26.9398C40.7141 26.4688 40.1939 25.7557 39.8286 25.3991C39.775 25.3509 39.7148 25.3046 39.6593 25.262C39.5388 25.1703 39.426 25.0833 39.3581 24.9584C39.2787 24.8232 39.2711 24.652 39.3399 24.5063C39.4088 24.3597 39.5436 24.2595 39.7081 24.2301C40.0313 24.1904 40.3889 24.2018 40.7351 24.2122C41.0507 24.2216 41.3777 24.2311 41.657 24.2027C41.9314 24.1696 42.3044 24.2169 42.4449 24.4647C42.5128 24.5839 42.5473 24.7825 42.3311 25.0511C42.1992 25.1873 42.1447 25.2734 42.1542 25.3216C42.2011 25.5344 42.6419 26.2296 43.0789 26.7781C43.4308 26.3431 43.9071 25.6347 44.0027 25.3632C44.0256 25.3008 43.9817 25.2327 43.8669 25.0927C43.8134 25.0275 43.7579 24.9594 43.7158 24.8827C43.6087 24.6586 43.6766 24.5054 43.7263 24.4325C43.8535 24.2443 44.1117 24.1914 44.3135 24.1989C44.7209 24.2216 45.2057 24.2226 45.7574 24.2008C45.9602 24.1885 46.1476 24.2831 46.2423 24.4448C46.335 24.6037 46.3264 24.7948 46.2203 24.9575C46.0912 25.1268 45.9277 25.2497 45.7699 25.3679C45.6331 25.4701 45.504 25.5666 45.4141 25.6772C45.2038 25.9127 44.7199 26.5596 44.368 27.0439C44.3144 27.1262 44.2465 27.2151 44.1786 27.304C44.0572 27.4619 43.9424 27.6123 43.886 27.7674C43.9367 27.8885 44.1385 28.2176 44.2752 28.3983L44.3087 28.4446C44.7209 29.0187 45.3434 29.886 45.7804 30.3532L45.7967 30.3684C45.8626 30.4374 45.9621 30.5064 46.0577 30.5736L46.0549 30.5774Z" fill="white"/>
</g>
<defs>
<clipPath id="clip0_40000012_2272">
<rect width="48" height="32" fill="white"/>
</clipPath>
</defs>
</svg>
