<svg width="24" height="24" viewBox="0 0 24 24" fill="none" xmlns="http://www.w3.org/2000/svg">
<g clip-path="url(#clip0_18198_4674)">
<mask id="mask0_18198_4674" style="mask-type:luminance" maskUnits="userSpaceOnUse" x="0" y="0" width="24" height="24">
<path d="M24 0H0V24H24V0Z" fill="white"/>
</mask>
<g mask="url(#mask0_18198_4674)">
<path d="M15.4375 16.8125C16.1969 16.8125 16.8125 16.1969 16.8125 15.4375C16.8125 14.6781 16.1969 14.0625 15.4375 14.0625C14.6781 14.0625 14.0625 14.6781 14.0625 15.4375C14.0625 16.1969 14.6781 16.8125 15.4375 16.8125Z" fill="black"/>
<path d="M5.8125 7.1875C6.57189 7.1875 7.1875 6.57189 7.1875 5.8125C7.1875 5.05311 6.57189 4.4375 5.8125 4.4375C5.05311 4.4375 4.4375 5.05311 4.4375 5.8125C4.4375 6.57189 5.05311 7.1875 5.8125 7.1875Z" fill="black"/>
<path d="M19.5625 22.3125C19.0186 22.3125 18.4869 22.1512 18.0347 21.849C17.5824 21.5469 17.23 21.1174 17.0218 20.6149C16.8137 20.1124 16.7592 19.5595 16.8653 19.026C16.9715 18.4926 17.2334 18.0026 17.618 17.618C18.0026 17.2334 18.4926 16.9715 19.026 16.8653C19.5595 16.7592 20.1124 16.8137 20.6149 17.0218C21.1174 17.23 21.5469 17.5824 21.849 18.0347C22.1512 18.4869 22.3125 19.0186 22.3125 19.5625C22.3104 20.2912 22.0199 20.9894 21.5047 21.5047C20.9894 22.0199 20.2912 22.3104 19.5625 22.3125ZM19.5625 18.1875C19.2906 18.1875 19.0247 18.2681 18.7986 18.4192C18.5725 18.5703 18.3962 18.7851 18.2922 19.0363C18.1881 19.2876 18.1609 19.564 18.2139 19.8308C18.267 20.0975 18.3979 20.3425 18.5902 20.5348C18.7825 20.7271 19.0275 20.858 19.2943 20.9111C19.561 20.9641 19.8374 20.9369 20.0887 20.8328C20.3399 20.7288 20.5547 20.5525 20.7058 20.3264C20.8569 20.1003 20.9375 19.8345 20.9375 19.5625C20.9364 19.1982 20.7912 18.849 20.5336 18.5914C20.276 18.3338 19.9268 18.1886 19.5625 18.1875Z" fill="black"/>
<path d="M21.625 12C21.6175 9.44953 20.6011 7.00571 18.7976 5.20229C16.9942 3.39887 14.5504 2.38241 12 2.37494C10.3577 2.3515 8.74059 2.77957 7.325 3.61244L8.08125 4.78119C8.61866 4.52289 9.16944 4.2934 9.73125 4.09369C8.59474 6.33626 7.96125 8.79981 7.875 11.3125H3.75C3.82703 10.1773 4.15582 9.07349 4.7125 8.08119L3.68125 7.18744C2.8258 8.64698 2.3749 10.3082 2.375 12C2.37485 13.264 2.6237 14.5156 3.10735 15.6835C3.59099 16.8513 4.29996 17.9124 5.19376 18.8062C6.08755 19.7 7.14866 20.409 8.31649 20.8926C9.48432 21.3763 10.736 21.6251 12 21.625C13.2256 21.6365 14.4411 21.4028 15.575 20.9375L15.1625 19.6312C14.0353 20.1132 12.8111 20.3251 11.5875 20.25C10.1214 17.995 9.31201 15.3764 9.25 12.6875H21.5563C21.6131 12.463 21.6362 12.2313 21.625 12ZM9.8 19.975C8.43288 19.5652 7.18356 18.8345 6.15625 17.8437C4.79216 16.4479 3.94358 14.6295 3.75 12.6875H7.875C7.9696 15.2291 8.62708 17.7181 9.8 19.975ZM9.25 11.3125C9.30469 8.63223 10.0891 6.01765 11.5188 3.74994H12.4813C13.9109 6.01765 14.6953 8.63223 14.75 11.3125H9.25ZM16.125 11.3125C16.0727 8.76465 15.4127 6.26619 14.2 4.02494C15.8176 4.49118 17.2555 5.43754 18.3236 6.73882C19.3916 8.0401 20.0394 9.63497 20.1813 11.3125H16.125Z" fill="black"/>
</g>
</g>
<defs>
<clipPath id="clip0_18198_4674">
<rect width="24" height="24" fill="white"/>
</clipPath>
</defs>
</svg>
