<svg width="21" height="21" viewBox="0 0 21 21" fill="none" xmlns="http://www.w3.org/2000/svg">
<path d="M10.5 0C8.4233 0 6.39323 0.615814 4.66652 1.76957C2.9398 2.92332 1.59399 4.5632 0.79927 6.48182C0.0045495 8.40045 -0.203386 10.5116 0.201759 12.5484C0.606904 14.5852 1.60693 16.4562 3.07538 17.9246C4.54383 19.3931 6.41476 20.3931 8.45156 20.7982C10.4884 21.2034 12.5996 20.9955 14.5182 20.2007C16.4368 19.406 18.0767 18.0602 19.2304 16.3335C20.3842 14.6068 21 12.5767 21 10.5C21 7.71523 19.8938 5.04451 17.9246 3.07538C15.9555 1.10625 13.2848 0 10.5 0ZM10.5 19.5C8.71997 19.5 6.97992 18.9722 5.49987 17.9832C4.01983 16.9943 2.86628 15.5887 2.18509 13.9442C1.5039 12.2996 1.32567 10.49 1.67294 8.74419C2.0202 6.99836 2.87737 5.39471 4.13604 4.13604C5.39472 2.87737 6.99836 2.0202 8.74419 1.67293C10.49 1.32567 12.2996 1.5039 13.9442 2.18508C15.5887 2.86627 16.9943 4.01983 17.9832 5.49987C18.9722 6.97991 19.5 8.71997 19.5 10.5C19.5 12.8869 18.5518 15.1761 16.864 16.864C15.1761 18.5518 12.887 19.5 10.5 19.5Z" fill="#224497"/>
<path d="M10.5 17.25C11.1213 17.25 11.625 16.7463 11.625 16.125C11.625 15.5037 11.1213 15 10.5 15C9.87868 15 9.375 15.5037 9.375 16.125C9.375 16.7463 9.87868 17.25 10.5 17.25Z" fill="#224497"/>
<path d="M11.25 4.50001H10.125C9.68152 4.49902 9.2422 4.58564 8.83228 4.7549C8.42236 4.92416 8.04991 5.17272 7.73632 5.48632C7.42272 5.79991 7.17416 6.17236 7.0049 6.58228C6.83564 6.9922 6.74902 7.43152 6.75001 7.87501V8.25001H8.25001V7.87501C8.25001 7.37773 8.44755 6.90081 8.79918 6.54918C9.15081 6.19755 9.62773 6.00001 10.125 6.00001H11.25C11.7473 6.00001 12.2242 6.19755 12.5758 6.54918C12.9275 6.90081 13.125 7.37773 13.125 7.87501C13.125 8.37229 12.9275 8.8492 12.5758 9.20083C12.2242 9.55246 11.7473 9.75001 11.25 9.75001H9.75001V13.125H11.25V11.25C12.1451 11.25 13.0036 10.8944 13.6365 10.2615C14.2694 9.62856 14.625 8.77011 14.625 7.87501C14.625 6.9799 14.2694 6.12146 13.6365 5.48852C13.0036 4.85559 12.1451 4.50001 11.25 4.50001Z" fill="#224497"/>
</svg>
