<svg width="24" height="24" viewBox="0 0 24 24" fill="none" xmlns="http://www.w3.org/2000/svg">
<path d="M12 0C18.6274 0 24 5.37258 24 12C24 18.6274 18.6274 24 12 24C5.37258 24 0 18.6274 0 12C0 5.37258 5.37258 0 12 0ZM12 6.4873C11.9477 6.48731 7.06641 6.48925 5.84668 6.81934C5.5137 6.90896 5.20965 7.08429 4.96582 7.32812C4.72204 7.57194 4.54665 7.87605 4.45703 8.20898C4.22809 9.45948 4.1168 10.7287 4.125 12C4.1168 13.2712 4.2281 14.5405 4.45703 15.791C4.54664 16.1239 4.72206 16.4281 4.96582 16.6719C5.20965 16.9157 5.5137 17.091 5.84668 17.1807C7.06636 17.5108 11.9477 17.5127 12 17.5127C12 17.5127 16.928 17.5125 18.1543 17.1807C18.4871 17.0911 18.7904 16.9155 19.0342 16.6719C19.278 16.428 19.4543 16.124 19.5439 15.791C19.7729 14.5405 19.8832 13.2712 19.875 12C19.8832 10.7288 19.7729 9.45948 19.5439 8.20898C19.4543 7.87601 19.278 7.57196 19.0342 7.32812C18.7904 7.08449 18.4871 6.90893 18.1543 6.81934C16.928 6.48746 12 6.4873 12 6.4873ZM14.5146 12L10.4258 14.3623V9.6377L14.5146 12Z" fill="white"/>
</svg>
