<svg width="47" height="47" viewBox="0 0 47 47" fill="none" xmlns="http://www.w3.org/2000/svg">
<path d="M20.0667 27.5333L15.05 22.5167C14.6222 22.0889 14.0778 21.875 13.4167 21.875C12.7556 21.875 12.2111 22.0889 11.7833 22.5167C11.3556 22.9444 11.1417 23.4889 11.1417 24.15C11.1417 24.8111 11.3556 25.3556 11.7833 25.7833L18.4333 32.4333C18.9 32.9 19.4444 33.1333 20.0667 33.1333C20.6889 33.1333 21.2333 32.9 21.7 32.4333L34.8833 19.25C35.3111 18.8222 35.525 18.2778 35.525 17.6167C35.525 16.9556 35.3111 16.4111 34.8833 15.9833C34.4556 15.5556 33.9111 15.3417 33.25 15.3417C32.5889 15.3417 32.0444 15.5556 31.6167 15.9833L20.0667 27.5333ZM23.3333 46.6667C20.1056 46.6667 17.0722 46.0542 14.2333 44.8292C11.3944 43.6042 8.925 41.9417 6.825 39.8417C4.725 37.7417 3.0625 35.2722 1.8375 32.4333C0.6125 29.5944 0 26.5611 0 23.3333C0 20.1056 0.6125 17.0722 1.8375 14.2333C3.0625 11.3944 4.725 8.925 6.825 6.825C8.925 4.725 11.3944 3.0625 14.2333 1.8375C17.0722 0.6125 20.1056 0 23.3333 0C26.5611 0 29.5944 0.6125 32.4333 1.8375C35.2722 3.0625 37.7417 4.725 39.8417 6.825C41.9417 8.925 43.6042 11.3944 44.8292 14.2333C46.0542 17.0722 46.6667 20.1056 46.6667 23.3333C46.6667 26.5611 46.0542 29.5944 44.8292 32.4333C43.6042 35.2722 41.9417 37.7417 39.8417 39.8417C37.7417 41.9417 35.2722 43.6042 32.4333 44.8292C29.5944 46.0542 26.5611 46.6667 23.3333 46.6667ZM23.3333 42C28.5444 42 32.9583 40.1917 36.575 36.575C40.1917 32.9583 42 28.5444 42 23.3333C42 18.1222 40.1917 13.7083 36.575 10.0917C32.9583 6.475 28.5444 4.66667 23.3333 4.66667C18.1222 4.66667 13.7083 6.475 10.0917 10.0917C6.475 13.7083 4.66667 18.1222 4.66667 23.3333C4.66667 28.5444 6.475 32.9583 10.0917 36.575C13.7083 40.1917 18.1222 42 23.3333 42Z" fill="#086308"/>
</svg>
