<svg width="5" height="5" viewBox="0 0 5 5" fill="none" xmlns="http://www.w3.org/2000/svg">
<path d="M-9.17315e-05 2.28801C-9.17315e-05 1.73334 0.0905749 1.29067 0.271908 0.960006C0.453242 0.618672 0.698575 0.373339 1.00791 0.224006C1.32791 0.0746724 1.67991 5.72205e-06 2.06391 5.72205e-06C2.44791 5.72205e-06 2.79458 0.0746724 3.10391 0.224006C3.41324 0.373339 3.65858 0.618672 3.83991 0.960006C4.03191 1.29067 4.12791 1.73334 4.12791 2.28801C4.12791 2.83201 4.03191 3.27467 3.83991 3.61601C3.65858 3.94667 3.41324 4.19201 3.10391 4.35201C2.79458 4.50134 2.44791 4.57601 2.06391 4.57601C1.67991 4.57601 1.32791 4.50134 1.00791 4.35201C0.698575 4.19201 0.453242 3.94667 0.271908 3.61601C0.0905749 3.27467 -9.17315e-05 2.83201 -9.17315e-05 2.28801Z" fill="#434343"/>
</svg>
