<svg width="24" height="24" viewBox="0 0 24 24" fill="none" xmlns="http://www.w3.org/2000/svg">
<path d="M15.4375 16.8126C16.1969 16.8126 16.8125 16.1969 16.8125 15.4376C16.8125 14.6782 16.1969 14.0626 15.4375 14.0626C14.6781 14.0626 14.0625 14.6782 14.0625 15.4376C14.0625 16.1969 14.6781 16.8126 15.4375 16.8126Z" fill="#086308"/>
<path d="M5.8125 7.18756C6.57189 7.18756 7.1875 6.57195 7.1875 5.81256C7.1875 5.05317 6.57189 4.43756 5.8125 4.43756C5.05311 4.43756 4.4375 5.05317 4.4375 5.81256C4.4375 6.57195 5.05311 7.18756 5.8125 7.18756Z" fill="#086308"/>
<path d="M19.5625 22.3126C19.0186 22.3126 18.4869 22.1513 18.0347 21.8491C17.5824 21.5469 17.23 21.1174 17.0218 20.6149C16.8137 20.1124 16.7592 19.5595 16.8653 19.0261C16.9715 18.4926 17.2334 18.0026 17.618 17.618C18.0026 17.2334 18.4926 16.9715 19.026 16.8654C19.5595 16.7593 20.1124 16.8137 20.6149 17.0219C21.1174 17.23 21.5469 17.5825 21.849 18.0347C22.1512 18.487 22.3125 19.0187 22.3125 19.5626C22.3104 20.2912 22.0199 20.9895 21.5047 21.5047C20.9894 22.02 20.2912 22.3104 19.5625 22.3126ZM19.5625 18.1876C19.2906 18.1876 19.0247 18.2682 18.7986 18.4193C18.5725 18.5704 18.3962 18.7851 18.2922 19.0364C18.1881 19.2876 18.1609 19.5641 18.2139 19.8308C18.267 20.0975 18.3979 20.3425 18.5902 20.5348C18.7825 20.7271 19.0275 20.8581 19.2943 20.9111C19.561 20.9642 19.8374 20.937 20.0887 20.8329C20.3399 20.7288 20.5547 20.5526 20.7058 20.3265C20.8569 20.1003 20.9375 19.8345 20.9375 19.5626C20.9364 19.1982 20.7912 18.8491 20.5336 18.5915C20.276 18.3338 19.9268 18.1886 19.5625 18.1876Z" fill="#086308"/>
<path d="M21.625 12.0001C21.6175 9.44965 20.6011 7.00583 18.7976 5.20241C16.9942 3.39899 14.5504 2.38253 12 2.37506C10.3577 2.35162 8.74059 2.77969 7.325 3.61256L8.08125 4.78131C8.61866 4.52301 9.16944 4.29352 9.73125 4.09381C8.59474 6.33638 7.96125 8.79993 7.875 11.3126H3.75C3.82703 10.1774 4.15582 9.07361 4.7125 8.08131L3.68125 7.18756C2.8258 8.6471 2.3749 10.3083 2.375 12.0001C2.37485 13.2641 2.6237 14.5157 3.10735 15.6836C3.59099 16.8514 4.29996 17.9125 5.19376 18.8063C6.08755 19.7001 7.14866 20.4091 8.31649 20.8927C9.48432 21.3764 10.736 21.6252 12 21.6251C13.2256 21.6366 14.4411 21.4029 15.575 20.9376L15.1625 19.6313C14.0353 20.1133 12.8111 20.3252 11.5875 20.2501C10.1214 17.9951 9.31201 15.3765 9.25 12.6876H21.5563C21.6131 12.4631 21.6362 12.2314 21.625 12.0001ZM9.8 19.9751C8.43288 19.5653 7.18356 18.8346 6.15625 17.8438C4.79216 16.448 3.94358 14.6296 3.75 12.6876H7.875C7.9696 15.2292 8.62708 17.7182 9.8 19.9751ZM9.25 11.3126C9.30469 8.63235 10.0891 6.01777 11.5188 3.75006H12.4813C13.9109 6.01777 14.6953 8.63235 14.75 11.3126H9.25ZM16.125 11.3126C16.0727 8.76477 15.4127 6.26631 14.2 4.02506C15.8176 4.4913 17.2555 5.43766 18.3236 6.73894C19.3916 8.04022 20.0394 9.63509 20.1813 11.3126H16.125Z" fill="#086308"/>
</svg>
