<svg width="40" height="40" viewBox="0 0 40 40" fill="none" xmlns="http://www.w3.org/2000/svg">
<mask id="mask0_546_8923" style="mask-type:alpha" maskUnits="userSpaceOnUse" x="-1" y="0" width="41" height="40">
<rect width="40" height="40" fill="#D9D9D9"/>
</mask>
<g mask="url(#mask0_546_8923)">
<path d="M24.0739 19.3272C23.5631 19.3272 23.1304 19.1509 22.776 18.7981C22.4213 18.4456 22.2439 18.0141 22.2439 17.5035C22.2439 16.9927 22.4202 16.5599 22.7727 16.2052C23.1252 15.8504 23.5568 15.6731 24.0677 15.6731C24.5782 15.6731 25.0109 15.8495 25.3656 16.2022C25.7203 16.5547 25.8977 16.9863 25.8977 17.4968C25.8977 18.0077 25.7213 18.4404 25.3685 18.7952C25.016 19.1499 24.5845 19.3272 24.0739 19.3272ZM15.9327 19.3272C15.4221 19.3272 14.9895 19.1509 14.6347 18.7981C14.28 18.4456 14.1027 18.0141 14.1027 17.5035C14.1027 16.9927 14.2791 16.5599 14.6318 16.2052C14.9843 15.8504 15.4159 15.6731 15.9264 15.6731C16.4372 15.6731 16.8699 15.8495 17.2243 16.2022C17.5791 16.5547 17.7564 16.9863 17.7564 17.4968C17.7564 18.0077 17.5802 18.4404 17.2277 18.7952C16.8752 19.1499 16.4435 19.3272 15.9327 19.3272ZM20.0002 27.6922C18.4938 27.6922 17.1231 27.2954 15.8881 26.5018C14.6531 25.7079 13.7054 24.6518 13.0452 23.3335H26.9552C26.2949 24.6518 25.3472 25.7079 24.1122 26.5018C22.8772 27.2954 21.5066 27.6922 20.0002 27.6922ZM20.001 34.1668C18.0346 34.1668 16.1925 33.795 14.4747 33.0514C12.7567 32.3078 11.2588 31.2971 9.981 30.0193C8.70322 28.7416 7.69252 27.2441 6.94891 25.5268C6.2053 23.8093 5.8335 21.9674 5.8335 20.001C5.8335 18.0346 6.2053 16.1925 6.94891 14.4747C7.69252 12.7567 8.70322 11.2588 9.981 9.981C11.2588 8.70322 12.7563 7.69252 14.4735 6.94891C16.191 6.2053 18.0329 5.8335 19.9993 5.8335C21.9657 5.8335 23.8078 6.2053 25.5256 6.94891C27.2436 7.69252 28.7416 8.70322 30.0193 9.981C31.2971 11.2588 32.3078 12.7563 33.0514 14.4735C33.795 16.191 34.1668 18.0329 34.1668 19.9993C34.1668 21.9657 33.795 23.8078 33.0514 25.5256C32.3078 27.2436 31.2971 28.7416 30.0193 30.0193C28.7416 31.2971 27.2441 32.3078 25.5268 33.0514C23.8093 33.795 21.9674 34.1668 20.001 34.1668ZM20.0002 31.6668C23.2224 31.6668 25.9724 30.5279 28.2502 28.2502C30.5279 25.9724 31.6668 23.2224 31.6668 20.0002C31.6668 16.7779 30.5279 14.0279 28.2502 11.7502C25.9724 9.47239 23.2224 8.3335 20.0002 8.3335C19.7657 8.3335 19.5314 8.33877 19.2972 8.34933C19.0628 8.36016 18.8356 8.39336 18.6156 8.44891C18.4917 8.63697 18.4127 8.81752 18.3785 8.99058C18.3443 9.16364 18.3272 9.36127 18.3272 9.5835C18.3272 10.231 18.5553 10.7828 19.0114 11.2389C19.4675 11.695 20.021 11.9231 20.6718 11.9231C20.9504 11.9231 21.186 11.8814 21.3785 11.7981C21.5707 11.7147 21.7779 11.6731 22.0002 11.6731C22.2602 11.6731 22.4768 11.7728 22.6502 11.9722C22.8238 12.1714 22.9106 12.4038 22.9106 12.6693C22.9106 13.1782 22.6546 13.5122 22.1427 13.6714C21.631 13.8309 21.1391 13.9106 20.6668 13.9106C19.481 13.9106 18.4634 13.4859 17.6139 12.6364C16.7645 11.787 16.3397 10.7693 16.3397 9.5835V9.2885C16.3397 9.19627 16.3591 9.0735 16.3977 8.92016C14.0388 9.68933 12.105 11.0734 10.5964 13.0722C9.0878 15.0711 8.3335 17.3804 8.3335 20.0002C8.3335 23.2224 9.47239 25.9724 11.7502 28.2502C14.0279 30.5279 16.7779 31.6668 20.0002 31.6668Z" fill="#611232"/>
</g>
</svg>
