<svg width="40" height="40" viewBox="0 0 40 40" fill="none" xmlns="http://www.w3.org/2000/svg">
<mask id="mask0_546_8929" style="mask-type:alpha" maskUnits="userSpaceOnUse" x="0" y="0" width="40" height="40">
<rect width="40" height="40" fill="#D9D9D9"/>
</mask>
<g mask="url(#mask0_546_8929)">
<path d="M20.0961 29.6796C18.8439 29.6796 17.698 29.3889 16.6586 28.8075C15.6191 28.2264 14.7809 27.4326 14.144 26.4262C13.9882 26.1807 13.9812 25.9324 14.1232 25.6812C14.2654 25.4301 14.4871 25.3046 14.7882 25.3046H25.4036C25.6772 25.3046 25.8919 25.4301 26.0478 25.6812C26.2039 25.9324 26.2039 26.1807 26.0478 26.4262C25.4216 27.4326 24.5862 28.2264 23.5415 28.8075C22.4965 29.3889 21.348 29.6796 20.0961 29.6796ZM16.0894 22.3075C15.613 22.3075 15.2082 22.1436 14.8748 21.8158C14.5415 21.4878 14.3748 21.0855 14.3748 20.6092C14.3748 20.1325 14.5415 19.7301 14.8748 19.4021C15.2082 19.0743 15.613 18.9104 16.0894 18.9104C16.5661 18.9104 16.9684 19.0743 17.2965 19.4021C17.6243 19.7301 17.7882 20.1325 17.7882 20.6092C17.7882 21.0855 17.6243 21.4878 17.2965 21.8158C16.9684 22.1436 16.5661 22.3075 16.0894 22.3075ZM24.1023 22.3075C23.6259 22.3075 23.2237 22.1436 22.8957 21.8158C22.5676 21.4878 22.4036 21.0855 22.4036 20.6092C22.4036 20.1325 22.5676 19.7301 22.8957 19.4021C23.2237 19.0743 23.6259 18.9104 24.1023 18.9104C24.5787 18.9104 24.9809 19.0743 25.309 19.4021C25.6371 19.7301 25.8011 20.1325 25.8011 20.6092C25.8011 21.0855 25.6371 21.4878 25.309 21.8158C24.9809 22.1436 24.5787 22.3075 24.1023 22.3075ZM20.0961 35.8333C18.1408 35.8333 16.3122 35.4642 14.6103 34.7258C12.9086 33.9875 11.4241 32.9848 10.1569 31.7179C8.88998 30.4507 7.88734 28.9662 7.149 27.2646C6.41067 25.5626 6.0415 23.734 6.0415 21.7787C6.0415 20.9112 6.11359 20.0662 6.25775 19.2437C6.4022 18.421 6.6272 17.6229 6.93275 16.8496L9.40067 17.3046C9.09511 17.999 8.87289 18.7143 8.734 19.4504C8.59511 20.1865 8.52567 20.9573 8.52567 21.7629C8.52567 24.9915 9.64692 27.7271 11.8894 29.9696C14.1319 32.2121 16.8675 33.3333 20.0961 33.3333C23.3247 33.3333 26.0603 32.2121 28.3028 29.9696C30.5453 27.7271 31.6665 24.9915 31.6665 21.7629C31.6665 21.2757 31.6334 20.7954 31.5673 20.3221C31.5009 19.8487 31.4154 19.3823 31.3107 18.9229C29.1248 18.7157 27.1083 18.0944 25.2611 17.0592C23.4139 16.0239 21.8364 14.6719 20.5286 13.0033L22.724 11.7275C23.6771 12.8728 24.7855 13.8279 26.0494 14.5929C27.3133 15.3579 28.6921 15.8943 30.1857 16.2021C29.534 15.0012 28.6932 13.9429 27.6632 13.0271C26.6334 12.1115 25.4615 11.4101 24.1473 10.9229L26.7819 9.38457C29.0019 10.5835 30.7876 12.2726 32.139 14.4521C33.4907 16.6315 34.1665 19.0737 34.1665 21.7787C34.1665 23.734 33.7973 25.5626 33.059 27.2646C32.3207 28.9662 31.318 30.4507 30.0511 31.7179C28.7839 32.9848 27.2966 33.9875 25.5894 34.7258C23.8822 35.4642 22.0511 35.8333 20.0961 35.8333ZM8.76609 15.1604L25.4294 8.89416C24.5297 8.0011 23.5014 7.32971 22.3444 6.87999C21.1872 6.42999 19.9665 6.20499 18.6823 6.20499C16.1398 6.20499 13.93 7.05707 12.0528 8.76124C10.1755 10.4654 9.07998 12.5985 8.76609 15.1604ZM6.72442 18.6217C6.58331 18.1622 6.47164 17.7023 6.38942 17.2421C6.3072 16.7815 6.26609 16.3044 6.26609 15.8108C6.26609 13.4219 6.90762 11.2703 8.19067 9.35582C9.47373 7.44138 11.1239 5.98735 13.1411 4.99374C13.0961 4.90401 13.0693 4.81582 13.0607 4.72915C13.0523 4.64277 13.0482 4.5461 13.0482 4.43915C13.0482 4.0311 13.1865 3.68874 13.4632 3.41207C13.7398 3.1354 14.0822 2.99707 14.4903 2.99707C14.8258 2.99707 15.1191 3.09471 15.3703 3.28999C15.6211 3.48554 15.7914 3.73401 15.8811 4.0354C16.3428 3.92846 16.8028 3.84665 17.2611 3.78999C17.7194 3.7336 18.1932 3.7054 18.6823 3.7054C20.4901 3.7054 22.2048 4.06915 23.8265 4.79665C25.4484 5.52415 26.8555 6.56318 28.0478 7.91374L32.4711 6.25957C32.798 6.13568 33.1147 6.14693 33.4211 6.29332C33.7278 6.43971 33.943 6.67638 34.0669 7.00332C34.1911 7.33027 34.1841 7.64707 34.0461 7.95374C33.9083 8.26013 33.6759 8.4754 33.349 8.59957L6.72442 18.6217Z" fill="#611232"/>
</g>
</svg>
