<svg width="40" height="40" viewBox="0 0 40 40" fill="none" xmlns="http://www.w3.org/2000/svg">
<mask id="mask0_546_8935" style="mask-type:alpha" maskUnits="userSpaceOnUse" x="0" y="0" width="40" height="40">
<rect width="40" height="40" fill="#D9D9D9"/>
</mask>
<g mask="url(#mask0_546_8935)">
<path d="M14.9998 23.7498C14.4165 23.7498 13.9234 23.5484 13.5207 23.1457C13.1179 22.7429 12.9165 22.2498 12.9165 21.6665C12.9165 21.0832 13.1179 20.5901 13.5207 20.1873C13.9234 19.7846 14.4165 19.5832 14.9998 19.5832C15.5832 19.5832 16.0762 19.7846 16.479 20.1873C16.8818 20.5901 17.0832 21.0832 17.0832 21.6665C17.0832 22.2498 16.8818 22.7429 16.479 23.1457C16.0762 23.5484 15.5832 23.7498 14.9998 23.7498ZM24.9998 23.7498C24.4165 23.7498 23.9234 23.5484 23.5207 23.1457C23.1179 22.7429 22.9165 22.2498 22.9165 21.6665C22.9165 21.0832 23.1179 20.5901 23.5207 20.1873C23.9234 19.7846 24.4165 19.5832 24.9998 19.5832C25.5832 19.5832 26.0762 19.7846 26.479 20.1873C26.8818 20.5901 27.0832 21.0832 27.0832 21.6665C27.0832 22.2498 26.8818 22.7429 26.479 23.1457C26.0762 23.5484 25.5832 23.7498 24.9998 23.7498ZM19.9998 33.3332C23.7221 33.3332 26.8748 32.0415 29.4582 29.4582C32.0415 26.8748 33.3332 23.7221 33.3332 19.9998C33.3332 19.3332 33.2915 18.6873 33.2082 18.0623C33.1248 17.4373 32.9721 16.8332 32.7498 16.2498C32.1665 16.3887 31.5832 16.4929 30.9998 16.5623C30.4165 16.6318 29.8054 16.6665 29.1665 16.6665C26.6387 16.6665 24.2498 16.1248 21.9998 15.0415C19.7498 13.9582 17.8332 12.4443 16.2498 10.4998C15.3609 12.6665 14.0901 14.5484 12.4373 16.1457C10.7846 17.7429 8.86095 18.9443 6.6665 19.7498V19.9998C6.6665 23.7221 7.95817 26.8748 10.5415 29.4582C13.1248 32.0415 16.2776 33.3332 19.9998 33.3332ZM20.0028 35.8332C17.8128 35.8332 15.7543 35.4176 13.8273 34.5865C11.9004 33.7554 10.2243 32.6275 8.799 31.2028C7.37373 29.778 6.24525 28.1026 5.41359 26.1765C4.5822 24.2504 4.1665 22.1925 4.1665 20.0028C4.1665 17.8128 4.58206 15.7543 5.41317 13.8273C6.24428 11.9004 7.3722 10.2243 8.79692 8.799C10.2216 7.37373 11.8971 6.24525 13.8232 5.41359C15.7493 4.5822 17.8072 4.1665 19.9969 4.1665C22.1869 4.1665 24.2454 4.58206 26.1723 5.41317C28.0993 6.24428 29.7754 7.3722 31.2007 8.79692C32.6259 10.2216 33.7544 11.8971 34.5861 13.8232C35.4175 15.7493 35.8332 17.8072 35.8332 19.9969C35.8332 22.1869 35.4176 24.2454 34.5865 26.1723C33.7554 28.0993 32.6275 29.7754 31.2028 31.2007C29.778 32.6259 28.1026 33.7544 26.1765 34.5861C24.2504 35.4175 22.1925 35.8332 20.0028 35.8332ZM16.9644 7.03525C18.2272 9.36414 19.9789 11.135 22.2194 12.3478C24.4597 13.5603 26.7754 14.1665 29.1665 14.1665C29.6196 14.1665 30.0614 14.143 30.4919 14.0961C30.9225 14.0491 31.3589 13.9818 31.8011 13.894C30.6878 11.6826 29.0751 9.92511 26.9632 8.6215C24.8509 7.31817 22.5298 6.6665 19.9998 6.6665C19.4401 6.6665 18.9182 6.69803 18.434 6.76109C17.9501 6.82414 17.4603 6.91553 16.9644 7.03525ZM7.13442 16.8173C8.70081 16.0332 10.188 14.8873 11.5961 13.3798C13.0041 11.8723 13.9133 10.0651 14.3236 7.95817C12.5008 8.78512 10.9603 9.97373 9.70192 11.524C8.44331 13.0743 7.58748 14.8387 7.13442 16.8173Z" fill="#611232"/>
<path d="M17.1715 30.2027C18.0275 30.7342 18.9711 31 20.0023 31C21.0333 31 21.9791 30.7342 22.8397 30.2027C23.7 29.6714 24.388 28.9457 24.9036 28.0255C25.0321 27.801 25.0321 27.574 24.9036 27.3444C24.7753 27.1148 24.5984 27 24.3731 27H15.6312C15.3832 27 15.2007 27.1148 15.0836 27.3444C14.9667 27.574 14.9724 27.801 15.1007 28.0255C15.6253 28.9457 16.3155 29.6714 17.1715 30.2027Z" fill="#611232"/>
</g>
</svg>
